<?xml version="1.0" encoding="utf-8"?>
<!-- Generator: Adobe Illustrator 27.1.0, SVG Export Plug-In . SVG Version: 6.00 Build 0)  -->
<svg version="1.1" id="Layer_1" xmlns="http://www.w3.org/2000/svg" xmlns:xlink="http://www.w3.org/1999/xlink" x="0px" y="0px"
	 viewBox="0 0 387.33 928.75" style="enable-background:new 0 0 387.33 928.75;" xml:space="preserve">
<style type="text/css">
	.st0{fill:#C3BFD3;}
	.st1{fill:#F8B98E;}
	.st2{fill:#E2985F;}
	.st3{fill:#CFBBA2;}
	.st4{fill:#BBAB9E;}
	.st5{fill:#B6956B;}
	.st6{fill:#DEDEE7;}
	.st7{fill:#B5A185;}
	.st8{fill:#B6B0A9;}
	.st9{fill:#B6946D;}
	.st10{fill:#926A42;}
	.st11{fill:#8D653D;}
	.st12{fill:#F2EFEA;}
	.st13{fill:#EEE8E3;}
	.st14{fill:#DAD4D7;}
	.st15{fill:#F0EDE6;}
	.st16{fill:#E1D9DA;}
	.st17{fill:#CFC3B8;}
	.st18{fill:#E5E2DD;}
	.st19{fill:#CDC3BD;}
	.st20{fill:#D3CBC5;}
	.st21{fill:#D3C2AD;}
	.st22{fill:#E5B99B;}
	.st23{fill:#DED6D1;}
	.st24{fill:#DFD5C6;}
	.st25{fill:#F3F1EC;}
	.st26{fill:#EBE7E3;}
	.st27{fill:#BEB7CB;}
	.st28{fill:#958D81;}
	.st29{fill:#DABAB3;}
	.st30{fill:#97806B;}
	.st31{fill:#FBB98B;}
	.st32{fill:#E19862;}
	.st33{fill:#D69E6A;}
	.st34{fill:#9F6636;}
	.st35{fill:#C99361;}
	.st36{fill:#895418;}
	.st37{fill:#BB7740;}
	.st38{fill:#958C80;}
	.st39{fill:#BEBACD;}
	.st40{fill:#B9B4C3;}
	.st41{fill:#E6BD8C;}
	.st42{fill:#693300;}
	.st43{fill:#946222;}
	.st44{fill:#936223;}
	.st45{fill:#A27F59;}
	.st46{fill:#6D4208;}
	.st47{fill:#673402;}
	.st48{fill:#DC9763;}
	.st49{fill:#C18350;}
	.st50{fill:#AA752C;}
	.st51{fill:#C8B5A3;}
	.st52{fill:#683301;}
	.st53{fill:#6A3501;}
	.st54{fill:#8A5B30;}
	.st55{fill:#D89701;}
	.st56{fill:#AF7304;}
	.st57{fill:#895103;}
	.st58{fill:#6A3401;}
	.st59{fill:#A16705;}
	.st60{fill:#8B5202;}
	.st61{fill:#633100;}
	.st62{fill:#915B02;}
	.st63{fill:#E7BC9C;}
	.st64{fill:#D5CDC8;}
	.st65{fill:#B7A79E;}
	.st66{fill:#C3BFCC;}
	.st67{fill:#D3CCCE;}
	.st68{fill:#E4DFDE;}
	.st69{fill:#BEB3A9;}
	.st70{fill:#D8D1D3;}
	.st71{fill:#EEE8E2;}
	.st72{fill:#E6E0DC;}
	.st73{fill:#D8D7E0;}
	.st74{fill:#C9C5D3;}
	.st75{fill:#BAAA98;}
	.st76{fill:#BCAB9C;}
	.st77{fill:#DACDBB;}
	.st78{fill:#CEC2BC;}
	.st79{fill:#BEB2A7;}
	.st80{fill:#BB9C79;}
	.st81{fill:#E8DCCA;}
	.st82{fill:#C0A793;}
	.st83{fill:#DD9866;}
	.st84{fill:#B6B1C8;}
	.st85{fill:#9B877A;}
	.st86{fill:#CCB391;}
	.st87{fill:#DE9867;}
	.st88{fill:#E8BEA1;}
	.st89{fill:#AC9C8A;}
	.st90{fill:#BFBCD0;}
	.st91{fill:#AB9C85;}
	.st92{fill:#8E714F;}
	.st93{fill:#D4C3AA;}
	.st94{fill:#D6CFD3;}
	.st95{fill:#E5D5BE;}
	.st96{fill:#CAB290;}
	.st97{fill:#9A6A2B;}
	.st98{fill:#724F17;}
	.st99{fill:#D3A886;}
	.st100{fill:#FDB98A;}
	.st101{fill:#B89A82;}
	.st102{fill:#E2B9A6;}
	.st103{fill:#D2884F;}
	.st104{fill:#CF7732;}
	.st105{fill:#D3884E;}
	.st106{fill:#AE6D38;}
	.st107{fill:#975116;}
	.st108{fill:#683402;}
	.st109{fill:#D79600;}
	.st110{fill:#673401;}
	.st111{fill:#BC8101;}
	.st112{fill:#693301;}
	.st113{fill:#8B5204;}
	.st114{fill:#8A4F1C;}
	.st115{fill:#B59452;}
	.st116{fill:#FBB084;}
	.st117{fill:#673200;}
	.st118{fill:#E2B38F;}
	.st119{fill:#967150;}
	.st120{fill:#CDBCAE;}
	.st121{fill:#E8C1A4;}
	.st122{fill:#9E8562;}
	.st123{fill:#E5B997;}
	.st124{fill:#813D00;}
	.st125{fill:#B68002;}
	.st126{fill:#A76C02;}
	.st127{fill:#D69701;}
	.st128{fill:#D79701;}
	.st129{fill:#DEA816;}
	.st130{fill:#E6BE3F;}
	.st131{fill:#DC9967;}
	.st132{fill:#D7A587;}
	.st133{fill:#BFB5B6;}
	.st134{fill:#CCC8D6;}
	.st135{fill:#BEB3B1;}
	.st136{fill:#BAAC9B;}
	.st137{fill:#C6C1D0;}
	.st138{fill:#BBB8C9;}
	.st139{fill:#A5978E;}
	.st140{fill:#9C8573;}
	.st141{fill:#C1BFD2;}
	.st142{fill:#B8B1C1;}
	.st143{fill:#B8804C;}
	.st144{fill:#D2A38A;}
	.st145{fill:#926532;}
	.st146{fill:#78521B;}
	.st147{fill:#714C17;}
	.st148{fill:#DD9965;}
	.st149{fill:#E4B28C;}
	.st150{fill:#BA804B;}
	.st151{fill:#906429;}
	.st152{fill:#734E17;}
	.st153{fill:#B79A81;}
	.st154{fill:#968B80;}
	.st155{fill:#968D81;}
	.st156{fill:#958B80;}
	.st157{fill:#7D5531;}
	.st158{fill:#D79801;}
	.st159{fill:#BB7F03;}
	.st160{fill:#A17400;}
	.st161{fill:#6A3303;}
	.st162{fill:#B07103;}
	.st163{fill:#E4AB73;}
	.st164{fill:#FBF4A2;}
	.st165{fill:#FBF3A1;}
	.st166{fill:#A79EAD;}
	.st167{fill:#D38449;}
	.st168{fill:#AB9177;}
	.st169{fill:#9F622F;}
	.st170{fill:#8D5015;}
	.st171{fill:#DD9966;}
	.st172{fill:#9B958F;}
	.st173{fill:#724A14;}
	.st174{fill:#6F4911;}
	.st175{fill:#866D4E;}
	.st176{fill:#A36F3C;}
	.st177{fill:#8A785F;}
	.st178{fill:#DD9967;}
	.st179{fill:#AF7102;}
	.st180{fill:#A27400;}
	.st181{fill:#D69601;}
	.st182{fill:#D79601;}
	.st183{fill:#875103;}
	.st184{fill:#DABF70;}
	.st185{fill:#85633D;}
	.st186{fill:#D3AD9C;}
	.st187{fill:#895F22;}
	.st188{fill:#AC773F;}
	.st189{fill:#93795D;}
	.st190{fill:#704B1B;}
	.st191{fill:#C1C1D5;}
	.st192{fill:#764E19;}
	.st193{fill:#BBAB97;}
	.st194{fill:#734B18;}
	.st195{fill:#978D81;}
	.st196{fill:#9C93A5;}
	.st197{fill:#986C37;}
	.st198{fill:#693401;}
	.st199{fill:#B47701;}
	.st200{fill:#7A5B54;}
	.st201{fill:#947E79;}
	.st202{fill:#D89801;}
	.st203{fill:#B57901;}
	.st204{fill:#9A6C37;}
	.st205{fill:#BE9779;}
	.st206{fill:#B1ABC0;}
	.st207{fill:#B9A58F;}
</style>
<path class="st0" d="M50.91,502.58c-0.01-8.99-0.02-17.98-0.04-26.97c0.23,0.06,0.46,0.13,0.68,0.21
	c4.42,0.98,19.32,3.34,23.21,0.68c4.23-2.9,1.9-13.04,1.87-17.78c-1.23-1.65-3.02-1.01-4.59-1.03c-6.77-0.08-13.55-0.06-20.32-0.07
	c0-7.31-0.01-14.63-0.01-21.94c0,0,0.02-0.01,0.02-0.01c4.47,0.02,8.95,0.25,13.4-0.02c3.52-0.21,7.23,1.25,10.57-0.98
	c0.01-0.33-0.01-0.66-0.06-0.99c0.05-0.97,0.11-1.95,0.16-2.92c0.25-0.02,0.51-0.04,0.76-0.06c-0.26,3.21,1.25,4.19,4.39,4.1
	c6.57-0.18,13.15,0,19.73,0.03c0.01,17.92,0.02,35.84,0.02,53.77c-4.81,0-9.62-0.06-14.43,0.01c-17.27,0.26-16.39,1.75-18.55,13.75
	c-5.3,0.09-10.61,0.17-15.91,0.26C51.5,502.58,51.2,502.58,50.91,502.58z"/>
<path class="st1" d="M100.71,246.19c0.84-0.14,1.75-0.15,2.21-1.08c0.22,0.02,0.43,0.06,0.65,0.12c1.4,1.24,3.11,0.8,4.71,0.81
	c7.38,0.05,14.76,0.03,22.14,0.04c0.1,11.95,0.21,23.9,0.31,35.84c-0.06,7.01-0.11,14.01-0.17,21.02c-4.66,0.71-3.8,1.93,0.08,4.99
	c0,1.33,0,2.67,0,4c-1.88-1.41-4.43-2.81-5.81-4.8c-1.12-1.64-1.35-5.63-2.3-6.73c-2.5-2.91-5.96-1.16-8.03-3.55
	c-4.93-5.72,5.55-2.76,5.67-2.8c-0.86,0.24,5.78-4.73,5.56-4.16c3.02-7.7-16.51-6.27-19.07-0.64c-0.55,1.21,5.62,5.45,1.65,6.23
	c-3.99,0.79-3.62-5.17-6.57-5.5c-0.02-12.06,0-24.13-0.1-36.19c-0.02-2.25,0.69-4.64-0.73-6.76
	C100.85,246.74,100.78,246.47,100.71,246.19z"/>
<path class="st2" d="M102.51,183.18c-0.01-2.97-0.02-5.95-0.03-8.92c0.19-0.02,0.38-0.06,0.56-0.12c9.18,0.03,18.37,0.07,27.55,0.1
	c0,8.63,0.01,17.27,0.01,25.9c-0.33-0.09-0.65-0.06-0.96,0.07c-2.99,0.01-5.98,0.02-8.97,0.03c-5.98-0.05-11.97-0.11-17.95-0.16
	c0,0,0.05,0.03,0.05,0.03C102.69,194.47,102.6,188.83,102.51,183.18z"/>
<path class="st3" d="M76.62,302.8c0.04-0.3,0.03-0.6-0.01-0.9c0.08-17.97,0.16-35.94,0.24-53.91c0.23,0.05,0.46,0.1,0.7,0.14
	c0.11,10.28,0.21,20.55,0.32,30.83c-0.03,8.31-0.05,16.62-0.08,24.92c-0.06,0.32-0.07,0.64-0.02,0.97
	C76.83,304.47,76.74,303.63,76.62,302.8z"/>
<path class="st4" d="M51.72,457.6c6.78,0.01,13.55-0.01,20.32,0.07c1.57,0.02,3.36-0.62,4.59,1.03c-0.34,0.01-0.67,0.02-1.01,0.03
	c-7.91,0.02-15.83,0.04-23.74,0.06c-0.28-0.03-0.56-0.06-0.85-0.07c-0.09-0.3-0.14-0.6-0.15-0.91
	C51.16,457.74,51.44,457.67,51.72,457.6z"/>
<path class="st5" d="M77.55,248.13c-0.23-0.04-0.47-0.09-0.7-0.14c-0.05-2.39,1.75-1.95,3.13-1.94c6.91,0.02,13.81,0.09,20.72,0.14
	c0.07,0.28,0.14,0.56,0.21,0.84c0,0-0.36,0.12-0.36,0.11c-4.14-0.04-8.3-0.3-12.43-0.04C84.6,247.32,80.87,245.81,77.55,248.13z"/>
<path class="st6" d="M75.69,434.65c-3.33,2.23-7.05,0.77-10.57,0.98c-4.45,0.27-8.93,0.04-13.4,0.02c4.74-2.03,9.71-0.55,14.56-0.91
	C69.41,434.51,72.55,434.67,75.69,434.65z"/>
<path class="st7" d="M102.93,222.21c0.3-0.03,0.61-0.03,0.91,0c0,7.58,0,15.16,0.01,22.74l-0.28,0.27c-0.21-0.06-0.43-0.1-0.65-0.12
	C102.92,237.48,102.92,229.84,102.93,222.21z"/>
<path class="st6" d="M51.72,457.6c-0.28,0.07-0.56,0.14-0.83,0.21c-0.07-4.05-0.15-8.1-0.23-12.15c0-2.99,0-5.99,0-8.98
	c0.35-0.34,0.7-0.68,1.05-1.02C51.71,442.97,51.71,450.29,51.72,457.6z"/>
<path class="st8" d="M76.58,344.94c0.06-0.36,0.12-0.72,0.18-1.08c1.64,6.67,1.48,13.34,0.09,20.02c-0.08-0.38-0.16-0.75-0.24-1.13
	C76.6,356.81,76.59,350.87,76.58,344.94z"/>
<path class="st9" d="M51.03,458.72c0.28,0.01,0.57,0.04,0.85,0.07c0,5.56-0.01,11.12-0.01,16.68l-0.32,0.34
	c-0.23-0.08-0.45-0.15-0.68-0.21c-0.08-5.32-0.17-10.65-0.25-15.97C50.76,459.33,50.9,459.02,51.03,458.72z"/>
<path class="st10" d="M231.46,0.7c0.31-0.05,0.62-0.06,0.92-0.02c0.13,8.6,0.26,17.21,0.4,25.81c-0.17-0.04-0.34-0.04-0.5,0
	c-0.24,0.01-0.48,0.01-0.72,0C231.53,17.9,231.49,9.3,231.46,0.7z"/>
<path class="st11" d="M76.66,26.27c0.27,0.08,0.54,0.15,0.81,0.2l0.25-0.13c0,0,0.27,0.08,0.27,0.08c-0.12,0.36-0.24,0.71-0.37,1.07
	c-0.29,0-0.58,0.02-0.87,0.05c-6.67,0.03-13.35,0.07-20.02,0.1c-1.59,0-3.19-0.01-4.78-0.01c-0.04-0.29-0.06-0.59-0.06-0.89
	C60.14,26.58,68.4,26.42,76.66,26.27z"/>
<path class="st12" d="M232.58,928.66c-1.66-0.94-3.47-0.93-5.31-1c-27.2-1.05-54.41-1.03-81.62-1.01c2.12-1.85,4.67-0.58,6.99-0.97
	c6.53,0,13.68,0.74,20.17,0.03c6.8-0.74,6.63-1.75,6.76-8.54c0.07-3.51-1.42-9.82,1.75-12.16c3.1-2.29,13.92-0.25,17.73-0.25
	c6.34,0,24.99,3.4,30.36-1.17c4.52-3.85-1.59-17.06,7.14-15.84c2.33,0.01,4.66,0.02,6.99,0.03c6.36,2.51,13.64,1.9,18.59-1.01
	c7.82-4.6,16.94-9.58,17.39-20.91c6.74,1.32,9.27-3.46,11.99-8.43c1.94-3.55,8.57-13.05,7.99-17.56c2.99-0.01,5.98-0.01,8.96-0.02
	c3.4,0,13.52-1.76,16.18,0.68c2.79,2.55,0.93,15.26,0.8,18.77c-0.6,15.78-11.31,1.8-21.45,7.48c-7.27,4.08-0.24,11.54-3.91,17.67
	c-3.67,6.13-11.67-0.09-15.58,4.32c0,4.22-0.23,8.45,0.07,12.65c0.19,2.71-0.89,4.2-3.1,5.26c-13.61,0-28.4-1.66-41.9-0.04
	c-10.93,1.31-7.04,11.37-7,21C232.58,927.98,232.58,928.32,232.58,928.66z"/>
<path class="st13" d="M284.51,888.78c3.91-4.41,11.9,1.81,15.58-4.32c3.67-6.13-3.36-13.6,3.91-17.67
	c10.14-5.68,20.85,8.29,21.45-7.48c0.13-3.51,1.99-16.22-0.8-18.77c-2.66-2.44-12.78-0.67-16.18-0.68c0.02-0.32,0.03-0.64,0.04-0.96
	c0.33-0.01,0.65-0.01,0.98-0.02c3,0,6.03-0.29,8.98,0.07c4.81,0.58,6.81-1.2,6.03-6l-0.03-0.05l0.49,0c0,0,0.49-0.02,0.49-0.02
	c6.56-0.4,24.41,4.03,30.05,0.98c6.24-3.38,3.93-11.85,3.92-18.92c0.01-5.45,2.3-15.22-2.97-17.88c-6.19-3.12-21.93-0.15-29.03-0.16
	c4.9-2.02,10.03-0.4,15.03-0.95c4.41,0,8.84,0.28,13.22-0.07c4.11-0.33,5.25,1.44,4.8,5.07c0,3.33,0,6.65,0,9.98
	c-0.01,5.5-3.09,23.99,1.52,27.41c5.59,4.14,20.74-4.16,25.37,1.55c-0.34,0-0.68,0.01-1.02,0.01c-8.62,0.02-17.24,0.04-25.86,0.06
	c-0.34-0.02-0.67-0.03-1.01-0.05c-3.81-0.01-12.12-1.82-14.75,1.44c-2.86,3.54-0.3,19.14-0.31,23.43c-5.94,0.77-12.06-1.3-17.9,1.09
	c-0.04,3.46-0.11,6.92-0.12,10.37c-0.02,11.92-0.01,11.92,12.12,11.37l-0.09,0.38c-3.11,1.58-6.45,0.61-9.67,0.73
	c-2.21,0.09-3.48,0.67-3.35,3.06c-1.51-1.02-0.49-4.84-3.47-3.87c-5.99,1.95-11.87-1-17.66,0
	C297.68,889.04,291.1,888.56,284.51,888.78z"/>
<path class="st14" d="M284.51,888.78c6.59-0.22,13.18,0.26,19.78-0.88c5.79-1,11.67,1.95,17.66,0c2.97-0.97,1.96,2.85,3.47,3.87
	c0.02,6.45,3.36,27.91-0.01,32.7c-3.81,5.43-18.2,4.36-24.79,2.15c0,0,0.46,0,0.46,0l0.47-0.03c4.73,0.02,17.65,2.55,21.47-0.18
	c3.88-2.77,1.45-14.58,1.44-18.68c-7.66-2-15.41-0.93-23.12-0.54c-0.32,0.02-0.6,1.04-0.9,1.59c-4.96,0-9.93,0-14.89,0
	c-0.04-0.37-0.07-0.73-0.11-1.1c-1.04-1.42-2.62-0.72-3.96-1c2.22-1.06,3.29-2.55,3.1-5.26C284.28,897.23,284.51,893,284.51,888.78z
	"/>
<path class="st15" d="M152.65,925.69c-2.32,0.39-4.88-0.88-6.99,0.97c-3.67,0.02-7.33,0.04-11,0.05c-0.67-0.34-1.33-0.68-2-1.02
	c0-6.99,0-13.97,0-20.96c4.47,0,16.6-2.35,19.69,1.42C154.75,909.1,152.65,922.13,152.65,925.69z"/>
<path class="st16" d="M344.42,864.77c0-4.28-2.56-19.88,0.31-23.43c2.63-3.26,10.94-1.45,14.75-1.44c-0.02,4.12-0.22,8.25,0,12.36
	c0.21,3.85-1.12,7.84,0.97,11.53c4.25,0.01,21.87,2.52,25.1-0.81c3.44-3.55,0.81-18.13,0.79-23.09c0.34,0,0.68-0.01,1.02-0.01
	c0.01,5.5,3.07,21.45-1.63,24.68c-4.22,2.9-21.06,0.26-26.34,0.25C354.4,864.8,349.41,864.79,344.42,864.77z"/>
<path class="st17" d="M344.42,864.77c4.99,0.02,9.98,0.03,14.97,0.05c0,4.62,2.45,18.83-0.86,22.06c-3,2.92-16.19,1.05-20.1,1.1
	c0,0,0.09-0.38,0.09-0.38c4.32-1.49,15.29,1.46,18.41-1.16c2.87-2.41,1.46-8.61,1.39-11.98c-0.17-7.87,0.19-7.83-7.19-8.67
	c-7.97-0.9-16.57,0.05-24.61,0.07C332.36,863.47,338.48,865.54,344.42,864.77z"/>
<path class="st18" d="M232.58,928.66c0-0.34,0-0.68,0-1.01c16.98-0.01,33.96-0.02,50.94-0.04l0.03,0.31
	c-1.44,1.19-3.17,0.75-4.78,0.76C263.37,928.69,247.98,928.67,232.58,928.66z"/>
<path class="st19" d="M301.55,926.61l-0.47,0.03c0,0-0.47,0-0.46,0c-0.06-5.95-0.12-11.9-0.19-17.84c0.3-0.55,0.57-1.58,0.9-1.59
	c7.72-0.38,15.46-1.46,23.12,0.54c-4.43,0-17.93-2.47-21.36,0.25C299.17,911.11,301.53,922.17,301.55,926.61z"/>
<path class="st20" d="M285.43,907.69c0.04,0.37,0.07,0.73,0.11,1.1c-0.01,4.9,0,9.8-0.04,14.7c-0.02,1.73,0.49,3.74-1.95,4.43
	c0,0-0.03-0.3-0.03-0.3c1.55-2.43,0.74-5.16,1-7.76C284.93,915.8,283.5,911.62,285.43,907.69z"/>
<path class="st21" d="M50.05,798.02l26.55-0.14c0,0,0.37,0.14,0.37,0.14c-0.02,5.33-0.03,10.67-0.05,16
	c-0.09,0.63-0.17,1.25-0.26,1.88c-7.29,0.01-14.58,0.03-21.87,0.04c-0.21-3.6-4.86-4.4-5.05-8.01
	C50.5,807.47,50.05,798.02,50.05,798.02z"/>
<path class="st22" d="M76.57,786.97c0-16.62,0-33.24,0-49.86c0-2.33,0-4.66,0-6.99c0-11.31,0-22.62,0-33.92
	c0.09-5.66,0.18-11.33,0.27-16.99c0.27-0.01,0.53-0.02,0.8-0.02c0.04,8.99,0.08,17.97,0.12,26.96c-0.02,28.69-0.02,57.39-0.08,86.08
	c0,1.94,0.56,4-0.71,5.8c0,0-0.37-0.14-0.37-0.14c0.07-0.31,0.05-0.62-0.04-0.92C76.56,793.63,76.57,790.3,76.57,786.97z"/>
<path class="st23" d="M23.79,865.76c-0.02-0.29-0.04-0.57-0.08-0.86c0.37-0.07,0.74-0.14,1.11-0.21c1.59,0,3.19,0,4.78,0.01
	c7.1,0.01,14.19,0.02,21.29,0.04c0.25,0.04,0.49,0.12,0.72,0.22c0.06,6.92,0.12,13.84,0.18,20.77c0,5.99,0,11.97-0.01,17.96
	c-0.34,0-0.68,0.01-1.02,0.01c-0.02-5.95-0.05-11.91-0.07-17.86c0.01-3.69,2.05-16.24-0.84-19.13c-2.89-2.88-15.08-0.84-19.15-0.82
	l-0.47-0.01c0,0-0.47,0.01-0.47,0.01C27.77,865.83,25.78,865.79,23.79,865.76z"/>
<path class="st24" d="M3.84,839.94c0-0.34-0.01-0.68-0.01-1.02c0.99-0.04,1.97-0.08,2.96-0.12c7.6-0.02,15.2-0.03,22.8-0.05
	c0.05,0.37,0.1,0.74,0.14,1.11c0,0,0.03,0,0.03,0c-1.64,0.04-3.29,0.07-4.93,0.11C17.83,839.96,10.83,839.95,3.84,839.94z"/>
<path class="st25" d="M50.77,903.68c0.34,0,0.68-0.01,1.02-0.01c0,0,0.47,0.05,0.47,0.05s0.47-0.01,0.47-0.01
	c8,0.01,16,0.02,24,0.02c17.64,0.01,35.28,0.02,52.91,0.03c0.75,1.13,1.92,0.93,3.02,0.97c0,6.99,0,13.97,0,20.96
	c-5.99,0.66-21.12,2.59-26.66-0.43c-8-4.36-0.73-13.22-4.55-18.86c-2.85-4.21-20.44-1.63-24.92-1.63
	C71.89,904.78,53.73,907.36,50.77,903.68z"/>
<path class="st26" d="M30.71,865.87c4.07-0.01,16.26-2.06,19.15,0.82c2.89,2.89,0.85,15.44,0.84,19.13
	c-3.8-0.01-16.35,2.07-19.2-0.77C28.64,882.2,30.72,869.67,30.71,865.87z"/>
<path class="st27" d="M67.7,502.34c2.17-12,1.28-13.49,18.55-13.75c4.81-0.07,9.62-0.01,14.43-0.01
	c-0.01,14.94-0.02,29.89-0.02,44.83c-6.48,0.03-20,2.75-23.86-2.53c-3.67-5.02,1.13-20.71-1-27.38l-0.01-0.04
	C73.32,501.47,70.35,503.06,67.7,502.34z"/>
<path class="st28" d="M76.54,430.67c0.1-1.32,0.19-2.65,0.29-3.97c5.47,2.87,8.63,0.17,13.89,1.03c4.46,0.73,4.61,3.48,9.89,1.96
	c0.02,1.65,0.04,3.3,0.05,4.95c0,0-0.01,0.17-0.01,0.17c-6.58-0.03-13.16-0.21-19.73-0.03C77.79,434.86,76.28,433.88,76.54,430.67z"
	/>
<path class="st29" d="M100.66,533.4c0.01-14.94,0.02-29.89,0.02-44.83c-0.01-17.92-0.02-35.84-0.02-53.77c0,0,0.01-0.17,0.01-0.17
	c0.32,0.04,0.65,0.06,0.97,0.07c-0.03,32.98-0.07,65.95-0.1,98.93C101.23,533.6,100.94,533.52,100.66,533.4z"/>
<path class="st9" d="M75.62,458.73c0.34-0.01,0.67-0.02,1.01-0.03c0.04,4.74,2.36,14.88-1.87,17.78c-3.89,2.66-18.79,0.3-23.21-0.68
	c0,0,0.32-0.34,0.32-0.34c4.14,0.03,18.39,2.35,21.78-0.21C77.36,472.47,75.66,463.52,75.62,458.73z"/>
<path class="st30" d="M67.7,502.34c2.65,0.73,5.62-0.87,8.09,1.12c-7.99,0.05-15.98,0.11-23.98,0.16c-0.01-0.34-0.02-0.68-0.02-1.01
	C57.1,502.51,62.4,502.43,67.7,502.34z"/>
<path class="st31" d="M101.74,289.97c2.95,0.33,2.58,6.29,6.57,5.5c3.97-0.78-2.2-5.03-1.65-6.23c2.56-5.64,22.09-7.06,19.07,0.64
	c0.22-0.57-6.42,4.41-5.56,4.16c-0.12,0.03-10.6-2.93-5.67,2.8c2.06,2.39,5.53,0.65,8.03,3.55c0.95,1.1,1.18,5.1,2.3,6.73
	c1.37,2,3.93,3.39,5.81,4.8c0.03,9.97,0.06,19.95,0.09,29.92c-0.05,5.66-0.09,11.32-0.14,16.98c-9.79,1.28-6.41-10.55-12.07-12.41
	c-1.91-0.63-2.08,3.81-4.28,2.83c-1.13-0.5-1.89-2.8-2.65-3.06c-2.81-0.97-6.43-3.07-9.88-4.33c-0.02-0.33-0.03-0.66-0.04-0.98
	c0-12,0-23.99,0-35.99C101.69,299.93,101.72,294.95,101.74,289.97z"/>
<path class="st32" d="M130.72,341.85c-0.03-9.97-0.06-19.95-0.09-29.92c0-1.33,0-2.67,0-4c-0.03-1.66-0.05-3.32-0.08-4.99
	c0.06-7.01,0.11-14.01,0.17-21.02c0.24,0.06,0.49,0.11,0.73,0.14c0.13,0.27,0.23,0.54,0.3,0.83c-0.02,0.7-0.05,1.39-0.07,2.09
	c0,7.31,0,14.62,0,21.93c0,6.99,0,13.99,0,20.98c0,2.99,0,5.99,0,8.98c0.02,1.36,0.05,2.72,0.07,4.07c-0.02,0.25-0.04,0.5-0.06,0.74
	C131.38,341.76,131.05,341.81,130.72,341.85z"/>
<path class="st33" d="M101.74,289.97c-0.03,4.98-0.06,9.95-0.09,14.93c-0.34,0.06-0.67,0.12-1.01,0.18c0,0,0-0.26,0-0.26
	c0.02-0.32,0-0.63-0.05-0.95c-0.01-5.97-0.03-11.93-0.04-17.9c0-12.95,0-25.89,0-38.84c0,0,0.36-0.12,0.36-0.12
	c1.42,2.12,0.71,4.51,0.73,6.76C101.74,265.84,101.72,277.91,101.74,289.97z"/>
<path class="st34" d="M131.45,282.07c-0.25-0.03-0.49-0.08-0.73-0.14c-0.1-11.95-0.2-23.9-0.31-35.84l0.25-0.01
	c0,0,0.25,0.03,0.25,0.03c2.07,2.46,0.38,5.32,0.85,7.94c0.05,9.28,0.09,18.57,0.14,27.85C131.9,281.9,131.45,282.07,131.45,282.07z
	"/>
<path class="st35" d="M130.41,246.08c-7.38-0.01-14.76,0.01-22.14-0.04c-1.6-0.01-3.31,0.43-4.71-0.81c0,0,0.28-0.27,0.28-0.27
	c8.92,0.07,17.84,0.15,26.76,0.22c0.06,0.32,0.16,0.63,0.31,0.92l-0.25-0.03C130.66,246.07,130.41,246.08,130.41,246.08z"/>
<path class="st31" d="M130.55,302.94c0.03,1.66,0.06,3.32,0.08,4.99C126.75,304.87,125.89,303.65,130.55,302.94z"/>
<path class="st36" d="M130.83,215.11c-0.08-4.99-0.15-9.97-0.23-14.96c0-8.63-0.01-17.27-0.01-25.9c0.09-0.25,0.14-0.51,0.15-0.78
	c7.62-0.04,15.24-0.08,22.86-0.12c-0.01,0.3-0.05,0.6-0.1,0.9c-6.84-0.02-17.94-2.44-21.75,3.13c-3.19,4.66-0.05,24.59-0.04,30.78
	C131.29,210.46,132.45,212.95,130.83,215.11z"/>
<path class="st37" d="M130.74,173.47c-0.01,0.27-0.06,0.53-0.15,0.78c-9.19-0.03-18.37-0.07-27.55-0.1c-0.19-0.3-0.39-0.6-0.58-0.9
	c0,0,0.46-0.08,0.46-0.08c0.29,0,0.57-0.03,0.85-0.09c8.28,0.01,16.56,0.02,24.84,0.03l0.48,0.07l0.48-0.01
	C129.96,173.26,130.35,173.36,130.74,173.47z"/>
<path class="st38" d="M100.61,429.69c-5.28,1.52-5.42-1.23-9.89-1.96c-5.27-0.86-8.42,1.84-13.89-1.03
	c0-20.94,0.01-41.88,0.01-62.82c1.39-6.68,1.54-13.36-0.09-20.02c0,0-0.05,0.02-0.05,0.02c-0.18-2.85,1.62-3.03,3.81-2.99
	c6.7,0.1,13.4,0.09,20.1,0.12C100.61,370.57,100.61,400.13,100.61,429.69z"/>
<path class="st39" d="M76.62,302.8c0.12,0.83,0.21,1.67,1.15,2.05c7.63-0.01,15.25-0.02,22.88-0.02c0,0,0,0.26,0,0.26
	c0,11.26,0.01,22.53,0.01,33.79c-4.83-0.55-5.64-7.05-9.71-9.01c-3.98-1.91-10.08,1.04-13.25-1.99c-0.22-9.12,1.18-7.88-7.92-7.93
	c-5.97-0.03-11.95,0.01-17.93,0.03c0.02-6.07-3.11-13.53,3.14-17.29C58.8,300.4,72.11,302.87,76.62,302.8z"/>
<path class="st40" d="M77.7,327.88c3.17,3.03,9.27,0.08,13.25,1.99c4.07,1.96,4.88,8.45,9.71,9.01c0.02,0.66,0.05,1.31,0.07,1.97
	l-0.12,0.16c-6.7-0.03-13.4-0.02-20.09-0.12c-2.19-0.03-3.99,0.15-3.81,2.99c-8.29-0.05-16.57-0.1-24.86-0.15
	c0.01-4.93,0.01-9.85,0.01-14.77c2.78-0.02,5.57,0.1,8.35-0.08C66.03,328.48,71.97,329.89,77.7,327.88z"/>
<path class="st41" d="M77.7,327.88c-5.74,2.01-11.67,0.6-17.5,0.99c-2.77,0.18-5.56,0.06-8.35,0.08c0-2.99,0-5.98,0-8.97
	c5.98-0.01,11.95-0.06,17.93-0.03C78.89,320,77.49,318.76,77.7,327.88z"/>
<path class="st42" d="M51.95,27.62c1.59,0,3.19,0.01,4.78,0.01c-3.27,9.72-3.98,24.83-2.33,34.95c0.64,3.96,1.11,13.81,5.86,15.41
	c3.53,1.19,12.17-4.34,16.36-4.58c0.06,0.68,0.12,1.36,0.19,2.04c0.03,7.97,0.05,15.94,0.08,23.9c-0.06,24.61-0.11,49.22-0.17,73.83
	c0,0,0.03,0.07,0.03,0.07c-8.28-0.06-16.56-0.12-24.84-0.19c-0.05-19.28-0.09-38.55-0.15-57.83c-0.01-1.99-0.11-3.98-0.16-5.97
	c-0.01-9.97-0.01-19.94-0.02-29.91C51.7,62.12,51.82,44.87,51.95,27.62z M64.87,83.28c-2.13-1.07-3.38-3.25-5.58-1.57
	C55.82,84.36,62.5,85.1,64.87,83.28z"/>
<path class="st43" d="M100.56,285.98c0.01,5.97,0.03,11.93,0.04,17.9c-7.6,0-15.21,0-22.81,0.01c0.03-8.31,0.05-16.62,0.08-24.92
	c3.11-2.02,9.65-4.53,10.11-8.36c-0.38,3.19-7.54-10.54-2.89-7.17c2.99,2.17,7.04,7.28,8.82,10.65
	C95.69,277.47,95.54,285.73,100.56,285.98z"/>
<path class="st44" d="M100.56,285.98c-5.01-0.25-4.87-8.51-6.66-11.89c-1.78-3.37-5.83-8.48-8.82-10.65
	c-4.65-3.37,2.51,10.36,2.89,7.17c-0.46,3.83-6.99,6.34-10.11,8.36c-0.1-10.28-0.21-20.55-0.32-30.83
	c3.32-2.32,7.06-0.81,10.58-1.04c4.12-0.26,8.28,0,12.43,0.04C100.56,260.08,100.56,273.03,100.56,285.98z"/>
<path class="st45" d="M77.78,303.88c7.6,0,15.21,0,22.81-0.01c0.05,0.31,0.07,0.63,0.05,0.95c-7.63,0.01-15.25,0.02-22.88,0.02
	C77.72,304.52,77.72,304.2,77.78,303.88z"/>
<path class="st46" d="M130.61,245.18c-8.92-0.07-17.84-0.15-26.76-0.22c0-7.58,0-15.16-0.01-22.74c8.9-0.11,17.81-0.22,26.71-0.33
	C130.57,229.65,130.59,237.41,130.61,245.18z"/>
<path class="st47" d="M130.61,245.18c-0.02-7.77-0.04-15.53-0.06-23.3c-0.02-0.93-0.03-1.87-0.05-2.8c0.11-1.32,0.22-2.65,0.33-3.97
	c1.61-2.15,0.46-4.65,0.88-6.95c4.14,5.51,2.15,12.14,2.67,19.37c4.49-7.01,4.97-1.07,10.6-3.8c4.22-2.05,1.32-7.53,8.57-5.6
	c0,0.67,0,1.33-0.01,2c-2.03,1.75-6.28,5.79-6.57,8.69c-0.29,2.94,2.36,3.97,2.03,6.45c0.25-1.9-4.65,6.46-4.05,5.81
	c-1.17,1.25-7.35,4.68-7.54,5.06c-0.71,1.39,3.56,3.66,2.93,4.57c-2.27,3.26-4.21,2.9-8.58,3.36c-0.47-2.63,1.23-5.49-0.85-7.94
	C130.77,245.81,130.67,245.5,130.61,245.18z"/>
<path class="st48" d="M102.46,173.24c-8.26-0.03-16.52-0.06-24.77-0.08c0.04-10,0.09-19.99,0.13-29.99
	c8.23,0.01,16.46,0.02,24.69,0.03c0.14,9.99,0.28,19.97,0.43,29.96L102.46,173.24z"/>
<path class="st49" d="M77.82,143.17c-0.04,10-0.08,19.99-0.13,29.99c0,0-0.49,0.05-0.49,0.05s-0.49-0.03-0.49-0.03
	c0.06-24.61,0.11-49.22,0.17-73.83c0.21,0,0.43,0.01,0.64,0.01C77.62,113.97,77.72,128.57,77.82,143.17z"/>
<path class="st50" d="M75.62,458.73c0.04,4.79,1.73,13.74-1.97,16.53c-3.39,2.55-17.64,0.24-21.78,0.21
	c0-5.56,0.01-11.12,0.01-16.68C59.79,458.77,67.71,458.75,75.62,458.73z"/>
<path class="st51" d="M284.67,252.05c-0.01,3.33-0.01,6.65-0.02,9.98c0,4.32,0,8.65,0,12.97c0,1.66,0.01,3.33,0.01,4.99
	c-0.32,1.35,0.22,2.95-1.14,4.01c0.05-12.97,0.09-25.93,0.14-38.9c0.23-0.03,0.45-0.06,0.68-0.1
	C284.45,247.36,284.56,249.7,284.67,252.05z"/>
<path class="st52" d="M283.67,245.1c-0.05,12.97-0.09,25.93-0.14,38.9c0,0-0.14-0.06-0.14-0.06c-1.86,2.74-0.81,5.8-0.84,8.69
	c-0.15,11.68-0.07,11.68-12.03,11.2c-0.54-5.13-18.87-5.18-16.1-11.13c1.87-4.02,4.3,1.45,5.17,0.59c1.72-1.71,3.31-5.41,3.27-8.33
	c-0.05-3.65-0.22-7.33-4.22-8.54c-4.94-1.49-4.97,2.54-8.21,3.62c-1.54,0.51-3.9,5.89-4.97,0.24c-0.04-0.2,3.05-10.09,3.1-10.27
	c0.99-3.58,3.31-10.69-3.58-10.47c-9.81,0.31,0.44,7.46,0.54,8.02c1.26,7-5.35,4.68-7.16,8.19c-0.52,1,0.04,6.03-0.35,7.77
	c-1.07,4.72-3.29,6.99-3.45,12.45c-2.03-3.19-0.47-6.76-1.07-10.09c0.02-2.49,0.06-4.98,0.06-7.47c0.06-35.03,0.11-70.07,0.16-105.1
	c5.05-0.02,20.29,2.72,24.21-0.39c3.41-2.71,1.69-11.82,1.73-15.67c6.26,7.42,11.61,17.71,18.15,7.73
	c5.97-9.11-0.68-20.3,5.55-28.69c0.05,33.96,0.1,67.91,0.16,101.87C283.49,240.48,283.61,242.79,283.67,245.1z M268.15,264.01
	c-1.84-2.89-1.6-6.41-1.68-9.89c-0.1-4.25-6.97,3.92-5.6,7.72C261.66,264.04,268.47,269.16,268.15,264.01z"/>
<path class="st53" d="M283.33,136.29c-6.23,8.39,0.42,19.58-5.55,28.69c-6.54,9.97-11.88-0.31-18.15-7.73
	c-0.08-6.65-0.15-13.3-0.22-19.94c-0.14-14.83,0.76-29.65,0.22-44.49c-0.46-12.73-0.04-25.48-0.01-38.23
	c4.31,0.01,8.62,0.01,12.94,0.02c11.42,6.3,6.66,27.75,5.94,38.48c-0.51,7.59,1.95,13.24,1.4,20.49c-0.37,4.93-2.29,16.1,3.44,18.68
	C283.33,133.6,283.33,134.94,283.33,136.29z"/>
<path class="st52" d="M283.33,132.25c-5.73-2.58-3.81-13.75-3.44-18.68c0.55-7.25-1.91-12.9-1.4-20.49
	c0.72-10.74,5.48-32.19-5.94-38.48c3.71,0.25,7.57-1.47,11.11,0.85c-0.06,22.78-0.11,45.55-0.17,68.33
	C283.49,126.6,283.39,129.43,283.33,132.25z"/>
<path class="st52" d="M77.47,26.47c0.13-0.99,0.25-1.97,0.38-2.96c1.29-1.37,0.82-3.09,0.84-4.67c0.07-6.04,0.07-12.08,0.09-18.13
	c28.95-0.06,57.9-0.12,86.84-0.19c1.99,0,3.99-0.09,5.98-0.14c5.33,0.11,10.66,0.23,16,0.34c0.47,4.49-3.9,2.42-5.47,4.62
	c-1.48,2.07-2.51,5.32-3.96,7.56c-3.04,4.71-6.03,4.26,0.83,8.53c3.45-8.61,2.58-5.22,6.38-0.25c2.15-1.21,2.87-4.07,5.86-3.83
	c-0.48,3.08-2.16,5.93-1.63,9.12c-2,0-4,0-6,0c-0.96-1.33-0.98-3.82-3.3-3.52c-1.78,0.23-1.66,2.07-1.68,3.51
	c-3-0.61-6-0.69-8.99,0.07c-0.67-0.03-1.33-0.05-2-0.07c-1.51-1.35-7.59-8.81-8.26-8.91c-5.42-0.84-0.13,4.61-0.75,5.65
	c-1.47,2.49-3.7-0.66-3.98,3.25c-1.67,0-3.33,0-5,0c-0.96-2.68,1.66-3.28-1.64-4.49c-1.88-0.69-5.6,3-6.34,4.49
	c-21.22-0.01-42.45-0.03-63.67-0.04l-0.27-0.08L77.47,26.47z M155.86,13.94c2.4-0.6,4.52-1.25,4.22-3.99
	C159.58,5.47,155.86,11.73,155.86,13.94z"/>
<path class="st54" d="M78.78,0.72c-0.03,6.04-0.02,12.08-0.09,18.13c-0.02,1.58,0.46,3.3-0.84,4.67c0.02-7.62,0.04-15.25,0.06-22.87
	C78.21,0.6,78.49,0.62,78.78,0.72z"/>
<path class="st52" d="M189.6,26.47c-0.53-3.19,1.15-6.05,1.63-9.12c-2.99-0.24-3.71,2.62-5.86,3.83c-3.8-4.97-2.93-8.36-6.38,0.25
	c-6.85-4.27-3.87-3.81-0.83-8.53c1.45-2.24,2.48-5.49,3.96-7.56c1.57-2.2,5.95-0.12,5.47-4.62c14.62-0.01,29.24-0.02,43.86-0.03
	c0.03,8.6,0.06,17.2,0.1,25.8C217.57,26.49,203.59,26.48,189.6,26.47z"/>
<path class="st55" d="M258.61,53.41c-0.02,0.33,0.01,0.65,0.07,0.98c-0.03,27.62-0.07,55.25-0.1,82.87
	c-0.01,6.16,3.55,31.05-1.54,34.66c-2.63,1.86-21.11,1.25-23.06-1.07c-3.99-4.76-0.42-24.28-0.42-31.05c0-6.65,3.94-31.95-1-36.46
	c1.96-16.6,0.6-33.26,1-49.89c8.25-0.01,16.5-0.02,24.75-0.03L258.61,53.41z"/>
<path class="st56" d="M258.58,137.26c0.03-27.62,0.07-55.25,0.1-82.87c0.32,0.02,0.64,0.08,0.94,0.19
	c-0.03,12.74-0.44,25.5,0.01,38.23c0.53,14.85-0.36,29.66-0.22,44.49C259.13,137.29,258.86,137.27,258.58,137.26z"/>
<path class="st57" d="M189.6,26.47c13.99,0.01,27.97,0.02,41.96,0.03c0.24,0.01,0.48,0.01,0.72,0c0.11,0.35,0.22,0.71,0.33,1.06
	c0,0-0.04-0.03-0.04-0.03c-20.98-0.05-41.97-0.1-62.95-0.14c0-0.28,0-0.56,0-0.84c2.99-0.77,5.99-0.68,8.99-0.07
	c1.66,0,3.32,0,4.99,0C185.6,26.47,187.6,26.47,189.6,26.47z"/>
<path class="st58" d="M76.62,73.41c-4.18,0.24-12.83,5.77-16.36,4.58c-4.75-1.6-5.22-11.45-5.86-15.41
	c-1.65-10.12-0.94-25.23,2.33-34.95c6.67-0.03,13.35-0.07,20.02-0.1C76.7,42.82,76.66,58.12,76.62,73.41z"/>
<path class="st59" d="M76.62,73.41c0.04-15.29,0.09-30.59,0.13-45.88c0.29-0.03,0.58-0.05,0.88-0.05c7.72,0.03,15.45,0.07,23.17,0.1
	c-0.06,8.59-0.13,17.17-0.19,25.76c-4.46,0.01-17.77-2.4-21.27,0.33c-4.22,3.29-1.55,16.14-1.52,20.78
	c-0.08,0.29-0.19,0.56-0.33,0.83c-0.23,0.06-0.46,0.12-0.69,0.17C76.74,74.77,76.68,74.09,76.62,73.41z"/>
<path class="st60" d="M100.8,27.58c-7.72-0.03-15.45-0.07-23.17-0.1c0.12-0.36,0.24-0.71,0.36-1.07
	c21.23,0.01,42.45,0.03,63.67,0.04c2.66,0,5.32,0,7.98,0c1.67,0,3.33,0,5,0c4.33,0,8.65,0,12.98,0c0.67,0.02,1.33,0.05,2,0.07
	c0,0.28,0,0.56,0,0.84c-18.64,0.08-37.27,0.16-55.91,0.24C109.41,27.61,105.1,27.59,100.8,27.58z"/>
<path class="st61" d="M258.38,27.61c-0.04,8.26-0.08,16.52-0.11,24.78c-4.56,0-20.21,2.39-23.64-1.03
	c-4.05-4.03-0.28-17.2-1.94-22.95c-0.06-0.3-0.09-0.59-0.11-0.9c0,0,0.04,0.03,0.04,0.03C241.2,27.58,249.79,27.59,258.38,27.61z"/>
<path class="st62" d="M232.69,28.42c1.67,5.75-2.1,18.92,1.94,22.95c3.43,3.42,19.08,1.03,23.64,1.03c0.01,0.34,0.02,0.69,0.03,1.03
	c-8.25,0.01-16.5,0.02-24.75,0.02c-1.07-0.82-1.04-1.99-1.04-3.16C232.57,43,232.63,35.71,232.69,28.42z"/>
<path class="st63" d="M232.7,681.19c-0.01,29.58-0.02,59.17-0.03,88.75c-0.05,0.36-0.1,0.73-0.15,1.09
	c-0.3-0.02-0.59-0.05-0.89-0.07c-0.03-11.96-0.07-23.92-0.1-35.88c0.03-50.9,0.07-101.79,0.1-152.69c0.27,0,0.54-0.01,0.8-0.02
	c0.08,8.98,0.17,17.97,0.25,26.95c0.01,23.62,0.01,47.24,0.02,70.86C232.7,680.52,232.7,680.85,232.7,681.19z"/>
<path class="st64" d="M260.56,770.9c1.65,0,3.31,0,4.96,0.01c18.12,0.04,36.23,0.06,54.35,0.15c1.92,0.01,4.02-0.69,5.7,0.94
	c-0.05,5.66-0.1,11.33-0.16,16.99c-1.94-3.77-0.89-7.81-0.8-11.68c0.1-4.04-0.98-5.43-5.25-5.39c-20.94,0.22-41.89,0.1-62.84,0.11
	c-0.01-0.3-0.02-0.6-0.02-0.9C257.87,771.05,259.22,770.97,260.56,770.9z"/>
<path class="st65" d="M256.54,772.03c20.95,0,41.89,0.11,62.84-0.11c4.27-0.04,5.34,1.34,5.25,5.39c-0.1,3.87-1.14,7.91,0.8,11.68
	c0.02,0.67,0.04,1.33,0.05,2c-0.33,0.01-0.66,0.02-1,0.02c-20.46-0.01-40.93-0.12-61.39,0.05c-3.42,0.03-5.56-0.8-6.54-4.09
	C256.54,781.99,256.54,777.01,256.54,772.03z"/>
<path class="st66" d="M324.48,791.01c0.33-0.01,0.66-0.02,1-0.02c0,1.97,0,3.95,0,5.92c1.74,1.86,4,0.75,6.01,1.04
	c3.31,0.47,6.81-1,9.97,0.98c-4.01,0.01-13-1.89-15.73,1.56c-2.96,3.73-0.24,19.94-0.24,24.43c-0.01,2.33-0.03,4.67-0.04,7
	c0,0.32,0.01,0.65,0,0.97l-0.49,0.02c0,0-0.49,0-0.49,0c-0.01-6.23,1.28-9.81-3.35-13.17c-4.75-3.45-14.05-2.86-19.63-5.8
	c0-7.31-0.01-14.63-0.01-21.94c2.48,0,4.97,0.16,7.43-0.05C314.09,791.5,319.4,793.14,324.48,791.01z"/>
<path class="st67" d="M341.46,798.92c-3.16-1.98-6.66-0.51-9.97-0.98c-2.01-0.28-4.27,0.83-6.01-1.04c0.65,0,1.3-0.01,1.95-0.01
	c7.1,0.01,22.83-2.96,29.03,0.16c5.27,2.66,2.98,12.43,2.97,17.88c-2.05-3.04-5.62-0.07-7.95-2.01
	C351.39,801.67,350.52,800.46,341.46,798.92z"/>
<path class="st68" d="M132.66,904.74c-1.1-0.04-2.27,0.15-3.02-0.97c1.02-0.02,2.03-0.04,3.05-0.06c5.32,0,10.63,0,15.95,0
	c17.38,0.02,34.75-0.09,52.12,0.15c4.14,0.06,5.16-1.42,4.88-5.17c-0.27-3.62-0.05-7.27-0.05-10.91c9.1-0.61,18.28,0.91,27.35-0.95
	c1.23-0.25,2.65-0.31,3.62,0.92c-8.73-1.22-2.62,11.99-7.14,15.84c-5.37,4.57-24.02,1.18-30.36,1.17c-3.81,0-14.63-2.04-17.73,0.25
	c-3.17,2.35-1.68,8.65-1.75,12.16c-0.13,6.79,0.03,7.8-6.76,8.54c-6.49,0.71-13.63-0.03-20.17-0.03c0-3.56,2.1-16.59-0.31-19.53
	C149.26,902.39,137.13,904.74,132.66,904.74z"/>
<path class="st69" d="M285.43,907.69c-1.93,3.93-0.51,8.12-0.91,12.17c-0.26,2.6,0.54,5.33-1,7.76
	c-16.98,0.01-33.96,0.02-50.94,0.04c-0.05-9.63-3.93-19.69,7-21c13.49-1.62,28.29,0.04,41.9,0.04
	C282.81,906.97,284.39,906.26,285.43,907.69z"/>
<path class="st70" d="M236.56,887.76c-0.96-1.24-2.39-1.18-3.62-0.92c-9.07,1.86-18.24,0.34-27.35,0.95
	c12.31-6.49-6.89-21.87,13.45-22c17.16-0.11,34.34,0.05,51.51,0.06c-10.81,4.03-9.81,4.84-15.56,14.88
	c-3.35,5.85-4.38,7.02-11.43,7.06C241.22,887.78,238.89,887.77,236.56,887.76z"/>
<path class="st71" d="M243.55,887.79c7.06-0.05,8.08-1.22,11.43-7.06c5.76-10.04,4.75-10.86,15.56-14.89
	c2.99-0.01,5.98-0.02,8.96-0.04l0.02,0.06c-0.45,11.33-9.57,16.31-17.39,20.91C257.19,889.69,249.91,890.3,243.55,887.79z"/>
<path class="st72" d="M299.5,839.88c0.58,4.51-6.05,14.02-7.99,17.56c-2.72,4.97-5.25,9.75-11.99,8.43c0,0-0.02-0.06-0.02-0.06
	c2.26-1.13,3.17-2.76,3.07-5.47c-0.24-6.81-0.06-13.63-0.05-20.45C288.19,839.88,293.84,839.88,299.5,839.88z"/>
<path class="st73" d="M299.5,839.88c-5.66,0-11.31,0-16.97,0.01c1.28-1.55,3.06-0.97,4.64-0.98c7.11-0.05,14.22-0.01,21.33,0
	c-0.01,0.32-0.02,0.64-0.04,0.96C305.48,839.86,302.49,839.87,299.5,839.88z"/>
<path class="st74" d="M308.5,838.9c-7.11-0.01-14.22-0.05-21.33,0c-1.58,0.01-3.36-0.57-4.64,0.98c-0.01,6.82-0.19,13.64,0.05,20.45
	c0.1,2.71-0.82,4.34-3.07,5.47c-2.99,0.01-5.98,0.02-8.96,0.04c-17.17-0.01-34.34-0.17-51.51-0.06c-20.34,0.13-1.14,15.5-13.45,22
	c0,3.64-0.22,7.29,0.05,10.91c0.28,3.75-0.75,5.22-4.88,5.17c-17.37-0.25-34.75-0.13-52.12-0.15c0.87-5.22,1.44-14.11,1.42-19.16
	c-0.02-4.58,1.14-3.12-2.03-7.29c-3.39-4.47-17.54-7.25-18.37-11.44c-0.05-0.43-0.1-0.86-0.15-1.29c0.11-0.92,0.23-1.84,0.34-2.76
	c1.94-5.35-1.9-14.53,2.25-18.61c4.45-4.38,15.19-1.76,20.68-3.34c25.03,0.01,50.05,0.03,75.08,0.04c1.31,0,2.67,0.22,3.82-0.7
	c1.88-8.33,0.52-16.77,0.76-25.15c0.02-14.32,0.05-28.64,0.07-42.96c0.05-0.36,0.1-0.73,0.15-1.09c2.65,0.22,5.15,1.65,7.91,1
	c5.31,0.06,10.63,0.12,15.95,0.19c0,0.3,0.01,0.6,0.02,0.9c0,4.98,0,9.96,0,14.94c0.39,1.78-1.2,4.35,2,5.02
	c-1.57,5.94,1.13,12.04-0.85,18.06c-0.88,2.67,1.15,4.25,4.02,4.22c13.26-0.12,26.52-0.24,39.78-0.35
	c5.58,2.93,14.88,2.34,19.63,5.8c4.62,3.36,3.34,6.95,3.35,13.17c0,0,0.03,0.05,0.03,0.05c-5.74,0.12-12.15-1.46-15.01,5.93
	C309.16,838.89,308.83,838.89,308.5,838.9z"/>
<path class="st75" d="M326.52,865.86c8.05-0.01,16.64-0.97,24.61-0.07c7.38,0.83,7.02,0.8,7.19,8.67c0.07,3.37,1.48,9.57-1.39,11.98
	c-3.12,2.62-14.09-0.33-18.41,1.16c-12.13,0.55-12.14,0.55-12.12-11.37C326.41,872.77,326.48,869.32,326.52,865.86z"/>
<path class="st76" d="M386.35,839.9c0.02,4.96,2.65,19.54-0.79,23.09c-3.23,3.33-20.85,0.82-25.1,0.81
	c0.01-7.95,0.02-15.89,0.03-23.84C369.11,839.94,377.73,839.92,386.35,839.9z"/>
<path class="st77" d="M351.47,812.92c2.33,1.94,5.9-1.02,7.95,2.01c0.01,7.08,2.32,15.54-3.92,18.92
	c-5.65,3.05-23.5-1.38-30.05-0.98c0-0.32,0-0.65,0-0.97c5.61,0,11.22,0,16.83,0c-5.12-1.93-2.02-5.33-1.82-8.03
	c5.12-4.65,4.33,3.59,7.84,3.45C353.28,827.13,351.46,816.05,351.47,812.92z"/>
<path class="st73" d="M309.48,838.88c2.86-7.39,9.27-5.82,15.01-5.93c0.78,4.8-1.22,6.58-6.03,6
	C315.51,838.59,312.48,838.88,309.48,838.88z"/>
<path class="st78" d="M360.49,839.96c-0.01,7.95-0.02,15.89-0.03,23.84c-2.09-3.69-0.76-7.68-0.97-11.53
	c-0.22-4.11-0.02-8.24,0-12.36C359.82,839.93,360.15,839.94,360.49,839.96z"/>
<path class="st79" d="M301.55,926.61c-0.02-4.44-2.38-15.5,1.54-18.61c3.43-2.72,16.93-0.26,21.36-0.25
	c0.01,4.1,2.44,15.91-1.44,18.68C319.2,929.15,306.28,926.63,301.55,926.61z"/>
<path class="st80" d="M29.86,821.92c-0.11-0.31-0.12-0.62-0.04-0.94c4.86,0,9.82,0.47,13.89-3.09c9.69-1.42,7.84,17.87,3.12,20.87
	c-2.08,1.32-13.73,1.15-15.76-1.55C28.52,833.83,31.82,826.14,29.86,821.92z"/>
<path class="st81" d="M43.71,817.88c-4.06,3.56-9.03,3.09-13.89,3.09c-0.02-4.35-0.05-8.71-0.07-13.06c6.66,0,13.33,0,19.99,0.01
	c0.19,3.61,4.85,4.41,5.05,8.01c-1.4,0.18-3.01-0.43-4.09,1.02C48.36,817.22,45.84,816.13,43.71,817.88z"/>
<path class="st82" d="M43.71,817.88c2.14-1.75,4.65-0.66,6.99-0.93c0.02,7.66,0.05,15.31,0.07,22.97l0.02-0.05
	c-7.02,0-14.04-0.01-21.06-0.01c-0.05-0.37-0.1-0.74-0.14-1.11c0.09-5.61,0.18-11.23,0.28-16.84c1.96,4.22-1.34,11.91,1.2,15.29
	c2.04,2.7,13.68,2.87,15.76,1.55C51.55,835.75,53.39,816.46,43.71,817.88z"/>
<path class="st83" d="M76.97,798.02c1.27-1.8,0.71-3.86,0.71-5.8c0.06-28.69,0.06-57.39,0.08-86.08c1.16-0.19,8.27,0.16,9.4,1.68
	c1.31,1.76-0.57,3.22,0.35,4.85c2.58,4.58,3.06,3.54,9.15,4.5c1.19,0.19,9.69,0.92,9.86,1.08c2.92,2.64-1.68,5.51,0.65,7.76
	c3.63,3.51,7.97-3.23,8.31-3.04c3.41,1.9-0.29,2.11,0.44,5.87c2.8,14.48,5.61,0.11,14.62,1.26c0,1.66,0,3.33,0,4.99
	c-5.47,1.14-10.88,6.75-15.98,3.71c-5.33-3.18-1.92-10.14-9.43-4.36c-1.02-4.03-3.78-11.2-7.21-4.26c-3.52,7.13,2.92,3.28,5.78,6.25
	c-6.13,1.04-3.14,4.77-6.6,6.76c-0.61,0.35-5.19-0.65-4.62-1.41c-4.46,5.96-0.75,3.83,3.43,8.03c1.98,1.99,8.42,15.25,11.82,9.64
	c3.49-5.77-7.29-3.87-0.47-9.42c1.44-1.17,4.25,3.16,6.26,1.45c2.38-2.02-0.95-4.39,0.28-5.97c3.07-3.93,10.99-3.32,13.76,0.26
	c4.17,5.42-6.38,2.14-4.7,0.99c-6.6,4.52,3.45,6.35,7.68,5.3c0,1.68,0,3.35,0,5.03c-1.31,1.07-8.45,10.22-8.58,11.18
	c-1.03,7.15,5.93-0.12,8.58,0.76c0.1,0.65,0.2,1.29,0.29,1.94c-0.02,3.36-0.03,6.72-0.05,10.08c-0.06,1.65-0.11,3.29-0.17,4.94
	c-1.5,1.53-0.88,3.46-0.89,5.21c-0.09,16.26-0.11,32.52-0.15,48.78c-5.64-0.03-21.75,2.97-26.32-1.56
	c-5.32-5.27,0.66-17.81-2.62-24.37c-7.6,0.02-15.19,0.04-22.79,0.06c-0.3-0.04-0.59-0.06-0.89-0.07
	C76.94,808.68,76.95,803.35,76.97,798.02z M91.82,726.91c1.52-1.11,4.65-0.3,4.78-3.64C96.82,717.94,78.46,722.16,91.82,726.91z"/>
<path class="st84" d="M50.77,839.92c-0.02-7.66-0.05-15.31-0.07-22.97c1.09-1.45,2.69-0.83,4.09-1.02
	c7.29-0.01,14.58-0.03,21.87-0.04c0.02,4.25,2.38,19.8-0.79,23.08C72.35,842.62,55.88,839.9,50.77,839.92z"/>
<path class="st85" d="M50.77,839.92c5.11-0.02,21.59,2.69,25.1-0.94c3.18-3.29,0.81-18.84,0.79-23.08c0.09-0.63,0.17-1.26,0.26-1.88
	c0.3,0.01,0.6,0.03,0.9,0.07c-0.03,0.31-0.01,0.62,0.05,0.93c-0.02,8.28-0.05,16.56-0.07,24.85c-1.5,1.5-3.42,0.92-5.18,0.94
	c-6.93,0.1-13.86,0.11-20.79,0.16c-0.3-0.02-0.59-0.02-0.89-0.01c-0.05-0.36-0.1-0.72-0.15-1.09L50.77,839.92z"/>
<path class="st86" d="M3.84,839.94c6.99,0.01,13.99,0.02,20.98,0.03c0,8.24,0,16.48,0.01,24.72c-0.37,0.07-0.74,0.14-1.11,0.21
	c-6.62-0.08-13.24-0.16-19.86-0.24C3.85,856.42,3.84,848.18,3.84,839.94z"/>
<path class="st87" d="M130.53,730.09c-9.01-1.15-11.82,13.22-14.62-1.26c-0.73-3.76,2.97-3.97-0.44-5.87
	c-0.34-0.19-4.68,6.55-8.31,3.04c-2.33-2.25,2.27-5.12-0.65-7.76c-0.17-0.15-8.67-0.89-9.86-1.08c-6.09-0.96-6.58,0.08-9.15-4.5
	c-0.92-1.63,0.96-3.09-0.35-4.85c-1.13-1.52-8.24-1.88-9.4-1.68c-0.04-8.99-0.08-17.97-0.12-26.96c0.07-7.98,0.14-15.97,0.21-23.95
	c1.12-1.1,2.3-2.14,3.53-3.1c1.82-0.8,3.37-0.34,4.65,1.37c3.42-1.41,5.99-5.13,8.59-8.02c3.14-3.5,8.16-17.73,10.85-17.42
	c6.36,0.71,4.42,13.1,2.73,16.72c-1.6,3.42-5.62,2.25-4.98,8.06c0.58,5.32,2.66,4.88,7.28,6.98c0.21-4.58-2.5-7.75-4.26-11.66
	c4.4,1.75,8.35,0.41,10.58-4.18c2.44-5.01,0.38-5.85,4.28-9.1c1.99-1.65,4.32,1.17,6.23-2.75c1.18-2.42-1.74-3.29-1.72-4.79
	c0.02-3.23,2.22-3.56,1.49-7.31c-0.85-4.33-4.88-4.03-2.8-9.32c2.29,0.94,1.6,5.51,5.38,3.59c0.29,0.02,0.58,0.04,0.86,0.06
	c0.08,10.3,0.15,20.59,0.23,30.89c-0.05,2.15-0.13,4.3-0.13,6.44C130.59,677.83,130.56,703.96,130.53,730.09z"/>
<path class="st88" d="M77.85,655.23c-0.07,7.98-0.14,15.97-0.21,23.95c-0.27,0.01-0.53,0.01-0.8,0.02
	c-0.04-23.81-0.07-47.61-0.12-71.42c0-2.15-0.09-4.3-0.13-6.44c0.01-3.93,0.01-7.85,0.02-11.78c0,0,0.22-0.44,0.22-0.44
	c0.25,0.14,0.52,0.25,0.8,0.32C77.71,611.38,77.78,633.3,77.85,655.23z"/>
<path class="st89" d="M51.79,885.72c-0.06-6.92-0.12-13.84-0.18-20.77c8.39-0.01,16.79-0.01,25.18-0.02
	c-0.04,6.93-0.08,13.87-0.12,20.8l-0.03,0.01C68.36,885.73,60.08,885.72,51.79,885.72z"/>
<path class="st90" d="M50.79,839.87c0.05,0.36,0.1,0.72,0.15,1.09c-0.02,7.93-0.03,15.85-0.05,23.78
	c-7.1-0.01-14.19-0.02-21.29-0.04c0.05-8.28,0.1-16.56,0.15-24.83c0,0-0.03,0-0.03,0C36.75,839.86,43.77,839.87,50.79,839.87z"/>
<path class="st91" d="M29.75,839.86c-0.05,8.28-0.1,16.56-0.15,24.83c-1.6,0-3.19,0-4.78-0.01c0-8.24,0-16.48,0-24.72
	C26.46,839.93,28.11,839.9,29.75,839.86z"/>
<path class="st92" d="M50.89,864.73c0.02-7.93,0.03-15.85,0.05-23.78c0.3-0.02,0.59-0.01,0.89,0.01
	c-0.03,6.32,0.01,12.64-0.12,18.96c-0.05,2.58,0.5,3.99,3.54,3.97c23.31-0.09,46.61-0.1,69.92-0.02c3.05,0.01,3.59-1.39,3.54-3.97
	c-0.13-6.32-0.08-12.64-0.11-18.96c0.32-0.03,0.64-0.05,0.96-0.08c0.1,6.96,0.19,13.93,0.29,20.89c-0.11,0.92-0.23,1.84-0.34,2.76
	c-1.98,0.1-3.96,0.29-5.95,0.3c-15.59,0.06-31.18,0.08-46.77,0.11c-8.39,0.01-16.79,0.01-25.18,0.02
	C51.38,864.85,51.14,864.78,50.89,864.73z"/>
<path class="st93" d="M51.79,885.72c8.28,0.01,16.57,0.01,24.86,0.02c0.02,0.34,0.03,0.68,0.05,1.02c-4.81,0-18.59-2.56-22.4,0.3
	c-3.61,2.71-1.57,12.73-1.57,16.66l-0.47,0.01c0,0-0.47-0.05-0.47-0.05C51.79,897.69,51.79,891.7,51.79,885.72z"/>
<path class="st94" d="M76.69,886.76c-0.01-0.34-0.03-0.68-0.05-1.02c0,0,0.03-0.01,0.03-0.01c0.34,0.01,0.69,0.02,1.03,0.04
	c14.55,0,29.11-0.16,43.65-0.02c13.98,0.13,11.3,5.48,11.33,17.96c-1.02,0.02-2.03,0.04-3.05,0.06
	c-17.64-0.01-35.28-0.02-52.91-0.03C76.71,898.08,76.7,892.42,76.69,886.76z"/>
<path class="st95" d="M76.69,886.76c0.01,5.66,0.02,11.32,0.03,16.98c-8-0.01-16-0.01-24-0.02c0-3.92-2.04-13.95,1.57-16.66
	C58.1,884.2,71.88,886.77,76.69,886.76z"/>
<path class="st96" d="M76.61,589.57c-5.29-0.01-10.59-0.03-15.88-0.04c-1.33,0-2.66,0-4,0c-1.67-0.04-3.34-0.09-5.02-0.13
	c0,0,0.12-0.23,0.12-0.23c-0.03-0.32-0.03-0.63,0-0.94c8.29,0.08,16.58,0.16,24.87,0.25c0.02,0.22,0.06,0.44,0.13,0.66L76.61,589.57
	z"/>
<path class="st97" d="M76.71,588.47c-8.29-0.08-16.58-0.16-24.87-0.25c0.02-18.26,0.04-36.53,0.07-54.79
	c7.92,0.01,15.85,0.02,23.77,0.04c0.72,0.39,1.43,0.78,2.15,1.17c-0.02,8.92-0.04,17.85-0.06,26.77c-1.57,1.25-1.02,3.01-1.03,4.59
	c-0.05,7.39-0.02,14.78-0.02,22.18L76.71,588.47z"/>
<path class="st98" d="M75.68,533.47c-7.92-0.01-15.85-0.02-23.77-0.04c-0.03-9.94-0.06-19.88-0.09-29.82
	c7.99-0.05,15.98-0.1,23.98-0.16c0,0,0.01,0.04,0.01,0.04C75.76,513.49,75.72,523.48,75.68,533.47z"/>
<path class="st30" d="M75.68,533.47c0.04-9.99,0.08-19.99,0.13-29.98c2.13,6.67-2.67,22.36,1,27.38c3.86,5.28,17.38,2.56,23.86,2.53
	c0.28,0.12,0.57,0.2,0.88,0.23c-0.01,0.32-0.07,0.63-0.16,0.94c-0.27,0.02-0.53,0.05-0.8,0.09c-7.59-0.01-15.17-0.02-22.76-0.03
	C77.11,534.25,76.39,533.86,75.68,533.47z"/>
<path class="st99" d="M100.61,429.69c0-29.56,0-59.12,0-88.69c0,0,0.12-0.16,0.12-0.16c0.31,0.02,0.62,0.04,0.93,0.05
	c0.01,0.33,0.02,0.66,0.04,0.98c0.01,20.62,0.02,41.25,0.04,61.87c0,1.33,0,2.66,0,4c-0.03,8.99-0.07,17.98-0.1,26.97
	c-0.32-0.01-0.65-0.03-0.97-0.07C100.65,432.99,100.63,431.34,100.61,429.69z"/>
<path class="st100" d="M101.74,403.74c-0.01-20.62-0.03-41.25-0.04-61.87c3.46,1.26,7.08,3.36,9.88,4.33
	c0.76,0.26,1.52,2.56,2.65,3.06c2.21,0.98,2.37-3.46,4.28-2.83c5.66,1.86,2.27,13.69,12.07,12.41c0.89,3.66-2.38,7.32,0,10.98
	c-6.73,3.22-5.51,6.87-8.58,11.75c-1.95,3.1-3.53,2.3-4.61,6.69c-0.47,1.9,2.26,4.03,1.79,5.76c-0.92,3.37-4.96,4.03-6.5,6.95
	c-1.96,3.72-0.12,4.35-0.22,8.16c-0.18,6.97-2.57,14.84-9.18,19.04c3.44,7.25,7.54,10.26,13.66,13.66c3.47,1.92,7.77,1.22,9.11,7.39
	c2.3,10.61-6.16,24.72,4.52,32.39c0.03,26.23,0.06,52.46,0.09,78.68c-5.29,0.05-23.61,2.92-27.72-0.15
	c-4.37-3.26-1.5-20.15-1.56-25.55c0.09-0.31,0.14-0.62,0.16-0.94c0.03-32.98,0.07-65.95,0.1-98.93c0.03-8.99,0.07-17.98,0.1-26.97
	c1.67-0.02,3.63-0.07,3.67-2.2C105.47,402.92,103.13,404.06,101.74,403.74z M115.68,372.94c-0.6,0.29-1.67,0.61-1.62,1.77
	C114.26,380.45,122.75,373,115.68,372.94z M111.98,389.05c-1.16,0.06-2.04,0.59-1.96,1.77
	C110.28,394.73,117.31,392.01,111.98,389.05z"/>
<path class="st101" d="M130.58,369.81c-2.38-3.66,0.89-7.32,0-10.98c0.05-5.66,0.09-11.32,0.14-16.98c0.33-0.04,0.66-0.1,0.98-0.16
	c0,0,0.05,0.11,0.05,0.11c-0.02,29.96-0.04,59.92-0.07,89.88c-0.02,0.67-0.03,1.33-0.05,2c-0.3,0-0.59,0-0.89,0
	C130.69,412.39,130.63,391.1,130.58,369.81z"/>
<path class="st102" d="M101.66,340.89c-0.31-0.01-0.62-0.02-0.93-0.05c-0.02-0.66-0.04-1.31-0.07-1.97
	c0-11.26-0.01-22.53-0.01-33.79c0.34-0.06,0.67-0.12,1.01-0.18C101.66,316.9,101.66,328.89,101.66,340.89z"/>
<path class="st103" d="M131.69,327.9c0-6.99,0-13.99-0.01-20.98c2.99,0.01,5.97,0.02,8.96,0.04c3.96,2.82,7.93-0.83,11.89,0.02
	c0.02,3.98,0.03,7.96,0.05,11.95c-4.22,0.87-7.94,2.81-12.07,5.34c0.79,0.34,11.84,4.81,4.8,6.27
	C141.63,331.28,136.87,326.96,131.69,327.9z"/>
<path class="st104" d="M152.53,306.97c-3.96-0.85-7.93,2.8-11.89-0.02c2.33-2.77,3.53-5.9,2.99-9.57
	c-0.17-1.2-10.65-12.09-11.96-12.4c0.02-0.7,0.05-1.39,0.07-2.09c4.67,0.01,17.72-2.51,20.63,1.82c2.65,3.95,0.32,17.65,0.34,22.19
	L152.53,306.97z"/>
<path class="st105" d="M131.69,327.9c5.18-0.93,9.94,3.39,13.63,2.62c7.04-1.45-4.01-5.92-4.8-6.27c4.13-2.53,7.84-4.47,12.07-5.34
	c0.02,5.08,0.04,10.16,0.05,15.24c0.01,6.78,0,6.78-6.99,6.7c-1.86-3.64-10.04-5.98-13.96-3.98
	C131.69,333.88,131.69,330.89,131.69,327.9z"/>
<path class="st104" d="M131.68,284.98c1.31,0.31,11.78,11.2,11.96,12.4c0.53,3.67-0.67,6.79-2.99,9.57
	c-2.99-0.01-5.97-0.02-8.96-0.04C131.68,299.6,131.68,292.29,131.68,284.98z"/>
<path class="st106" d="M145.64,340.86c6.99,0.08,7,0.08,6.99-6.7c0-5.08-0.03-10.16-0.05-15.24c-0.02-3.98-0.03-7.96-0.05-11.95
	c0,0,0.18-0.06,0.18-0.06c0.28,0.04,0.55,0.07,0.83,0.1c0.06,11.26,0.12,22.52,0.18,33.78c-0.05,0.31-0.08,0.62-0.08,0.93
	c-6.33,0.04-12.67,0.08-19,0.12c-0.97-0.01-1.93-0.02-2.9-0.03c0,0-0.05-0.11-0.05-0.11c0.02-0.25,0.04-0.5,0.06-0.75
	C136.39,340.92,141.01,340.89,145.64,340.86z"/>
<path class="st103" d="M145.64,340.86c-4.63,0.03-9.26,0.06-13.89,0.09c-0.02-1.36-0.05-2.71-0.07-4.07
	C135.61,334.88,143.78,337.22,145.64,340.86z"/>
<path class="st107" d="M153.54,307.01c-0.28-0.03-0.55-0.06-0.83-0.1c-0.02-4.54,2.31-18.24-0.34-22.19
	c-2.91-4.33-15.96-1.81-20.63-1.82c-0.07-0.29-0.17-0.56-0.3-0.83c0,0,0.45-0.17,0.45-0.17c6.91,0.01,13.83,0.01,20.74,0.02
	c1.17,1.01,0.98,2.39,0.98,3.7C153.6,292.74,153.57,299.87,153.54,307.01z"/>
<path class="st108" d="M152.64,281.91c-6.91-0.01-13.83-0.01-20.74-0.02c-0.04-9.28-0.09-18.57-0.14-27.85
	c4.37-0.46,6.31-0.1,8.58-3.36c0.63-0.9-3.64-3.18-2.93-4.57c0.2-0.38,6.37-3.81,7.54-5.06c-0.61,0.65,4.3-7.72,4.05-5.81
	c0.33-2.48-2.32-3.51-2.03-6.45c0.29-2.89,4.53-6.93,6.57-8.69c0.06,9.65,0.12,19.29,0.17,28.94c0,1,0,2,0,3
	c-0.29,8.77-0.29,8.77,8.42,9.07c0.16,0.01,0.32,0.03,0.49,0.05c-2.21,4.89-6.89,3.85-9.39,9.45c4.26,1.11,4.78-0.5,3.88,3.14
	c-0.01,0.05-3.42-0.71-3.9,0.35C152.2,276.37,152.65,279.52,152.64,281.91z"/>
<path class="st109" d="M130.74,173.47c-0.39-0.1-0.78-0.21-1.17-0.31c0.07-25.27,0.14-50.53,0.21-75.8c3.14,0.5,5.83,0,7.2-3.67
	c-1.06,8.9,6.72,0.14,8.41,6.38c0.46,1.7-2.9,4.04-1.99,6.61c0.59,1.68,8.52,4.98,10.23,5.65c-0.01,20.34-0.02,40.68-0.03,61.02
	C145.98,173.39,138.36,173.43,130.74,173.47z"/>
<path class="st110" d="M153.55,218.12c-7.25-1.93-4.35,3.56-8.57,5.6c-5.62,2.73-6.11-3.2-10.6,3.8
	c-0.52-7.23,1.47-13.86-2.67-19.37c-0.01-6.18-3.15-26.12,0.04-30.78c3.81-5.57,14.91-3.15,21.75-3.13
	c0.01,6.64,0.02,13.28,0.03,19.92c-0.32,0.06-0.77,0-0.95,0.19c-1.67,1.73-0.91,13.87,0.95,15.77
	C153.92,212.79,150.83,215.46,153.55,218.12z"/>
<path class="st111" d="M153.54,194.17c-0.01-6.64-0.02-13.28-0.03-19.92c0.05-0.3,0.08-0.6,0.1-0.9
	c0.01-20.34,0.02-40.68,0.03-61.02c0.44-2.67-0.96-5.58,1.01-8.06c0,0-0.01,0.11-0.01,0.11c0,22.94,0,45.88,0,68.81
	c0,23.55,0.01,47.1-0.03,70.65c0,1.75,0.62,3.68-0.88,5.21c-0.06-9.65-0.12-19.29-0.17-28.94c0-0.67,0-1.33,0.01-2
	c-2.73-2.66,0.37-5.33-0.02-7.99C153.54,204.81,153.54,199.49,153.54,194.17z"/>
<path class="st112" d="M128.61,173.1c-8.28-0.01-16.56-0.02-24.84-0.03c-0.04-23.23-0.07-46.45-0.1-69.68
	c0.21-2.15,13.92-1.04,17.23-2.22c-3.29,5.65-4.33,4.01-1.25,9.29c1.94,3.31,4.91,6.07,8.98,4.87
	C128.62,134.58,128.62,153.84,128.61,173.1z"/>
<path class="st113" d="M128.61,173.1c0.01-19.26,0.01-38.52,0.02-57.77c0-3.32,0-6.65,0-9.97c0-2,0-4,0-6
	c-0.01-6.96-0.02-13.92-0.03-20.88l0.5-0.03l0.5,0.02c0.07,1.64,0.13,3.28,0.2,4.92c0,2.33-0.01,4.66-0.01,6.98
	c0,2.33,0,4.66,0,6.99c-0.07,25.27-0.14,50.53-0.22,75.8c0,0-0.48,0.01-0.48,0.01L128.61,173.1z"/>
<path class="st114" d="M103.67,103.38c0.03,23.23,0.07,46.45,0.1,69.68c-0.28,0.06-0.56,0.09-0.85,0.09
	c-0.14-9.99-0.28-19.97-0.42-29.96c0.01-4.31,0.01-8.62,0.02-12.94c0.09-8.98,0.19-17.97,0.28-26.95
	C103.09,103.33,103.38,103.36,103.67,103.38z"/>
<path class="st115" d="M76.8,75.45c0.23-0.05,0.46-0.1,0.69-0.17c0,0,0.41,0.26,0.41,0.26c-0.01,6.94-0.02,13.88-0.03,20.81
	c0,1.02-0.01,2.04-0.01,3.07c0,0-0.33-0.06-0.33-0.06c-0.21-0.01-0.43-0.01-0.64-0.01C76.85,91.39,76.83,83.42,76.8,75.45z"/>
<path class="st58" d="M64.87,83.28c-2.37,1.83-9.04,1.09-5.58-1.57C61.48,80.02,62.73,82.2,64.87,83.28z"/>
<path class="st116" d="M102.52,130.26c-0.01,4.31-0.01,8.62-0.02,12.94c-8.23-0.01-16.46-0.02-24.69-0.03
	c-0.1-14.6-0.2-29.2-0.29-43.8c0,0,0.33,0.06,0.33,0.06c7.51,4.25,15.7,2.74,23.71,2.75c0.04,4.14-0.07,8.28,0.17,12.41
	C102.04,119.81,100.68,125.12,102.52,130.26z"/>
<path class="st117" d="M234.55,295.97c0.16-5.46,2.38-7.73,3.45-12.45c0.39-1.74-0.16-6.77,0.35-7.77c1.81-3.51,8.43-1.19,7.16-8.19
	c-0.1-0.56-10.35-7.72-0.54-8.02c6.89-0.21,4.57,6.89,3.58,10.47c-0.05,0.19-3.14,10.08-3.1,10.27c1.07,5.66,3.43,0.27,4.97-0.24
	c3.25-1.08,3.28-5.11,8.21-3.62c4,1.2,4.17,4.89,4.22,8.54c0.04,2.92-1.55,6.61-3.27,8.33c-0.87,0.87-3.3-4.6-5.17-0.59
	c-2.78,5.95,15.55,6,16.1,11.13c-3.56,0.88-7.49-1.3-10.84,1.33c-0.08,0.25-0.07,0.49,0.03,0.73c-0.14,11.98-0.28,23.95-0.42,35.93
	c-7.05,0-14.09-0.06-21.14,0.05c-1.85,0.03-3.98-0.82-5.51,1.07c-0.03,11.28-0.07,22.57-0.1,33.85c-7.57-0.07-15.14-0.13-22.71-0.2
	c-0.08-6.41-0.03-12.84-0.29-19.24c-0.22-5.54,0.84-11.13-0.69-16.61c-0.11-4.22-0.22-8.45-0.33-12.67
	c4.13-6.25,20.77,2.98,25.46-1.58C237.3,323.26,234.55,300.96,234.55,295.97z"/>
<path class="st118" d="M259.68,342.95c0.02,17.64,0.05,35.27,0.07,52.91c-0.15-0.07-0.31-0.13-0.46-0.2
	c-1.24-1.42-0.73-3.15-0.74-4.75c-0.04-16-0.02-31.99-0.02-47.99c0.22-0.12,0.46-0.2,0.7-0.24
	C259.39,342.77,259.54,342.86,259.68,342.95z"/>
<path class="st119" d="M259.68,305.16c3.34-2.63,7.28-0.45,10.84-1.33c11.96,0.48,11.88,0.48,12.03-11.2
	c0.04-2.89-1.01-5.96,0.84-8.69c0.03,4.67,2.66,17.38-1.48,20.73C278.38,307.5,264.26,305.11,259.68,305.16z"/>
<path class="st120" d="M259.29,341.82c0.14-11.98,0.28-23.95,0.42-35.93c1.76,6.11,0.73,12.36,0.72,18.53
	c0,6.17,1.1,12.42-0.75,18.53c-0.15-0.09-0.29-0.18-0.44-0.27C259.33,342.4,259.35,342.11,259.29,341.82z"/>
<path class="st121" d="M259.61,433.63c0.32,0.03,0.64,0.03,0.96,0c4.16,0.03,8.32,0.08,12.47,0.08c11.16,0.01,11.16,0,11.62,10.9
	c0,2.68,0.01,5.36,0.01,8.03c0,1,0,2,0,2.99c-0.01,5.32-0.01,10.64-0.02,15.96c0,2.99,0,5.99,0,8.98
	c-0.03,4.94,2.41,19.43-1.03,22.96c-3.25,3.34-19.65,1.04-23.97,1.07c-0.02-0.33-0.03-0.66-0.05-1c5.7-0.03,20.74,2.72,23.77-2.75
	c3.26-5.88,0.12-25.02,0.12-31.77c0-5.84,3.58-28.07-0.33-32.99c-2.97-3.73-19.27-1.42-23.6-1.43
	C259.57,434.33,259.59,433.98,259.61,433.63z"/>
<path class="st122" d="M259.6,503.62c0.02,0.33,0.03,0.66,0.05,1c-0.04,7.26-0.05,14.52-0.14,21.78c-0.02,1.75,0.57,3.67-0.97,5.16
	c-0.03-0.18-0.06-0.36-0.1-0.55c0.01-9.14,0.03-18.29,0.04-27.43c0.03-0.32,0.03-0.64,0.02-0.96
	C258.86,502.96,259.23,503.29,259.6,503.62z"/>
<path class="st123" d="M232.42,582.38c-0.27,0.01-0.54,0.01-0.8,0.02c-0.05-0.33-0.09-0.66-0.12-0.99
	c0.04-6.63,0.07-13.26,0.11-19.89c0.24-0.07,0.48-0.16,0.71-0.26c0,0,0.4,0.27,0.4,0.27C232.62,568.48,232.52,575.43,232.42,582.38z
	"/>
<path class="st124" d="M234.55,295.97c0,4.99,2.75,27.29-0.57,30.51c-4.68,4.56-21.33-4.66-25.46,1.58
	c-1.99-0.14-3.97-0.27-5.96-0.41c4.11-0.53,5.26-2.72,5.13-6.9c-0.36-11.57-0.13-23.15-0.13-34.73c8.32-0.05,16.65-0.1,24.97-0.15
	l0.47,0.02l0.47-0.01C234.08,289.21,232.52,292.78,234.55,295.97z"/>
<path class="st125" d="M258.58,137.26c0.28,0.01,0.56,0.02,0.83,0.04c0.07,6.65,0.15,13.3,0.22,19.94
	c-0.04,3.85,1.69,12.95-1.73,15.67c-3.92,3.11-19.16,0.38-24.21,0.39c-0.38-0.03-0.76-0.06-1.15-0.09c0-21.18-0.09-42.37,0.08-63.55
	c0.03-3.98-0.88-5.64-5.18-5.4c-6.28,0.35-12.59,0.08-18.88,0.08c1.3-1.51,3.06-0.95,4.65-0.96c6.44-0.06,12.89-0.03,19.33-0.04
	c4.94,4.52,1,29.81,1,36.46c0,6.77-3.57,26.29,0.42,31.05c1.95,2.32,20.43,2.93,23.06,1.07
	C262.13,168.31,258.57,143.42,258.58,137.26z"/>
<path class="st126" d="M232.56,173.21c0.38,0.03,0.76,0.06,1.15,0.09c-0.05,35.04-0.11,70.07-0.16,105.11
	c0,2.49-0.04,4.98-0.06,7.47c0,0-0.47,0.01-0.47,0.01s-0.47-0.02-0.47-0.01c0-0.32-0.01-0.64-0.02-0.97
	c-0.02-11.95-0.04-23.9-0.05-35.85C232.49,223.77,232.52,198.49,232.56,173.21L232.56,173.21z"/>
<path class="st117" d="M268.15,264.01c0.32,5.15-6.49,0.03-7.28-2.17c-1.37-3.8,5.5-11.97,5.6-7.72
	C266.55,257.6,266.31,261.12,268.15,264.01z"/>
<path class="st52" d="M167.62,26.47c-4.33,0-8.65,0-12.98,0c0.27-3.91,2.5-0.77,3.98-3.26c0.61-1.04-4.67-6.5,0.75-5.65
	C160.02,17.66,166.11,25.12,167.62,26.47z"/>
<path class="st52" d="M149.64,26.46c-2.66,0-5.32,0-7.98,0c0.74-1.49,4.46-5.18,6.34-4.49C151.3,23.18,148.68,23.78,149.64,26.46z"
	/>
<path class="st52" d="M155.86,13.94c0-2.21,3.72-8.47,4.22-3.99C160.38,12.68,158.25,13.34,155.86,13.94z"/>
<path class="st52" d="M183.6,26.47c-1.66,0-3.32,0-4.99,0c0.02-1.45-0.1-3.28,1.68-3.51C182.62,22.65,182.63,25.14,183.6,26.47z"/>
<path class="st127" d="M232.56,103.34c-6.44,0-12.89-0.02-19.33,0.04c-1.58,0.01-3.35-0.55-4.65,0.96c0,0,0,0,0,0
	c-0.33,0-0.65,0.01-0.98,0.01c-4.71-4.92-8.16,4.67-12.54,0.72c-1.65,3.14,2.66,5.42-3.46,4.75c-2.84-0.31-0.94-5.64-5.7-4.06
	c-7.66,2.55-5.11,19.91-1.67,24.44c1.49,1.96,8.47,10.75,9.72,10.69c6.29-0.31-1.73-11.21,5.6-10.31c2.05,0.25,3.14,3.53,3.67,5.33
	c-0.2-0.69,1.45,10.94,2.05,8.59c-2.49,9.73-10.55,0.5-14.72,1.98c-8.26,2.93-1.03,6.46,1.98,8.91c1,0.82,3.95,0.21,4.37,0.65
	c2.04,2.15,2.08,7.4-0.77,8.81c-1.38-4.83-9.26-7.17-8.8-1.01c0.22,2.91,11.19,6.62,13.26,9.24c-6.99,0.03-13.99,0.07-20.98,0.1
	c0.01-21.36-0.05-42.72,0.1-64.08c0.03-3.59-0.83-5.05-4.69-4.88c-6.78,0.3-13.59,0.13-20.38,0.16c0,0,0.01-0.11,0.01-0.11
	c0.39-5.54-5.43-5.27-5.68-9.36c-0.25-3.98,6.07-8.9,9.67-8.53c0.33,0.33,0.67,0.67,1,1c-1.37-0.41-2.2,0.06-2.5,1.41
	c0.09,0.62,15.24,0.44,17.19,1.5c7.97,4.33-0.11,6.87-4.7,11.06c-0.71,0.31-5.15-1.14-5.19,0.53c-0.06,2.6,4.67,1.46,6.19,1.45
	c2.62-3.08,8.37-1.95,9.7-5.56c1.96-5.3,7.01-5.57,10.34-6.34c5.04-1.16,4.81-2.62,2.94-6.05c-1.18-7-6.65-1.64-4,0
	c1.31,3.85-5.67,5.48-7.91,3.04c-5.12-5.59,6.08-9.49,8.16-13.34c-0.44,0.81,3.74-12.84,4.57-9.79c-0.94-3.43-5.05-2.42-8.2-0.96
	c-1.91,0.89-0.55,3.25-2.24,4.53c-0.72,0.55-3.17,0.26-4.51,0.96c-5.86,3.08-5.04,1.87-12.76,0.15c-4.58-1.02-11.77-0.41-15.91-3.76
	c-1.35-1.09-7.65-9.28-6.78-10.78c-1.39,2.4,9.72-1.15,9.25-1.39c3.29,1.66-2.46,5.68,0.64,7.7c1.56-2.52,2.99-7,1.75-10
	c-0.85-2.05-4.78-2.06-4.79-4.04c-0.01-2.76,7.11-4.62,4.25-8.28c-2.93-3.75-4.92,2.6-5.37,2.43c-3.71-1.38-0.08-7.97-5.74-8.92
	c1.82,0.31-7.54,4.77-7.06,4.08c-3.18,4.64,5.92,12.19,3.29,15.24c-2.19,2.55-5.66,0.41-8.37-1.13c-5.56-3.15-9.19-7.21-9.47-17.16
	c-0.73-2.01-3.54-3.53-3.39-0.68c0.33,6.33,15.57,0.67,3.39,0.68c-3.11,2.68-5.18,1.73-5.47-0.59c-0.31-2.53-2.1-3.88-3.22-5.75
	c18.64-0.08,37.27-0.16,55.91-0.24c20.98,0.05,41.97,0.1,62.95,0.14c0.02,0.3,0.06,0.6,0.11,0.9c-0.06,7.29-0.11,14.58-0.17,21.87
	c-0.01,1.17-0.03,2.34,1.04,3.16C233.15,70.08,234.51,86.74,232.56,103.34z M180.58,169.65c2.7-1.02,4.83-2.06,4.56-4.88
	c-0.12-1.22-1.64-1.84-2.8-1.38C179.16,164.63,181.16,167.26,180.58,169.65z M180.89,150.18c0.4,1.93-1.4,4.1,0.73,5.56
	C183.25,156.84,184.51,151.72,180.89,150.18z"/>
<path class="st128" d="M113.71,27.62c1.12,1.88,2.91,3.23,3.22,5.75c0.29,2.32,2.36,3.27,4.74,3.11c1.01,7.43,4.64,11.49,10.2,14.64
	c2.71,1.54,6.18,3.68,8.37,1.13c2.63-3.05-6.48-10.6-3.29-15.24c-0.47,0.69,8.89-3.77,7.06-4.08c5.66,0.95,2.04,7.54,5.74,8.92
	c0.45,0.17,2.44-6.18,5.37-2.43c2.86,3.65-4.27,5.52-4.25,8.28c0.01,1.98,3.95,1.99,4.79,4.04c1.24,3-0.19,7.48-1.75,10
	c-3.1-2.02,2.65-6.04-0.64-7.7c0.48,0.24-10.64,3.79-9.25,1.39c-0.87,1.5,5.43,9.69,6.78,10.78c4.15,3.35,11.34,2.73,15.91,3.76
	c7.72,1.72,6.9,2.93,12.76-0.15c1.34-0.7,3.79-0.42,4.51-0.96c1.69-1.28,0.33-3.64,2.24-4.53c3.15-1.46,7.27-2.47,8.2,0.96
	c-0.83-3.05-5.01,10.6-4.57,9.79c-2.08,3.85-13.28,7.75-8.16,13.34c2.24,2.45,9.22,0.82,7.91-3.04c1.33,0,2.66,0,4,0
	c1.87,3.43,2.1,4.89-2.94,6.05c-3.33,0.77-8.38,1.04-10.34,6.34c-1.33,3.6-7.08,2.48-9.7,5.56c-0.02-0.82-0.2-1.55-1-1.98
	c4.58-4.19,12.66-6.74,4.7-11.06c-1.95-1.06-17.1-0.88-17.19-1.5c0.3-1.35,1.13-1.82,2.5-1.41c5.1,0.59,5.19-4.96,9.48-6.74
	c-5.45-0.17-8.12,1.49-10.47,5.74c-3.6-0.37-9.92,4.55-9.67,8.53c0.25,4.08,6.07,3.82,5.68,9.36c-1.96,2.48-0.57,5.38-1.01,8.06
	c-1.71-0.67-9.64-3.97-10.23-5.65c-0.9-2.57,2.46-4.91,1.99-6.61c-1.69-6.24-9.47,2.52-8.41-6.38c-1.37,3.67-4.06,4.16-7.2,3.67
	c0-2.33,0-4.66,0-6.99c2.44-0.64,5.17-1.17,4.72-4.58c-0.37-2.77-2.75-2.34-4.71-2.4c-0.07-1.64-0.13-3.28-0.2-4.92
	c-1.05-1.53-2.65-1.04-4.06-1.05c-7.56-0.02-15.13,0.02-22.69,0.04c-0.06-0.66-0.12-1.32-0.18-1.98
	c-0.05-7.44,0.67-14.95-2.04-22.14c0.06-8.59,0.13-17.17,0.19-25.76C105.1,27.59,109.41,27.61,113.71,27.62z M180.22,77
	c-0.01-1.17-0.86-1.72-1.25-1.41c-4.61,3.73-5.93-2.35-9.53-1.15c-0.41,0.14-1.77,8.97-1.75,9.07
	C169.02,92.65,175.09,81.35,180.22,77z M150.4,78.03c-0.68-0.84-1.23-2.42-3.06-2.24C143.18,76.22,151.18,83.32,150.4,78.03z"/>
<path class="st129" d="M100.61,53.34c2.71,7.19,2,14.7,2.04,22.14c-0.32-0.07-0.63-0.08-0.95-0.04l0.04-0.11
	c-1.34-1.41-3.08-0.89-4.67-0.9c-6.42-0.03-12.83,0.01-19.25,0.03c-0.03-4.64-2.7-17.48,1.52-20.78
	C82.84,50.94,96.15,53.35,100.61,53.34z"/>
<path class="st130" d="M77.82,74.45c6.42-0.02,12.83-0.07,19.25-0.03c1.59,0.01,3.33-0.5,4.67,0.9c-7.95,0.07-15.89,0.15-23.84,0.22
	c0,0-0.41-0.26-0.41-0.26C77.63,75.02,77.74,74.74,77.82,74.45z"/>
<path class="st131" d="M231.5,581.41c0.03,0.33,0.07,0.66,0.12,0.99c-0.03,50.9-0.06,101.79-0.1,152.69
	c-4.08,1.19-8.17,2.38-12.86,3.76c3.42,2.09,6.15,2.25,3.75,6.13c-3.73,6.05-2.54-1.33-6.55,0.51c-2.27,1.04,1.22,13.87,0.11,15.55
	c-3.29,4.98-8.21,1.72-10.88-0.21c-1.07-0.77,1.61-7.38-3.48-4.39c-2.71,1.59-1.5,3.77-1.44,6.31c0.08,3.82,6.48,10.28,5.8,11.61
	c-5.41-0.6-7.7,0.15-12.46,2.06c-7.4,2.98-6.68,0.56-14.85,0.58c-0.53-3.98,0.84-8.11-0.88-12c-0.09-22.59-0.19-45.18-0.28-67.76
	c0.04-33.39,0.08-66.77,0.11-100.15c0-1-0.02-2-0.85-2.75c0.02-1.36,0.04-2.72,0.06-4.08c1.22-0.57,1.75-1.59,1.9-2.87
	c2.47-0.91,5.04-3.72,7.12,1.24c0.51-3.41-2.93-7.84-7.12-10.21c-0.02-5.63-0.04-11.25-0.06-16.88c2.31,0,4.63,0,6.94,0.01
	c-0.15,1.82-5.62,7.3-3.95,8.79c-0.29-0.26,9.81,0.99,10.65,1.16c2.04,0.41,6.1,1.49,8.16,2.11c3.34,1.01,2.87,3.83,6.11,2.29
	c2.84-1.35-0.51-6.14,2.59-6.17c6.59-0.08-2.06,9.65-2.1,9.72c-0.51,0.84-7.62,15.62-7.74,14.96c1.01,5.27,8.36,0.66,10.81-1.35
	c3.11-2.55,4.04-10.01,4.84,0.49c4.36,1.28,3.41,4.52,2.27,7.89C228.15,596.37,222.31,587.4,231.5,581.41z M196.26,587.52
	c1.19-3.09,2.34-5.38,2.92-7.81c0.73-3.04-3.07-2-3.99-1.39C195.87,577.86,196.12,587.15,196.26,587.52z M195.09,767.12
	c-1.72,0.33-2.99,1.32-3.25,3.1C191.1,775.28,202.69,768.44,195.09,767.12z"/>
<path class="st83" d="M178.66,777c8.17-0.02,7.45,2.4,14.85-0.58c4.76-1.92,7.05-2.67,12.46-2.06c0.67-1.33-5.72-7.8-5.8-11.61
	c-0.05-2.54-1.27-4.73,1.44-6.31c5.08-2.98,2.41,3.62,3.48,4.39c2.67,1.93,7.59,5.19,10.88,0.21c1.11-1.68-2.37-14.51-0.11-15.55
	c4.01-1.84,2.82,5.53,6.55-0.51c2.4-3.88-0.33-4.04-3.75-6.13c4.69-1.37,8.78-2.56,12.86-3.76c0.03,11.96,0.07,23.92,0.1,35.88
	c-0.01,14.28-0.01,28.55-0.02,42.83c0,0-0.12,0.33-0.12,0.33c-7.62-0.08-15.23-0.15-22.85-0.23c-0.01-4.63,2.48-22.7-1.73-25.64
	c-5.17-3.61-21.75-0.32-28.3-0.34C178.63,784.28,178.64,780.64,178.66,777z M223.16,763.98c1.87,0,2.55-0.97,2.26-2.56
	C223.87,752.92,216.87,764.53,223.16,763.98z"/>
<path class="st132" d="M231.6,813.79c0.01-14.28,0.01-28.55,0.02-42.83c0.3,0.02,0.59,0.05,0.89,0.07
	c-0.03,14.32-0.05,28.64-0.07,42.96C232.15,813.95,231.87,813.88,231.6,813.79z"/>
<path class="st133" d="M258.53,791.99c-3.2-0.67-1.61-3.24-2-5.02c0.99,3.29,3.13,4.12,6.54,4.09c20.46-0.17,40.93-0.06,61.39-0.05
	c-5.08,2.14-10.39,0.49-15.57,0.92c-2.46,0.21-4.95,0.04-7.43,0.05C287.16,791.98,272.85,791.99,258.53,791.99z"/>
<path class="st134" d="M258.53,791.99c14.31,0,28.63-0.01,42.94-0.01c0,7.31,0.01,14.63,0.01,21.94
	c-13.26,0.12-26.52,0.24-39.78,0.35c-2.87,0.03-4.9-1.55-4.02-4.22C259.67,804.03,256.97,797.93,258.53,791.99z"/>
<path class="st135" d="M351.47,812.92c-0.01,3.13,1.81,14.21-3.19,14.41c-3.51,0.14-2.72-8.1-7.84-3.45c-1.16-4.93-5.39-6.59-9-3.39
	c-1.87,1.66-3.57,3.48-5.96,4.42c0-4.49-2.72-20.7,0.24-24.43c2.73-3.44,11.72-1.55,15.73-1.56
	C350.52,800.46,351.39,801.67,351.47,812.92z"/>
<path class="st136" d="M325.49,824.91c2.38-0.94,4.08-2.76,5.96-4.42c3.62-3.2,7.85-1.54,9,3.39c-0.19,2.7-3.3,6.1,1.82,8.03
	c-5.61,0-11.22,0-16.83,0C325.46,829.58,325.47,827.24,325.49,824.91z"/>
<path class="st137" d="M132.69,903.7c-0.03-12.48,2.65-17.82-11.33-17.96c-14.54-0.14-29.11,0.03-43.65,0.02
	c2.15-4.2,33.4-1.04,39.56-1.08c18.42-0.11,6.47-6.12,12.39-18.87c0.83,4.19,14.98,6.97,18.37,11.44c3.16,4.17,2.01,2.71,2.03,7.29
	c0.02,5.05-0.55,13.93-1.42,19.16C143.32,903.7,138,903.7,132.69,903.7z"/>
<path class="st138" d="M129.66,865.81c-5.91,12.76,6.04,18.76-12.39,18.87c-6.16,0.04-37.42-3.12-39.56,1.08
	c-0.34-0.01-0.69-0.02-1.03-0.04c0.04-6.93,0.08-13.87,0.12-20.8c15.59-0.03,31.18-0.05,46.77-0.11c1.98-0.01,3.96-0.19,5.95-0.3
	C129.56,864.95,129.61,865.38,129.66,865.81z"/>
<path class="st137" d="M129.84,861.76c-0.1-6.96-0.19-13.93-0.29-20.89l0.24,0.03c1.32-1.38,0.82-3.11,0.84-4.71
	c0.08-6.75,0.08-13.5,0.11-20.25c7.24,0.01,14.48,0.01,21.72,0.02c0.11,7.61,0.21,15.22,0.32,22.82c0,0.34,0,0.68-0.01,1.03
	c-5.49,1.58-16.23-1.03-20.68,3.34C127.94,847.23,131.78,856.41,129.84,861.76z"/>
<path class="st139" d="M152.77,839.81c0-0.34,0-0.68,0.01-1.03c0,0,0.49,0.01,0.49,0.01l0.49-0.04c25.9-0.02,51.81-0.05,77.71-0.07
	c0.07,0.16,0.14,0.31,0.21,0.46c-1.15,0.92-2.51,0.7-3.82,0.7C202.83,839.84,177.8,839.82,152.77,839.81z"/>
<path class="st140" d="M231.6,813.79c0.27,0.09,0.55,0.16,0.83,0.2c-0.24,8.38,1.12,16.81-0.76,25.15
	c-0.07-0.15-0.14-0.31-0.21-0.46c-0.01-7.91-0.03-15.81-0.05-23.72c0.05-0.28,0.07-0.56,0.06-0.85L231.6,813.79z"/>
<path class="st87" d="M130.52,752.05c-4.23,1.05-14.28-0.78-7.68-5.3c-1.68,1.15,8.87,4.43,4.7-0.99
	c-2.76-3.59-10.68-4.2-13.76-0.26c-1.23,1.57,2.1,3.94-0.28,5.97c-2.01,1.71-4.82-2.62-6.26-1.45c-6.82,5.55,3.96,3.65,0.47,9.42
	c-3.4,5.61-9.84-7.64-11.82-9.64c-4.18-4.2-7.89-2.07-3.43-8.03c-0.57,0.76,4.01,1.76,4.62,1.41c3.46-1.99,0.47-5.72,6.6-6.76
	c-2.86-2.97-9.29,0.88-5.78-6.25c3.42-6.94,6.19,0.23,7.21,4.26c7.52-5.78,4.11,1.18,9.43,4.36c5.1,3.04,10.52-2.57,15.98-3.71
	C130.53,740.73,130.52,746.39,130.52,752.05z"/>
<path class="st141" d="M130.76,781.03c0.02-3.36,0.03-6.72,0.05-10.08c0.31-0.01,0.62-0.04,0.93-0.1c3.3,0.07,6.61,0.14,9.91,0.2
	c2.73,2.57,10.4-0.64,11.44,2.25c1.6,4.44-3.64,1.19-5.12,2.6c1.41,2.72,1.9,6.25,4.46,8.25c2.49,1.95,6.81-0.43,7.2,3.68
	c-2.32,0.66-4.97-0.76-7.1,1.12C142.22,784.88,135.43,792.48,130.76,781.03z"/>
<path class="st142" d="M130.76,781.03c4.67,11.46,11.46,3.86,21.77,7.92c-0.02,3.33-0.03,6.67-0.05,10
	c-8.1-4.87-6.36,3.12-11.85,4.01c-4.12,0.67-4.39-5.63-9.89-3.02c-0.05-4.66-0.1-9.32-0.15-13.98
	C130.64,784.32,130.7,782.67,130.76,781.03z"/>
<path class="st87" d="M130.52,757.07c0,3.98,0,7.96,0,11.94c-2.65-0.88-9.61,6.39-8.58-0.76
	C122.07,767.29,129.21,758.14,130.52,757.07z"/>
<path class="st143" d="M129.56,840.87c-0.32,0.02-0.64,0.05-0.96,0.07c-6.11-0.03-12.23,0.08-18.33-0.14
	c-3.21-0.12-6.59,1.04-9.62-0.94c-0.02-8.29-0.03-16.58-0.05-24.87c0.03-0.32,0.03-0.64,0.01-0.97c3.28,6.56-2.7,19.1,2.62,24.37
	c4.57,4.53,20.69,1.53,26.33,1.56c0.04,0.32,0.13,0.64,0.25,0.95L129.56,840.87z"/>
<path class="st144" d="M129.79,840.9c-0.12-0.31-0.2-0.62-0.25-0.95c0.04-16.26,0.06-32.52,0.15-48.78
	c0.01-1.76-0.61-3.69,0.89-5.21c0.05,4.66,0.1,9.32,0.15,13.98c0,0.67,0,1.35-0.01,2.02c0,3.98,0,7.97-0.01,11.95
	c0,0.67,0.01,1.35,0.01,2.02c-0.03,6.75-0.03,13.5-0.11,20.25C130.61,837.78,131.12,839.52,129.79,840.9z"/>
<path class="st87" d="M91.82,726.91c-13.35-4.75,5-8.98,4.78-3.64C96.47,726.61,93.34,725.8,91.82,726.91z"/>
<path class="st145" d="M100.6,814.02c0.03,0.32,0.02,0.64-0.01,0.97c-7.58,0.01-15.15,0.02-22.73,0.02
	c-0.06-0.31-0.08-0.62-0.05-0.93C85.41,814.07,93.01,814.05,100.6,814.02z"/>
<path class="st146" d="M100.64,839.86c3.04,1.98,6.41,0.82,9.62,0.94c6.1,0.22,12.22,0.11,18.33,0.14
	c0.03,6.32-0.02,12.64,0.11,18.96c0.05,2.58-0.49,3.98-3.54,3.97c-23.31-0.08-46.61-0.07-69.92,0.02c-3.04,0.01-3.59-1.39-3.54-3.97
	c0.13-6.32,0.09-12.64,0.12-18.96c6.93-0.04,13.86-0.06,20.8-0.16c1.75-0.03,3.67,0.56,5.18-0.94
	C85.41,840.53,93.03,840.63,100.64,839.86z"/>
<path class="st147" d="M100.64,839.86c-7.62,0.77-15.23,0.66-22.84,0c0.02-8.28,0.05-16.56,0.07-24.85
	c7.58-0.01,15.15-0.02,22.73-0.02C100.61,823.28,100.63,831.57,100.64,839.86z"/>
<path class="st148" d="M77.85,655.23c-0.07-21.93-0.14-43.85-0.22-65.78c17.35-0.02,34.69-0.03,52.04-0.05c0,8.3,0,16.6,0,24.9
	c-3.78,1.93-3.09-2.64-5.38-3.59c-2.08,5.28,1.94,4.99,2.8,9.32c0.74,3.75-1.46,4.07-1.49,7.31c-0.01,1.5,2.9,2.37,1.72,4.79
	c-1.91,3.92-4.24,1.1-6.23,2.75c-3.9,3.25-1.84,4.09-4.28,9.1c-2.23,4.59-6.18,5.93-10.58,4.18c1.76,3.91,4.47,7.09,4.26,11.66
	c-4.62-2.1-6.7-1.66-7.28-6.98c-0.63-5.81,3.38-4.63,4.98-8.06c1.69-3.62,3.63-16.01-2.73-16.72c-2.69-0.3-7.71,13.92-10.85,17.42
	c-2.6,2.89-5.17,6.6-8.59,8.02c-1.28-1.72-2.83-2.18-4.65-1.37C80.15,653.09,78.97,654.13,77.85,655.23z M88.71,619.34
	c-1.88,0.25-3.83,1.45-3.43,2.53c1.23,3.33,6.05,6.62,8.78,3.5C98.8,619.96,90.28,621.27,88.71,619.34z M88.66,644.54
	c0.23-2.44,4.64-4.45,0.7-6.77C78.61,631.43,88.56,645.55,88.66,644.54z M122.13,606.47c0.83-1.93,3.67-3.43,1.54-5.94
	C119.41,595.53,121.33,604.72,122.13,606.47z"/>
<path class="st149" d="M129.67,614.3c0-8.3,0-16.6,0-24.9c0,0,0.48-0.04,0.48-0.04s0.48,0.03,0.48,0.03
	c0.05,2.66,0.11,5.31,0.16,7.97c-0.09,5.67-0.18,11.34-0.27,17.01C130.24,614.34,129.96,614.32,129.67,614.3z"/>
<path class="st150" d="M130.64,589.39l-0.48-0.03c0,0-0.48,0.04-0.48,0.04c-17.35,0.02-34.69,0.03-52.04,0.05
	c-0.28-0.07-0.55-0.18-0.8-0.32c-0.06-0.22-0.11-0.43-0.13-0.66c0,0,0-0.29,0-0.29c8.68,0.03,17.35,0.06,26.03,0.09
	c9.31,0.06,18.62,0.12,27.93,0.18c-0.04,0.3-0.05,0.6-0.03,0.9L130.64,589.39z"/>
<path class="st151" d="M102.75,588.27c-8.68-0.03-17.35-0.06-26.03-0.09c0-7.39-0.03-14.79,0.02-22.18
	c0.01-1.57-0.53-3.34,1.03-4.59c4.29,0,19.87,2.26,22.6-1.63c3.24-4.61,0.24-19.32,0.22-25.12c0.27-0.04,0.53-0.07,0.8-0.09
	c0.06,5.4-2.81,22.29,1.56,25.55c4.11,3.07,22.43,0.19,27.72,0.15c0,0-0.04,0.4-0.04,0.4c0.02,0.24,0.04,0.49,0.04,0.74
	c-0.66,0.03-1.33,0.07-1.99,0.1c-4.46-0.01-22.86-2.57-25.68,1.56C99.75,567.84,102.73,582.35,102.75,588.27z"/>
<path class="st152" d="M100.59,534.67c0.02,5.8,3.02,20.5-0.22,25.12c-2.73,3.89-18.31,1.63-22.6,1.63
	c0.02-8.92,0.04-17.85,0.06-26.77C85.41,534.65,93,534.66,100.59,534.67z"/>
<path class="st31" d="M101.74,403.74c1.39,0.31,3.73-0.83,3.68,1.8c-0.04,2.13-2,2.18-3.67,2.2
	C101.74,406.41,101.74,405.07,101.74,403.74z"/>
<path class="st31" d="M130.58,369.81c0.06,21.29,0.11,42.58,0.17,63.87c-0.06,15.97-0.11,31.94-0.16,47.9
	c-10.68-7.67-2.22-21.77-4.52-32.39c-1.34-6.17-5.64-5.46-9.11-7.39c-6.13-3.4-10.22-6.41-13.66-13.66c6.61-4.2,9-12.07,9.18-19.04
	c0.1-3.81-1.74-4.44,0.22-8.16c1.54-2.92,5.58-3.58,6.5-6.95c0.47-1.73-2.26-3.86-1.79-5.76c1.08-4.39,2.66-3.59,4.61-6.69
	C125.07,376.68,123.85,373.03,130.58,369.81z"/>
<path class="st153" d="M130.58,481.59c0.05-15.97,0.11-31.94,0.16-47.9c0.3,0,0.59,0,0.89,0c0.01,7.98,0.03,15.97,0.04,23.95
	c0,4.99,0,9.98,0,14.97c0,4.99,0,9.98,0,14.96c-0.02,24.24-0.04,48.48-0.06,72.72c-0.33,0.13-0.66,0.26-1,0.39
	c0,0,0.04-0.4,0.04-0.4C130.64,534.05,130.61,507.82,130.58,481.59z"/>
<path class="st31" d="M115.68,372.94c7.07,0.05-1.42,7.5-1.62,1.77C114.01,373.55,115.08,373.24,115.68,372.94z"/>
<path class="st31" d="M111.98,389.05c5.32,2.97-1.7,5.68-1.96,1.77C109.94,389.64,110.82,389.1,111.98,389.05z"/>
<path class="st154" d="M131.75,341.8c0.97,0.01,1.93,0.02,2.9,0.03c4.05,4.72,12.81,4.78,19.99,0.14
	c7.97-0.04,15.94-0.09,23.91-0.13c0.36,0.01,0.71,0.02,1.07,0.03c3.66,0,7.32,0.01,10.98,0.01c3.54,0.43,5.85,1.88,4.96,5.98
	c-8.3-0.24-6.72,19.2,0.08,10.93c0.29,0.02,0.59,0.05,0.88,0.08c0,0,0.19-0.07,0.19-0.07c-0.03,16.92-0.06,33.84-0.07,50.76
	c0,1.09-0.38,2.39,1.03,3.03c3.29,0.07,6.58,0.13,9.88,0.2c-0.01,0.31-0.02,0.62-0.03,0.93c-3.61,0.48-7.41-1.14-10.88,0.98
	c-3.13,1.61-0.95,4.15-1.26,6.48c-0.91,1.29-1.71,2.64-2.41,4.06c1.59,1.93,2.79,4.08,3.6,6.44c-5.82-2.75-15.12-1.57-21.65-2.25
	c-1.11-0.12-8.56,0.36-9.1-0.53c-1.25-2.09,0.81-3.27,0.85-3.19c-0.1-0.25,4.39-0.18,1.41-2.92c-1.9-1.74-6.17-0.08-7.62,1.25
	c-2.28,2.09,0.3,5.44-2.15,7.63c-1.73,1.54-4.86,1.21-6.94,1.59c-0.87-2.53-0.11-4.84,0.73-7.3c-5.53-1.06-7.14,7.8-11.86,3.31
	c-1.72,4.78-6.08,0.22-8.54,2.4C131.7,401.72,131.73,371.76,131.75,341.8z M153.39,394.58c2.82,1.71,4.32,6.66,9.04,3.42
	c-1.94,1.33,9.95,6.46,10.92,6.83c5.16,1.95,9.85,9.94,15.03,8.67c6.25-1.53,3.7-9.79,3.04-14.01c-0.28-1.79-0.14-4.73-0.86-6.41
	c-0.42-0.97-4.84-6.09-4.84-6.04c-0.37-3.92,5.81-4.53,5.27-10.48c-0.73-7.98-6.77-7.73-12.69-8.48c-6.37-0.81-7.37-2.03-9.62,4.1
	c-1.07,2.93,2.94,5.2-0.25,7.93c-2.62,2.25-5.97-1.64-8.57-1.66c1.88,4.32,4.85,3,4.08,8.16
	C163.37,390.44,156.81,394.37,153.39,394.58z M139.18,403.18c3.22,0.36,6.13-3.5,6.83-0.2c1.05,4.96-4.48,15.72,1.81,13.93
	c1.11-0.32-1.88-3.33,0.44-4.01c2.48-0.72,2.31,1.34,3.06,1.41c-2.29-0.22,4.9,6.25,3.94,2.08c-0.76-3.27-4.83-4.25-5.53-7.14
	c-0.38-1.57,3.66-3.24,3.45-4.21c-0.51-2.28-1.99-2.24-2.91-3.99C144.73,390.59,144.33,398.43,139.18,403.18z M165.97,415.97
	c-0.26-0.38-0.5-0.79-0.81-1.15c-2-2.32-7.08,1.58-7.9,3.47C156.9,419.12,164.92,418.08,165.97,415.97z M179.73,363.94
	c2.26-1.11,4.45-0.56,5.41-2.75C185.91,359.43,180.49,360.83,179.73,363.94z"/>
<path class="st155" d="M131.68,431.69c2.46-2.18,6.82,2.38,8.54-2.4c4.72,4.48,6.34-4.37,11.86-3.31c-0.84,2.45-1.6,4.77-0.73,7.3
	c2.07-0.38,5.2-0.05,6.94-1.59c2.45-2.18-0.13-5.54,2.15-7.63c1.45-1.33,5.72-2.99,7.62-1.25c2.99,2.74-1.5,2.67-1.41,2.92
	c-0.03-0.08-2.09,1.1-0.85,3.19c0.54,0.9,7.98,0.41,9.1,0.53c6.53,0.68,15.83-0.49,21.65,2.25c0.01,1,0.02,2,0.03,2.99
	c-12.43,0.03-24.85,0.08-37.28,0.09c-3.97,0-6.44,1.39-5.68,5.9c-4.17,5.77,0.26,13.34-8.32,14.23c-3.11,0.32-5.82-2.81-9.18-1.62
	c-2.1,0.75-2.9,4.05-4.45,4.34c-0.01-7.98-0.03-15.97-0.04-23.95C131.65,433.02,131.67,432.35,131.68,431.69z"/>
<path class="st112" d="M207.56,286.02c0,11.58-0.22,23.17,0.13,34.73c0.13,4.17-1.02,6.37-5.13,6.9c-0.63,0.07-1.26,0.14-1.89,0.2
	c-0.08-8.28-0.16-16.56-0.24-24.85c-0.84-5.17,0.56-13.67-3.19-17.52c-3.92-4.03-13.65-3.13-18.55-1.43
	c-0.07,18.92-0.13,37.84-0.2,56.76c-8.26-0.01-16.53-0.02-24.79-0.03c-0.06-11.26-0.12-22.52-0.18-33.78
	c0.03-7.13,0.06-14.26,0.08-21.39c0-1.31,0.19-2.69-0.98-3.7c0.01-2.39-0.44-5.54,0.58-7.82c0.48-1.05,3.89-0.29,3.9-0.35
	c0.89-3.64,0.38-2.03-3.88-3.14c2.5-5.6,7.18-4.56,9.39-9.45c5.34-0.01,10.68-0.02,16.02-0.03c-0.31,2.81,5.41,15.37,8.16,11.28
	c1.51-2.25-2.47-8.78,1.5-9.93c3.57-1.04-0.56,4.76,2.35,6.06c1.36-0.54,1.24-3.29,2.51-4.12c1.38-0.9,11.28,0.45,13.3,0.6
	c0.08,5.65,0.15,11.3,0.23,16.96C206.63,283.4,206.19,284.91,207.56,286.02z"/>
<path class="st156" d="M154.63,341.97c-7.18,4.64-15.94,4.58-19.99-0.14c6.33-0.04,12.67-0.08,19-0.12
	C153.97,341.8,154.3,341.89,154.63,341.97z"/>
<path class="st157" d="M154.63,341.97c-0.33-0.09-0.66-0.17-0.99-0.26c0-0.31,0.02-0.62,0.08-0.93c8.27,0.01,16.53,0.02,24.79,0.03
	c0.01,0.34,0.02,0.68,0.03,1.03C170.57,341.89,162.6,341.93,154.63,341.97z"/>
<path class="st158" d="M153.72,249.05c1.5-1.53,0.88-3.46,0.88-5.21c0.04-23.55,0.03-47.1,0.03-70.65
	c7.97,0.02,15.94,0.04,23.91,0.06c0.01,17.28,0.02,34.56,0.02,51.85c-12.09,6.13,0.7,9.21-3.01,19.88
	c-1.62,4.66-4.94,6.39-9.37,8.56c-1.71,0.84-1.65,2.5-3.54,2.9c-1.34,0.28-6.57-1.38-7.99-1.4c-0.06-1.08,0.13-2.23-0.94-3
	C153.72,251.05,153.72,250.05,153.72,249.05z"/>
<path class="st159" d="M153.72,252.05c1.07,0.76,0.87,1.92,0.94,3c-0.56,3.7,0.68,5.3,4.76,5.08c6.37-0.35,12.78-0.11,19.17-0.13
	c0.01,0.3,0,0.59-0.04,0.89l0.1,0.25c-5.34,0.01-10.68,0.02-16.02,0.03c-0.16-0.02-0.32-0.04-0.49-0.05
	C153.43,260.82,153.43,260.82,153.72,252.05z"/>
<path class="st47" d="M153.54,194.17c0,5.32,0,10.64,0,15.96c-1.87-1.91-2.62-14.04-0.95-15.77
	C152.77,194.16,153.21,194.22,153.54,194.17z"/>
<path class="st160" d="M178.55,173.26c-7.97-0.02-15.94-0.04-23.91-0.06c0-22.94,0-45.88,0-68.82c6.8-0.03,13.6,0.15,20.38-0.16
	c3.86-0.17,4.72,1.29,4.69,4.88c-0.15,21.36-0.09,42.72-0.1,64.08c0,0,0.04,0.04,0.04,0.04
	C179.28,173.24,178.91,173.25,178.55,173.26z"/>
<path class="st161" d="M103.67,103.38c-0.29-0.03-0.58-0.05-0.87-0.08c-0.09-0.65-0.17-1.3-0.26-1.95c0.1-7.64,0.2-15.28,0.3-22.92
	c8.59,0.01,17.18,0.03,25.76,0.04c0.01,6.96,0.02,13.92,0.04,20.88c-1.99,0.16-8.06-9.38-8.77-2.39c-0.34,3.37,5.15,10.34,8.76,8.39
	c0,3.32,0,6.65,0,9.97c-4.06,1.2-7.04-1.56-8.98-4.87c-3.09-5.28-2.05-3.64,1.25-9.29C117.59,102.35,103.88,101.23,103.67,103.38z"
	/>
<path class="st112" d="M128.63,105.35c-3.61,1.95-9.11-5.02-8.76-8.39c0.71-6.99,6.78,2.56,8.77,2.39
	C128.63,101.35,128.63,103.35,128.63,105.35z"/>
<path class="st109" d="M129.79,83.39c1.96,0.06,4.34-0.37,4.71,2.4c0.45,3.41-2.28,3.94-4.72,4.58
	C129.79,88.04,129.79,85.71,129.79,83.39z"/>
<path class="st162" d="M128.6,78.48c-8.59-0.01-17.18-0.03-25.76-0.04c-0.1-0.33-0.1-0.65,0-0.98c7.56-0.02,15.13-0.06,22.69-0.04
	c1.41,0,3.02-0.48,4.06,1.05c0,0-0.5-0.02-0.5-0.02S128.6,78.48,128.6,78.48z"/>
<path class="st163" d="M102.54,101.36c0.09,0.65,0.17,1.3,0.26,1.95c-0.09,8.98-0.19,17.97-0.28,26.95
	c-1.84-5.14-0.48-10.45-0.79-15.67c-0.24-4.13-0.13-8.27-0.17-12.41c0.05-0.27,0.11-0.55,0.17-0.82c0,0,0.4,0,0.4,0
	S102.54,101.36,102.54,101.36z"/>
<path class="st164" d="M101.73,101.36c-0.07,0.27-0.12,0.54-0.17,0.82c-8.01-0.01-16.19,1.5-23.71-2.75
	c0.01-1.02,0.01-2.04,0.01-3.07c2.69-0.04,10.52-7.31,12.22-9.45c1.35-1.7-1.48-4.94,0.99-6.32c1.72,0.08,3.38,0.46,4.98,1.15
	c1.94-0.55,3.78-1.33,5.52-2.34C101.63,86.72,101.68,94.04,101.73,101.36z"/>
<path class="st165" d="M101.58,79.4c-1.74,1.01-3.58,1.79-5.52,2.34c-1.6-0.69-3.26-1.07-4.98-1.15c-2.48,1.38,0.35,4.62-0.99,6.32
	c-1.7,2.14-9.53,9.4-12.22,9.45c0.01-6.94,0.02-13.88,0.03-20.81c7.95-0.07,15.89-0.15,23.84-0.22c0,0-0.04,0.11-0.04,0.11
	C101.66,76.76,101.62,78.08,101.58,79.4z M78.7,86.35c2.7,0.47,4.64,0.54,6.24-1.13C86.56,83.52,79.63,85.31,78.7,86.35z"/>
<path class="st166" d="M200.68,327.86c0.63-0.07,1.26-0.14,1.89-0.2c1.99,0.14,3.97,0.27,5.96,0.41c0.11,4.22,0.22,8.45,0.33,12.67
	c-0.17,0.05-0.33,0.09-0.5,0.14c-0.27-0.33-0.53-0.65-0.8-0.98c0.09-13.29-5.04-13.34-4.97-0.02c-0.91,3.47-4.46,0.89-5.96,4.26
	c-1.53,3.41-0.09,10.97-0.12,14.74c-0.29-0.04-0.59-0.06-0.88-0.08c-0.03-3.64-0.05-7.29-0.08-10.93c0.89-4.09-1.42-5.55-4.96-5.98
	c0.72-5.64,14.03,3.45,10.88-7.66c-2.07-7.29-14.99-2.89-21.8-2.36c0-15.92,0.01-31.83,0.01-47.75c15.3-0.32,15.71,5.03,19.92,18.82
	c0,5.46-0.17,10.93,0.06,16.38C199.79,322.16,198.45,325.25,200.68,327.86z"/>
<path class="st167" d="M209.83,376.58c7.57,0.07,15.14,0.13,22.71,0.2c0,0,0.49,0.02,0.49,0.02s0.49-0.03,0.49-0.03
	c0.07,9.43-0.11,9.72-9.39,11.9c-4.8,1.13-9.65,2.04-14.48,3.06c-0.08-4.95-0.16-9.9-0.23-14.84
	C209.56,376.79,209.7,376.69,209.83,376.58z"/>
<path class="st168" d="M208.85,340.73c1.52,5.48,0.47,11.07,0.69,16.61c0.26,6.41,0.21,12.83,0.29,19.24
	c-0.13,0.11-0.27,0.2-0.42,0.3c-0.21-0.08-0.43-0.13-0.66-0.17c-0.13-11.95-0.26-23.9-0.4-35.84
	C208.52,340.83,208.69,340.78,208.85,340.73z"/>
<path class="st169" d="M233.52,376.77l-0.49,0.03c0,0-0.49-0.02-0.49-0.02c0.03-11.28,0.07-22.57,0.1-33.85
	c0.36,0.02,0.73,0.05,1.09,0.07C233.66,354.26,233.59,365.51,233.52,376.77z"/>
<path class="st170" d="M233.73,343c-0.36-0.02-0.73-0.05-1.09-0.07c1.53-1.89,3.66-1.04,5.51-1.07c7.04-0.11,14.09-0.04,21.14-0.05
	c0.06,0.29,0.04,0.58-0.05,0.86c-0.25,0.04-0.48,0.12-0.7,0.24C250.27,342.95,242,342.97,233.73,343z"/>
<path class="st131" d="M233.73,343c8.27-0.03,16.54-0.06,24.8-0.08c0,16-0.02,31.99,0.02,47.99c0,1.6-0.5,3.32,0.74,4.75
	c0.1,12.66,0.21,25.32,0.31,37.98c-0.02,0.35-0.03,0.7-0.05,1.05c-1.69-2.16-9.66-3.37-12.28-2.4c-8.56,3.17-1,3.46,0.17,7.78
	c0.37,1.37-4.08,1.77-4.46,4.08c-0.32,1.92,1.93,3.62,1.6,5.6c-0.85,5.13-5.07,6.94-11,5.9c0.2-3.54,2.3-18.13-0.09-20.65
	c-3.97-4.18-20.27-1.27-25.91-1.25l-0.13-0.04c0.02-3.99,0.04-7.97,0.05-11.96c0-2.67,0-5.34,0-8.02c0.01-0.31,0.02-0.62,0.03-0.93
	c0.23-0.15,0.47-0.22,0.74-0.22c2.02-1,1.25-2.88,1.28-4.42c0.1-5.48,0.07-10.96,0.09-16.44c4.83-1.01,9.68-1.93,14.48-3.06
	c9.28-2.18,9.46-2.47,9.39-11.9C233.59,365.51,233.66,354.26,233.73,343z"/>
<path class="st171" d="M233.59,455.64c5.93,1.04,10.15-0.77,11-5.9c0.33-1.98-1.92-3.68-1.6-5.6c0.39-2.31,4.83-2.72,4.46-4.08
	c-1.16-4.32-8.73-4.6-0.17-7.78c2.62-0.97,10.59,0.23,12.28,2.4c4.34,0.01,20.63-2.31,23.6,1.43c3.91,4.92,0.33,27.15,0.33,32.99
	c0,6.75,3.14,25.89-0.12,31.77c-3.03,5.47-18.08,2.72-23.77,2.75c-0.37-0.33-0.73-0.66-1.1-0.99c0,0,0.04-0.13,0.04-0.13
	c0.01-4.57,2.52-21.5-1.01-24.91c-3.69-3.56-18.81-1-23.95-1.03C233.58,469.59,233.58,462.62,233.59,455.64z"/>
<path class="st172" d="M153.63,440.67c-0.75-4.51,1.71-5.89,5.68-5.9c12.43-0.01,24.85-0.06,37.28-0.09c3.66,0,7.32,0,10.98,0.01
	c6.79,0,13.59,0.2,20.36-0.09c3.83-0.16,4.75,1.25,4.69,4.86c-0.18,12.4-0.04,24.81-0.03,37.22c-0.01,8.64-0.02,17.29-0.04,25.93
	c0.01,9.65,0.01,19.29,0.02,28.94c-0.06,0.68-0.13,1.37-0.19,2.05c-16.87-0.03-33.73-0.07-50.6-0.09c-1.15,0-2.34-0.1-3.2,0.92
	c0,0,0.05,0.09,0.05,0.09c-5.61,4.39,2.65,19.17-1.51,24.37c-3.12,3.9-18.74,1.47-23.46,1.44c-0.01-14.93-0.02-29.86-0.03-44.8
	c0-2.66,0-5.32,0-7.98c0-4.66,0-9.31,0-13.97c0-7.32,0-14.64,0-21.96C153.63,461.3,153.63,450.98,153.63,440.67z"/>
<path class="st173" d="M232.4,534.57c-0.01,8.59-0.03,17.19-0.04,25.78c-17.91,0.02-35.82,0.04-53.73,0.06
	c0-8.64,0.01-17.27,0.01-25.91c0,0-0.05-0.09-0.05-0.09C196.52,534.47,214.46,534.52,232.4,534.57z"/>
<path class="st174" d="M258.48,503.59c-0.01,9.14-0.03,18.29-0.04,27.43c-8.26,0.97-16.54,0.36-24.81,0.33
	c-0.01-5.16-2.67-22.24,0.23-26.32C237.03,500.56,253.12,503.57,258.48,503.59z"/>
<path class="st175" d="M258.48,503.59c-5.36-0.01-21.45-3.02-24.63,1.45c-2.9,4.08-0.24,21.16-0.23,26.32
	c-0.35,0.06-0.7,0.13-1.05,0.19c-0.01-9.64-0.01-19.29-0.02-28.94c8.66-0.04,17.32-0.07,25.98-0.11c0,0-0.04,0.13-0.04,0.13
	C258.51,502.95,258.51,503.27,258.48,503.59z"/>
<path class="st176" d="M178.62,560.41c17.91-0.02,35.82-0.04,53.73-0.06c0.06,0.31,0.05,0.61-0.04,0.91
	c-0.23,0.1-0.47,0.19-0.71,0.26c-15.34,0-30.67,0-46.01,0c-2.31,0-4.63,0-6.94-0.01C178.65,561.15,178.64,560.78,178.62,560.41z"/>
<path class="st177" d="M232.4,534.57c-17.94-0.05-35.88-0.1-53.82-0.15c0.86-1.02,2.05-0.92,3.2-0.92
	c16.87,0.03,33.73,0.06,50.6,0.09C232.48,533.92,232.48,534.24,232.4,534.57z"/>
<path class="st178" d="M185.6,561.52c15.34,0,30.67,0,46.01,0c-0.04,6.63-0.07,13.26-0.11,19.89c-9.18,5.99-3.34,14.96-14.25,20.01
	c1.14-3.37,2.09-6.62-2.27-7.89c-0.8-10.5-1.73-3.04-4.84-0.49c-2.45,2.01-9.8,6.62-10.81,1.35c0.13,0.66,7.24-14.12,7.74-14.96
	c0.05-0.08,8.69-9.81,2.1-9.72c-3.1,0.04,0.25,4.83-2.59,6.17c-3.24,1.54-2.77-1.28-6.11-2.29c-2.06-0.62-6.12-1.7-8.16-2.11
	c-0.84-0.17-10.93-1.42-10.65-1.16C179.98,568.82,185.45,563.35,185.6,561.52z"/>
<path class="st179" d="M207.56,286.02c-1.37-1.12-0.93-2.62-0.87-4.04c0.28,0.01,0.56,0.01,0.84,0.02c-0.2,2.87,1.63,3.05,3.82,3.02
	c7.05-0.09,14.11-0.08,21.16-0.11c0.02,0.32,0.02,0.64,0.02,0.97C224.21,285.92,215.89,285.97,207.56,286.02z"/>
<path class="st180" d="M208.57,104.34c6.3,0,12.61,0.27,18.88-0.08c4.31-0.24,5.22,1.42,5.18,5.4c-0.17,21.18-0.08,42.37-0.08,63.55
	c0,0,0,0,0,0c-8.33,0-16.66,0.01-24.99,0.01c0.02-2,0.03-4,0.05-5.99c1.56-1.5,0.93-3.44,0.93-5.19
	C208.59,142.8,208.57,123.57,208.57,104.34L208.57,104.34z"/>
<path class="st181" d="M207.57,173.22c8.33,0,16.66-0.01,24.99-0.01c-0.03,25.28-0.06,50.56-0.09,75.85
	c-8.63,2.19-3.9-2.17-8.04-6.39c0.11,0.12-7.26-1.48-7.76-1.78c-4.12-2.42-3.73-5.07-9.05-6.8c-0.01-20.3-0.01-40.59-0.02-60.89
	L207.57,173.22z"/>
<path class="st182" d="M207.61,234.08c5.32,1.74,4.93,4.39,9.05,6.8c0.5,0.29,7.88,1.89,7.76,1.78c4.14,4.22-0.59,8.58,8.04,6.39
	c0.02,11.95,0.03,23.9,0.05,35.85c-7.05,0.03-14.11,0.02-21.16,0.11c-2.19,0.03-4.02-0.15-3.82-3.02
	c0.03-11.65,0.05-23.29,0.08-34.94c1.72-0.12,2.81-0.95,2.9-2.74c0.11-1.99-0.89-3.09-2.9-3.24
	C207.61,238.74,207.61,236.41,207.61,234.08z M226.17,257.9c2.14-0.31,2.64-2.14,3.15-3.82
	C230.85,249.05,220.28,256.98,226.17,257.9z"/>
<path class="st55" d="M207.62,167.22c-0.02,2-0.03,4-0.05,5.99c0,0,0.02-0.02,0.02-0.02c-0.36,0.03-0.73,0.07-1.09,0.1
	c-1.97-0.07-3.94-0.14-5.91-0.21c-2.07-2.62-13.04-6.32-13.26-9.24c-0.46-6.17,7.42-3.82,8.8,1.01c2.85-1.41,2.8-6.66,0.77-8.81
	c-0.41-0.43-3.36,0.17-4.37-0.65c-3.01-2.45-10.24-5.99-1.98-8.91c4.18-1.48,12.23,7.75,14.72-1.98c-0.6,2.35-2.26-9.28-2.05-8.59
	c-0.53-1.8-1.62-5.08-3.67-5.33c-7.33-0.9,0.69,10-5.6,10.31c-1.25,0.06-8.23-8.73-9.72-10.69c-3.44-4.53-6-21.89,1.67-24.44
	c4.75-1.58,2.85,3.75,5.7,4.06c6.12,0.66,1.81-1.62,3.46-4.75c4.38,3.96,7.83-5.64,12.54-0.72
	C207.6,125.31,207.61,146.27,207.62,167.22z"/>
<path class="st125" d="M207.62,167.22c-0.01-20.96-0.02-41.92-0.03-62.88c0.33-0.01,0.65-0.01,0.98-0.01
	c0,19.23,0.02,38.47-0.02,57.7C208.55,163.79,209.18,165.72,207.62,167.22z"/>
<path class="st128" d="M123.13,31.44c11.45,2.52-3.79,8.18-4.12,1.84C118.86,30.43,121.67,31.96,123.13,31.44z"/>
<path class="st55" d="M158.63,86.38c2.36-4.26,5.03-5.91,10.47-5.74c-4.29,1.78-4.38,7.33-9.48,6.74
	C159.3,87.05,158.96,86.71,158.63,86.38z"/>
<path class="st183" d="M200.59,173.08c1.97,0.07,3.94,0.14,5.91,0.21c0.04,0.32,0.04,0.65-0.01,0.97c-8.93,0-17.87,0-26.81-0.01
	c-0.01-0.34-0.03-0.69-0.04-1.03c0,0-0.04-0.04-0.04-0.04C186.6,173.15,193.6,173.12,200.59,173.08z"/>
<path class="st55" d="M180.58,169.65c0.58-2.39-1.42-5.02,1.75-6.26c1.16-0.46,2.68,0.16,2.8,1.38
	C185.41,167.59,183.28,168.63,180.58,169.65z"/>
<path class="st55" d="M193.6,85.38c-1.33,0-2.66,0-4,0C186.94,83.75,192.41,78.38,193.6,85.38z"/>
<path class="st55" d="M180.89,150.18c3.61,1.55,2.35,6.67,0.73,5.56C179.49,154.28,181.3,152.11,180.89,150.18z"/>
<path class="st55" d="M169.62,101.35c0.8,0.43,0.98,1.16,1,1.98c-1.52,0.02-6.25,1.16-6.19-1.45
	C164.47,100.22,168.91,101.66,169.62,101.35z"/>
<path class="st127" d="M180.22,77c-5.12,4.35-11.19,15.65-12.53,6.51c-0.01-0.1,1.34-8.93,1.75-9.07c3.6-1.2,4.92,4.89,9.53,1.15
	C179.35,75.28,180.2,75.83,180.22,77z"/>
<path class="st184" d="M101.58,79.4c0.04-1.32,0.08-2.64,0.12-3.96c0.32-0.04,0.64-0.02,0.95,0.04c0.06,0.66,0.12,1.32,0.18,1.99
	c-0.09,0.33-0.09,0.65,0,0.98c-0.1,7.64-0.2,15.28-0.3,22.92c0,0-0.4,0-0.4,0s-0.4,0-0.4,0C101.68,94.04,101.63,86.72,101.58,79.4z"
	/>
<path class="st127" d="M150.4,78.03c0.78,5.29-7.21-1.81-3.06-2.24C149.17,75.61,149.72,77.19,150.4,78.03z"/>
<path class="st185" d="M176.82,590.24c-0.09-0.27-0.17-0.54-0.26-0.82c0-0.34,0-0.68,0-1.02c4.5-3.43,1.57-24.61-2.11-26.88
	c-3.93-2.42-17.62-0.09-22.58-0.09c-7.07,0-14.14-0.03-21.21-0.03c0-0.25-0.02-0.49-0.04-0.74c0.33-0.13,0.66-0.26,1-0.39
	c7.35,0.01,14.69,0.02,22.04,0.03c4.72,0.03,20.34,2.46,23.46-1.44c4.16-5.2-4.1-19.98,1.51-24.37c0,8.64-0.01,17.27-0.01,25.91
	c0.01,0.37,0.03,0.74,0.04,1.1c0.02,5.63,0.04,11.26,0.06,16.88c0,2.99,0,5.98-0.01,8.97C178.57,588.65,178.04,589.68,176.82,590.24
	z"/>
<path class="st178" d="M178.72,587.37c0-2.99,0-5.98,0.01-8.97c4.19,2.37,7.63,6.8,7.12,10.21
	C183.76,583.66,181.19,586.46,178.72,587.37z"/>
<path class="st178" d="M196.26,587.52c-0.14-0.37-0.39-9.66-1.07-9.21c0.93-0.61,4.72-1.64,3.99,1.39
	C198.6,582.14,197.45,584.43,196.26,587.52z"/>
<path class="st83" d="M195.09,767.12c7.6,1.32-3.98,8.17-3.25,3.1C192.09,768.44,193.37,767.45,195.09,767.12z"/>
<path class="st186" d="M177.47,767.11c0.1-0.71,0.2-1.41,0.3-2.12c1.73,3.9,0.36,8.02,0.89,12c-0.02,3.64-0.04,7.28-0.05,10.92
	c0,0,0,0.18,0,0.18c-0.34-0.06-0.68-0.11-1.03-0.17c-0.02-5.64-0.04-11.27-0.06-16.91C177.51,769.71,177.49,768.41,177.47,767.11z"
	/>
<path class="st187" d="M231.48,814.12c0.01,0.28-0.01,0.57-0.06,0.85c-25.9-0.01-51.81-0.01-77.71-0.02
	c-0.02-4.46-2.57-21.6,0.85-24.99c3.63-3.61,18.88-1,24.02-1.01c5.44,0.01,23.71-3.59,27.97,0.96c5.38,5.75-2.37,17.49,2.09,23.99
	C216.25,813.97,223.86,814.04,231.48,814.12z"/>
<path class="st188" d="M208.63,813.89c-4.46-6.51,3.29-18.25-2.09-23.99c-4.26-4.55-22.53-0.95-27.96-0.96
	c0.01-0.28,0.02-0.56,0.03-0.84c0,0,0-0.18,0-0.18c6.55,0.02,23.12-3.27,28.3,0.34C211.11,791.19,208.63,809.26,208.63,813.89z"/>
<path class="st131" d="M223.16,763.98c-6.29,0.56,0.71-11.06,2.26-2.56C225.71,763.01,225.03,763.98,223.16,763.98z"/>
<path class="st142" d="M130.74,815.94c0-0.67-0.01-1.35-0.01-2.02c4.37-3.23,4.37-6.81,0.01-11.95c0-0.67,0-1.35,0.01-2.02
	c5.51-2.62,5.78,3.69,9.9,3.02c5.49-0.89,3.75-8.88,11.85-4.01c-0.01,5.67-0.02,11.34-0.03,17
	C145.22,815.95,137.98,815.94,130.74,815.94z"/>
<path class="st189" d="M152.46,815.96c0.01-5.67,0.02-11.34,0.03-17c0.02-3.33,0.03-6.67,0.05-10c2.13-1.88,4.78-0.46,7.1-1.12
	c5.99,0.03,11.97,0.06,17.96,0.1c0.34,0.06,0.68,0.11,1.03,0.17c-0.01,0.28-0.02,0.56-0.03,0.85c-5.14,0.01-20.39-2.6-24.02,1.01
	c-3.42,3.4-0.87,20.53-0.85,24.99c0.02,7.94,0.03,15.88,0.05,23.81l-0.49,0.04c0,0-0.49-0.01-0.49-0.01
	C152.67,831.17,152.57,823.56,152.46,815.96z"/>
<path class="st190" d="M153.75,838.76c-0.02-7.94-0.03-15.88-0.05-23.81c25.91,0.01,51.81,0.01,77.71,0.02
	c0.01,7.91,0.03,15.81,0.04,23.72C205.56,838.71,179.65,838.73,153.75,838.76z"/>
<path class="st191" d="M177.58,787.93c-5.99-0.03-11.97-0.06-17.96-0.1c-0.39-4.11-4.71-1.73-7.2-3.68c-2.56-2-3.05-5.53-4.46-8.25
	c1.47-1.41,6.72,1.84,5.12-2.6c-1.04-2.89-8.71,0.32-11.44-2.25c2.32-0.04,4.65-0.08,6.97-0.11c1.34,0.01,2.68,0.03,4.02,0.04
	c1.33,0,2.66,0,3.99,0c6.97,0.01,13.93,0.02,20.9,0.03C177.55,776.65,177.57,782.29,177.58,787.93z"/>
<path class="st142" d="M130.73,801.97c4.36,5.14,4.36,8.72-0.01,11.95C130.73,809.93,130.73,805.95,130.73,801.97z"/>
<path class="st87" d="M88.71,619.34c1.57,1.93,10.09,0.61,5.35,6.03c-2.73,3.12-7.55-0.18-8.78-3.5
	C84.87,620.79,86.82,619.59,88.71,619.34z"/>
<path class="st87" d="M88.66,644.54c-0.09,1.01-10.05-13.11,0.7-6.77C93.3,640.09,88.89,642.1,88.66,644.54z"/>
<path class="st87" d="M122.13,606.47c-0.81-1.75-2.73-10.94,1.54-5.94C125.81,603.03,122.97,604.54,122.13,606.47z"/>
<path class="st192" d="M102.75,588.27c-0.02-5.92-3-20.43,0.25-25.2c2.81-4.13,21.22-1.57,25.68-1.56
	c1.37,7.19-2.2,21.77,5.09,25.36c7.98,3.93,29.31-5.55,34.86,1.35c-6.33,0.1-12.66,0.19-18.99,0.29
	c-6.32-0.02-12.63-0.04-18.95-0.06C121.37,588.39,112.06,588.33,102.75,588.27z"/>
<path class="st193" d="M130.68,588.45c6.32,0.02,12.63,0.04,18.95,0.06c0.01,0.23,0.01,0.47,0.02,0.7c-6.33,0.05-12.67,0.09-19,0.14
	C130.63,589.05,130.64,588.75,130.68,588.45z"/>
<path class="st194" d="M168.62,588.22c-5.55-6.91-26.88,2.57-34.86-1.35c-7.29-3.59-3.72-18.16-5.09-25.36
	c0.66-0.03,1.33-0.06,1.99-0.1c7.07,0,14.14,0.03,21.21,0.03c4.96,0,18.65-2.33,22.58,0.09c3.68,2.27,6.61,23.45,2.11,26.88
	C173.91,588.35,171.27,588.28,168.62,588.22z"/>
<path class="st195" d="M153.66,560.32c-7.35-0.01-14.69-0.02-22.04-0.03c0.02-24.24,0.04-48.48,0.06-72.72
	c3.68-1.82-0.2-3.39,1.55-5.09c0.97-0.94,2.48,0.02,3.23-0.6c0.84-0.69,7.54-4.15,8.45-3.61c5.32,3.1-7.52,9.79-7.78,13.24
	c0.4-1.2,9.47-5.17,10.31-4.9c3.43,1.08,0.19,7.1,6.19,6.96c0,4.66,0,9.31,0,13.97c-3.94,3.24-3.94,5.89,0,7.98
	C153.64,530.45,153.65,545.38,153.66,560.32z M140.89,536.5c4.29-0.69,6.59-4.96,10.4-6.87c1.74-0.87-1.43-2.68-2.13-2.82
	c-0.85-0.17-3.46,3.69-4.59,4.12c-1.42,0.53-5.92-0.21-6.82,0.86C135.73,534.17,137.96,536.19,140.89,536.5z"/>
<path class="st195" d="M153.63,440.67c0,10.31,0,20.62,0,30.94c-4.55-0.78-8.7-2.43-12.64-6.44c0.01,8.97-0.62,4.15-9.31,7.44
	c0-4.99,0-9.98,0-14.97c1.55-0.3,2.35-3.6,4.45-4.34c3.36-1.19,6.07,1.94,9.18,1.62C153.9,454.01,149.46,446.44,153.63,440.67z"/>
<path class="st155" d="M131.68,472.61c8.69-3.28,9.32,1.54,9.31-7.44c3.93,4.01,8.09,5.66,12.64,6.44c0,7.32,0,14.64,0,21.96
	c-6,0.14-2.76-5.87-6.19-6.96c-0.84-0.26-9.9,3.7-10.31,4.9c0.26-3.45,13.09-10.14,7.78-13.24c-0.92-0.53-7.61,2.92-8.45,3.61
	c-0.75,0.62-2.27-0.34-3.23,0.6c-1.75,1.7,2.13,3.27-1.55,5.09C131.68,482.58,131.68,477.59,131.68,472.61z"/>
<path class="st156" d="M153.39,394.58c3.42-0.2,9.99-4.14,10.56-7.97c0.77-5.16-2.2-3.84-4.08-8.16c2.6,0.02,5.95,3.91,8.57,1.66
	c3.19-2.73-0.82-5,0.25-7.93c2.24-6.13,3.25-4.91,9.62-4.1c5.92,0.75,11.96,0.5,12.69,8.48c0.54,5.95-5.64,6.56-5.27,10.48
	c0-0.04,4.42,5.07,4.84,6.04c0.72,1.68,0.58,4.61,0.86,6.41c0.66,4.22,3.21,12.47-3.04,14.01c-5.18,1.27-9.87-6.72-15.03-8.67
	c-0.98-0.37-12.87-5.5-10.92-6.83C157.71,401.23,156.2,396.28,153.39,394.58z"/>
<path class="st196" d="M179.67,331.86c6.81-0.53,19.73-4.93,21.8,2.36c3.15,11.11-10.16,2.02-10.88,7.66
	c-3.66,0-7.32-0.01-10.98-0.01C179.63,338.53,179.65,335.2,179.67,331.86z"/>
<path class="st156" d="M139.18,403.18c5.15-4.75,5.55-12.59,11.08-2.12c0.92,1.75,2.41,1.71,2.91,3.99
	c0.22,0.97-3.82,2.64-3.45,4.21c0.7,2.89,4.77,3.87,5.53,7.14c0.96,4.17-6.23-2.3-3.94-2.08c-0.75-0.07-0.58-2.13-3.06-1.41
	c-2.33,0.67,0.67,3.69-0.44,4.01c-6.28,1.79-0.76-8.97-1.81-13.93C145.31,399.68,142.4,403.54,139.18,403.18z"/>
<path class="st197" d="M207.5,413.73c0,2.67,0,5.34,0,8.02c-1.85,1.37-0.06,3.87-2.04,5.71c-1.94-3.66-4.91-2.83-7.92-1.75
	c-0.31-3.66-0.62-7.33-0.92-10.99C200.09,412.59,203.89,414.2,207.5,413.73z"/>
<path class="st156" d="M195.55,347.86c0.03,3.64,0.05,7.29,0.08,10.93C188.83,367.05,187.25,347.62,195.55,347.86z"/>
<path class="st156" d="M179.67,331.86c-0.02,3.34-0.04,6.67-0.06,10.01c-0.36-0.01-0.71-0.02-1.07-0.03
	c-0.01-0.34-0.02-0.68-0.03-1.03c0.07-18.92,0.13-37.84,0.2-56.76c0,0,0.49-0.01,0.49-0.01l0.48,0.06
	C179.68,300.03,179.67,315.95,179.67,331.86z"/>
<path class="st156" d="M196.63,414.71c0.31,3.66,0.62,7.33,0.92,10.99c-0.01,9.26-0.98,7.92,7.96,8.04c0.65,0.01,1.3-0.03,1.95-0.04
	c0,0,0.13,0.04,0.13,0.04c-0.02,0.32-0.02,0.63-0.02,0.95c-3.66,0-7.32,0-10.98-0.01c-0.01-1-0.02-2-0.03-2.99
	c-0.81-2.36-2.01-4.51-3.6-6.44c0.69-1.42,1.49-2.78,2.41-4.06C195.67,418.87,193.5,416.32,196.63,414.71z"/>
<path class="st156" d="M165.97,415.97c-1.04,2.11-9.06,3.15-8.71,2.32c0.82-1.89,5.9-5.79,7.9-3.47
	C165.47,415.18,165.7,415.59,165.97,415.97z"/>
<path class="st156" d="M179.73,363.94c0.77-3.11,6.18-4.51,5.41-2.75C184.18,363.38,181.99,362.83,179.73,363.94z"/>
<path class="st198" d="M179.69,174.26c8.93,0,17.87,0,26.81,0c-0.01,30.25-0.02,60.51-0.03,90.76c-2.02-0.15-11.92-1.49-13.3-0.6
	c-1.27,0.83-1.15,3.58-2.51,4.12c-2.91-1.3,1.22-7.1-2.35-6.06c-3.97,1.15,0.01,7.68-1.5,9.93c-2.74,4.09-8.47-8.47-8.16-11.28
	c0,0-0.1-0.25-0.1-0.25c1.94-1.55,1.01-3.71,1.02-5.56C179.66,228.3,179.66,201.28,179.69,174.26z M193.32,249
	c-2.36,0.26-4.5,0.71-5.33,2.71c-1.73,4.18,3.6,7.19,6.64,6.29c1.86-0.56,4.36-4.73,5.21-6.28
	C206.12,240.21,197.71,251.61,193.32,249z"/>
<path class="st199" d="M206.47,265.02c0.01-30.25,0.02-60.51,0.03-90.76c0.05-0.32,0.05-0.65,0.01-0.97
	c0.36-0.03,0.73-0.06,1.09-0.1c0.01,20.3,0.01,40.59,0.02,60.89c0,2.33,0,4.66,0,6.99c0,2,0,3.99-0.01,5.99
	c-0.03,11.65-0.05,23.29-0.08,34.94c-0.28-0.01-0.56-0.01-0.84-0.02C206.62,276.33,206.54,270.68,206.47,265.02z"/>
<path class="st200" d="M179.68,284.11l-0.48-0.06c0,0-0.49,0.01-0.49,0.01c4.9-1.7,14.63-2.6,18.55,1.43
	c3.75,3.86,2.34,12.35,3.19,17.52c-0.28-0.03-0.56-0.06-0.83-0.08C195.4,289.14,194.98,283.8,179.68,284.11z"/>
<path class="st201" d="M199.61,302.93c0.28,0.02,0.56,0.05,0.83,0.08c0.08,8.28,0.16,16.56,0.24,24.85
	c-2.23-2.61-0.89-5.7-1.01-8.55C199.44,313.86,199.61,308.39,199.61,302.93z"/>
<path class="st202" d="M178.59,259.99c-6.39,0.01-12.8-0.22-19.17,0.13c-4.09,0.22-5.32-1.37-4.76-5.08
	c1.42,0.01,6.66,1.68,7.99,1.4c1.89-0.4,1.84-2.06,3.54-2.9c4.43-2.18,7.75-3.9,9.37-8.56c3.71-10.66-9.08-13.75,3.01-19.88
	C178.58,236.73,178.58,248.36,178.59,259.99z"/>
<path class="st203" d="M178.59,259.99c-0.01-11.63-0.01-23.26-0.02-34.89c-0.01-17.28-0.02-34.56-0.02-51.85
	c0.37-0.01,0.73-0.02,1.1-0.03c0.01,0.34,0.03,0.69,0.04,1.03c-0.03,27.02-0.03,54.04-0.12,81.07c-0.01,1.85,0.93,4.01-1.02,5.56
	C178.59,260.59,178.6,260.29,178.59,259.99z"/>
<path class="st164" d="M78.7,86.35c0.92-1.04,7.86-2.83,6.24-1.13C83.35,86.89,81.41,86.81,78.7,86.35z"/>
<path class="st204" d="M207.45,433.7c-0.65,0.01-1.3,0.05-1.95,0.04c-8.93-0.12-7.96,1.22-7.96-8.04c3.01-1.08,5.98-1.9,7.92,1.75
	c1.97-1.84,0.19-4.35,2.04-5.71C207.49,425.73,207.47,429.72,207.45,433.7z"/>
<path class="st205" d="M207.57,434.69c-0.01-0.32,0-0.63,0.02-0.95c5.64-0.01,21.94-2.92,25.91,1.25
	c2.39,2.52,0.29,17.11,0.09,20.65c0,6.98-0.01,13.95-0.01,20.93c-0.33,0.05-0.65,0.09-0.98,0.11c-0.02-12.41-0.15-24.82,0.03-37.22
	c0.05-3.61-0.86-5.02-4.69-4.86C221.15,434.89,214.36,434.69,207.57,434.69z"/>
<path class="st206" d="M232.6,476.68c0.33-0.03,0.65-0.06,0.98-0.11c5.14,0.02,20.26-2.53,23.95,1.02
	c3.54,3.41,1.02,20.33,1.01,24.91c-8.66,0.04-17.32,0.07-25.98,0.11C232.57,493.97,232.59,485.32,232.6,476.68z"/>
<path class="st155" d="M153.63,515.52c-3.94-2.09-3.94-4.74,0-7.98C153.63,510.2,153.63,512.86,153.63,515.52z"/>
<path class="st181" d="M226.17,257.9c-5.89-0.92,4.68-8.85,3.15-3.82C228.81,255.76,228.3,257.59,226.17,257.9z"/>
<path class="st181" d="M207.61,247.06c0-2,0-3.99,0.01-5.99c2.01,0.15,3,1.25,2.9,3.24C210.42,246.1,209.33,246.94,207.61,247.06z"
	/>
<path class="st207" d="M168.62,588.22c2.65,0.06,5.29,0.13,7.94,0.19c0,0.34,0,0.68,0,1.02c-8.64,0.03-17.28,0.06-25.92,0.1
	c-0.33-0.1-0.66-0.21-0.99-0.31c-0.01-0.23-0.01-0.47-0.02-0.7C155.96,588.41,162.29,588.32,168.62,588.22z"/>
<path class="st155" d="M140.89,536.5c-2.93-0.31-5.16-2.32-3.14-4.72c0.9-1.07,5.4-0.33,6.82-0.86c1.13-0.42,3.74-4.28,4.59-4.12
	c0.69,0.14,3.86,1.95,2.13,2.82C147.48,531.54,145.18,535.81,140.89,536.5z"/>
<path class="st112" d="M193.32,249c4.39,2.61,12.8-8.79,6.51,2.72c-0.85,1.55-3.35,5.73-5.21,6.28c-3.04,0.91-8.36-2.11-6.64-6.29
	C188.82,249.71,190.96,249.26,193.32,249z"/>
</svg>
