<?xml version="1.0" encoding="utf-8"?>
<!-- Generator: Adobe Illustrator 27.1.0, SVG Export Plug-In . SVG Version: 6.00 Build 0)  -->
<svg version="1.1" id="Layer_1" xmlns="http://www.w3.org/2000/svg" xmlns:xlink="http://www.w3.org/1999/xlink" x="0px" y="0px"
	 viewBox="0 0 433.89 739.98" style="enable-background:new 0 0 433.89 739.98;" xml:space="preserve">
<style type="text/css">
	.st0{fill:#000001;}
	.st1{fill:#010101;}
	.st2{fill:#535152;}
	.st3{fill:#636163;}
	.st4{fill:#545455;}
	.st5{fill:#020202;}
	.st6{fill:#010000;}
	.st7{fill:#565657;}
	.st8{fill:#787979;}
	.st9{fill:#535354;}
	.st10{fill:#3F3E3F;}
	.st11{fill:#515255;}
	.st12{fill:#010100;}
	.st13{fill:#030201;}
	.st14{fill:#020203;}
	.st15{fill:#010203;}
	.st16{fill:#010001;}
	.st17{fill:#545453;}
	.st18{fill:#767678;}
	.st19{fill:#1C1C1C;}
	.st20{fill:#232524;}
	.st21{fill:#010102;}
	.st22{fill:#575757;}
	.st23{fill:#010103;}
	.st24{fill:#555455;}
	.st25{fill:#544539;}
	.st26{fill:#030302;}
	.st27{fill:#312016;}
	.st28{fill:#002F32;}
	.st29{fill:#312117;}
	.st30{fill:#04242B;}
	.st31{fill:#01191C;}
	.st32{fill:#001A1C;}
	.st33{fill:#191001;}
	.st34{fill:#795632;}
	.st35{fill:#1E1301;}
	.st36{fill:#4A3725;}
	.st37{fill:#616162;}
	.st38{fill:#000101;}
	.st39{fill:#251801;}
	.st40{fill:#003133;}
	.st41{fill:#515252;}
	.st42{fill:#515152;}
	.st43{fill:#6F6E6C;}
	.st44{fill:#0D2E2F;}
	.st45{fill:#6D6C6C;}
	.st46{fill:#252A2B;}
	.st47{fill:#181719;}
	.st48{fill:#F8BA85;}
	.st49{fill:#3E07FE;}
	.st50{fill:#18100B;}
	.st51{fill:#161718;}
	.st52{fill:#D7A16D;}
	.st53{fill:#B68A60;}
	.st54{fill:#392C20;}
	.st55{fill:#250295;}
	.st56{fill:#5C4632;}
	.st57{fill:#414142;}
	.st58{fill:#836347;}
	.st59{fill:#190563;}
	.st60{fill:#6D6C6B;}
	.st61{fill:#1C0472;}
	.st62{fill:#2F2E2A;}
	.st63{fill:#3F06FC;}
	.st64{fill:#130553;}
	.st65{fill:#2704B4;}
	.st66{fill:#190667;}
	.st67{fill:#15055A;}
	.st68{fill:#4301FE;}
	.st69{fill:#DB9B67;}
	.st70{fill:#36383B;}
	.st71{fill:#E6A759;}
	.st72{fill:#F8B66A;}
	.st73{fill:#1E1519;}
	.st74{fill:#1C0761;}
	.st75{fill:#2C2D2D;}
	.st76{fill:#1B1D1D;}
	.st77{fill:#2B04A4;}
	.st78{fill:#454545;}
	.st79{fill:#61615E;}
	.st80{fill:#212122;}
	.st81{fill:#B37F51;}
	.st82{fill:#241F19;}
	.st83{fill:#33251B;}
	.st84{fill:#292A2A;}
	.st85{fill:#1D1C19;}
	.st86{fill:#5A5B5C;}
	.st87{fill:#785A3C;}
	.st88{fill:#5A595A;}
	.st89{fill:#9E7755;}
	.st90{fill:#443120;}
	.st91{fill:#25220F;}
	.st92{fill:#4C3B2C;}
	.st93{fill:#838282;}
	.st94{fill:#CF9462;}
	.st95{fill:#985C2F;}
	.st96{fill:#555657;}
	.st97{fill:#795D43;}
	.st98{fill:#101821;}
	.st99{fill:#42342F;}
	.st100{fill:#806C55;}
	.st101{fill:#7A5A3C;}
	.st102{fill:#674B33;}
	.st103{fill:#75563E;}
	.st104{fill:#C18A5A;}
	.st105{fill:#DFA56C;}
	.st106{fill:#452B00;}
	.st107{fill:#462C02;}
	.st108{fill:#011816;}
	.st109{fill:#6E6D6D;}
	.st110{fill:#D88B43;}
	.st111{fill:#754A2B;}
	.st112{fill:#442B01;}
	.st113{fill:#4105FE;}
	.st114{fill:#271A00;}
	.st115{fill:#401E01;}
	.st116{fill:#2D1D02;}
	.st117{fill:#3A352E;}
	.st118{fill:#835937;}
	.st119{fill:#C38B5A;}
	.st120{fill:#3500FA;}
	.st121{fill:#B48559;}
	.st122{fill:#A9845A;}
	.st123{fill:#2F1F15;}
	.st124{fill:#020401;}
	.st125{fill:#591F00;}
	.st126{fill:#712B01;}
	.st127{fill:#100E0A;}
	.st128{fill:#100A04;}
	.st129{fill:#4A108E;}
	.st130{fill:#6F3406;}
	.st131{fill:#141402;}
	.st132{fill:#3A1670;}
	.st133{fill:#5C2649;}
	.st134{fill:#461381;}
	.st135{fill:#1A0D00;}
	.st136{fill:#360896;}
	.st137{fill:#2D097C;}
	.st138{fill:#210678;}
	.st139{fill:#646362;}
	.st140{fill:#F7B984;}
	.st141{fill:#E6A26A;}
	.st142{fill:#C89971;}
	.st143{fill:#A17D60;}
	.st144{fill:#8F7764;}
	.st145{fill:#8F7057;}
	.st146{fill:#9F8067;}
	.st147{fill:#685648;}
	.st148{fill:#636362;}
	.st149{fill:#C79D76;}
	.st150{fill:#A68567;}
	.st151{fill:#FAB97E;}
	.st152{fill:#8C6547;}
	.st153{fill:#0F0A00;}
	.st154{fill:#765A3B;}
	.st155{fill:#25039C;}
	.st156{fill:#6101F4;}
	.st157{fill:#1E0579;}
	.st158{fill:#120C28;}
	.st159{fill:#78553D;}
	.st160{fill:#684A3A;}
	.st161{fill:#815E43;}
	.st162{fill:#543E2D;}
	.st163{fill:#2D08A7;}
	.st164{fill:#553D2B;}
	.st165{fill:#704F34;}
	.st166{fill:#DCA271;}
	.st167{fill:#F4B681;}
	.st168{fill:#E2A16A;}
	.st169{fill:#F9BD88;}
	.st170{fill:#E4A874;}
	.st171{fill:#F6BA86;}
	.st172{fill:#C58B60;}
	.st173{fill:#B97CB0;}
	.st174{fill:#702C01;}
	.st175{fill:#75140F;}
	.st176{fill:#452C00;}
	.st177{fill:#3C119F;}
	.st178{fill:#1B0397;}
	.st179{fill:#361288;}
	.st180{fill:#1E0775;}
	.st181{fill:#611076;}
	.st182{fill:#DE8849;}
	.st183{fill:#521860;}
	.st184{fill:#3A1337;}
	.st185{fill:#652534;}
	.st186{fill:#4009E3;}
	.st187{fill:#4C167D;}
	.st188{fill:#420BA0;}
	.st189{fill:#28059E;}
	.st190{fill:#391437;}
	.st191{fill:#FBFBFB;}
	.st192{fill:#7E5E44;}
	.st193{fill:#726D68;}
	.st194{fill:#F2B37D;}
	.st195{fill:#AD8D71;}
	.st196{fill:#C49B75;}
	.st197{fill:#887767;}
	.st198{fill:#684C35;}
	.st199{fill:#E9AF77;}
	.st200{fill:#9E7A59;}
	.st201{fill:#D49968;}
	.st202{fill:#E5AB78;}
	.st203{fill:#D49A68;}
	.st204{fill:#CF996A;}
	.st205{fill:#F3E3D1;}
	.st206{fill:#EEB280;}
	.st207{fill:#F5B983;}
	.st208{fill:#E5AA71;}
	.st209{fill:#EBD3BD;}
	.st210{fill:#A98B6C;}
	.st211{fill:#4B392C;}
	.st212{fill:#3F04FC;}
	.st213{fill:#614833;}
	.st214{fill:#866545;}
	.st215{fill:#8D8270;}
	.st216{fill:#C6C1BB;}
	.st217{fill:#EEB173;}
	.st218{fill:#986020;}
	.st219{fill:#1F2421;}
	.st220{fill:#F0EEEB;}
</style>
<g>
	<path class="st0" d="M245.26,501.74c-0.23-0.3-0.28-0.36-0.51-0.66c-5.2,0.02-10.41,0.03-15.61,0.05
		c-2.59,1.79-3.12,4.65-3.76,8.84c-1.65-3.76-3.46-5.9-3.34-8.84h-16.23c0.42,3.44-1.32,5.04-4.64,4.92
		c-3.67-0.13-2.05-3.07-2.46-4.92l-10.14,0c-0.56,1.89-1.13,3.79-1.89,6.34c-1.72-2.6-2.96-4.47-4.19-6.34
		c-8.74,0-17.48,0.03-26.22-0.05c-1.76-0.02-3.75,0.7-5.19-1.02c-0.02-0.32-0.03-0.63-0.02-0.95c0.06-10.32-9.02-13.53-15.22-18.98
		c-7.72-0.11-7.97-0.11-8-7.25c-0.01-4.16-2.4-3.94-5.19-3.77c2.8,4.02,0.3,9.67,3.63,13.06c2.5,2.55,10.06,0.18,10.83,3.45
		c-0.33-0.04-0.64-0.04-0.96-0.05c-0.84-3.19-8.21-0.86-10.65-3.4c-3.28-3.4-0.81-9.05-3.57-13.06c-2.35-0.41-4.9,0.78-7.07-0.93
		c-5.89-0.66-1.71-7.99-3.69-11.7c-3.21-6-8.54-2.18-13.22-5.31c-1.65-1.47-0.96-3.42-0.97-5.16c-0.06-18.26-0.05-36.52-0.06-54.79
		c-2.44,0.18-7.4-3.51-5.29,3.7c0.4,1.36-1.24,4.14-3.95,2.27c-1.03-0.71-1.21-2.37-2.56-2.93c-0.03,20.59-0.06,41.19-0.1,61.78
		c7.14,0.27,8.65,0.03,11.53,5.67c2.78,5.45-2.25,14.24,4.4,16.6c3.28,0,6.56-0.01,9.84-0.01c1.87,1.12,1.09,2.96,1.12,4.49
		c0.13,6.44,0.14,12.89,0.2,19.33c0.2,0.06,0.39,0.12,0.58,0.17c-0.11,12.27-0.23,24.53-0.34,36.8c0,11.67,0,23.34,0,35.01
		c0.06,19.38,0.06,38.77,0.25,58.15c0.03,3.21-1.22,3.95-4.15,3.82c-4.03-0.18-8.07-0.01-12.1,0.01l-0.16,11.76
		c-4.8,2.66-10.04,0.33-14.98,1.3c-0.12,4.09,1.01,8.44-2.52,10.6c-2.37,1.45-11.63-2.15-11.97,2.19
		c-0.1,6.36,1.14,12.78-0.75,19.08c-1.48,1.81-3.42,0.69-5.17,0.79c-1.66,0.01-3.33,0.03-4.99,0.04c-3.2,7.66-1.74,9.94,6.02,10.16
		c6.13,0.17,12.32-1,18.39,0.71c2.38,2.74-0.65,6.46,1.65,9.22c0.28,0.1,0.51,0.18,0.79,0.27c10.68-1.64,21.38,0.1,32.06-0.27
		c10.7-0.37,21.39-1.47,32.12-0.99c0.55-1.64-0.66-3.7,1.26-5.01c1.09-6.61,5.72-3.01,9.72-4.99c5.33-2.64,3.4-8.85,3.43-14.91
		c3.31-1.34,8.63-7.26,9.72-10.78c0.03-0.1,0.3-0.12,0.45-0.18c3.44-0.16,7.4,0.36,6.77-5.07c-1.5-3.96-0.31-8.07-0.69-12.1
		c0.04-10.66,0.07-21.32,0.11-31.98c-0.86-2.62-4.01-1.09-5.34-2.87c-0.62-0.03-1.23-0.07-1.85-0.1c-1.32-0.37-1.12-1.47-1.12-2.4
		c0.04-10.51,0.1-21.02,0.16-31.53c0-12.32,0-24.63,0.01-36.95c-0.07-9.11-0.15-18.22-0.21-27.32c-0.01-0.95-0.2-2.04,1.12-2.42
		c15.19-0.01,30.38-0.03,45.58-0.04c9.13-0.11,18.25-0.22,27.38-0.33C240.87,507.98,244.52,505.13,245.26,501.74z M126.93,521.31
		c0-8.03-5.41-36.3,8.45-35.72c-12.9,0.69-7.65,27.88-7.65,35.72c-3.48,0.01-6.01,0.46-7.72,0.41
		C121.66,521.66,123.94,521.31,126.93,521.31z M125.09,526.32c1.37-0.06,1.59,0.82,1.83,1.88c0.41,1.8-0.95,11.88-2.43,12.84
		c-0.84,0.55-4.94,2.18-5.24-0.53C119.23,540.26,124.96,526.38,125.09,526.32z M167.99,657.71c-1.76,7.89-2.49,1.93-7.17,4.58
		c-2.65,1.5-1.63,4.05-3.92,5.64c-8.73,2.32-7.99,0.03-11,7.02c-1.17,2.7,0.32,4.82-1.71,7.62c-1.55,2.14-6.63-2.04-6.29,3.37
		c0.47,5.87-23.61,3-27.79,3c-5.99,0-18.91,2.54-24.49-0.69c-4.5-2.61-4.5-6.98-3.9-12.1c1.28-10.95,6.6-2.39,11.23-9.18
		c0.26-8.93-1.43-7.9,8.14-7.98c2.28-0.02,4.56-0.02,6.84-0.02c6.34-7.88,5.7-9.96,16.93-10.01c7.74,0.17,7.57-5.01,7.08-10.43
		c-0.04-0.49,0.02-0.99,0.04-1.49c-0.36-0.37-0.72-0.73-1.09-1.1c-5.19,0.28-2.95-67.85-2.96-76.32c0-14.76-0.02-29.52-0.03-44.27
		c0-2.42-1.33-29.25,3.3-25.95c3.8,2.71,0.48,8.59,5.13,11.55c2.99,1.91,8.53-1.66,11.48,0.76c1.83,1.51,2.78,9.52,3.14,11.9
		c2.11,13.8-0.1,29.71-0.1,43.71c0,14.57,0.02,29.14,0.02,43.71c-0.01,5.15-2.54,19.6,0.07,24.27c3.65,6.54,6.1,0.38,5.73,10.91
		c0.01,4.16,0.02,8.33,0.04,12.49C160.5,654.3,170.75,645.31,167.99,657.71z"/>
	<path class="st1" d="M222.87,647.15c-3.56-0.51-6.52-1.08-6.15,4.6c0.56,8.51,0.14,8.53-8.85,8.06c-1.31,0.11-2.62,0.21-3.93,0.32
		c-0.71,5.27,1.14,10.7-1,15.88l-0.08-0.05c-4.82,2.22-9.94,0.37-14.88,1.11c-0.07,4.32-0.13,8.64-0.2,12.97
		c7.36,0.42,14.81-1.26,22.1,0.88c0.53,0.15,0.95,0.37,0.77,1.04c0.72,2.28,1.78,4.5,1.05,6.99c-0.11,2.92,0.53,5.02,4.18,3.83
		c1.54-2.29,4.57-4.02,1.8-7.59c-2.75-3.54-1.47-6.52,3.04-8.19c1.38-2,2.76-4,4.15-6c0-1.98-0.17-3.98,0.02-5.95
		c0.49-5.01-1.26-10.17,0.99-15.06l-0.01,0.01C226.55,655.32,225.08,651.15,222.87,647.15z"/>
	<path class="st2" d="M209.89,690.9c-7.29-2.14-14.74-0.46-22.1-0.88c4.49,1.96,9.2,0.56,13.8,0.88
		C204.34,691.1,207.12,690.92,209.89,690.9z"/>
	<path class="st3" d="M66.81,661.93c-0.23,0.03-0.45,0.05-0.68,0.08c-0.02,6.33-0.04,12.66-0.06,19
		C67.93,674.71,66.71,668.29,66.81,661.93z"/>
	<path class="st4" d="M203.95,660.12c-0.34-0.01-0.68-0.02-1.03-0.04c0.01,5.3,0.02,10.61,0.03,15.91
		C205.08,670.82,203.23,665.39,203.95,660.12z"/>
	<path class="st5" d="M364.29,581.55c0.31-3.18,0.81-8.31,1.12-11.49c-0.01-1.32-0.02-2.63-0.03-3.95c0-6.67,0.01-13.35,0.01-20.02
		l0.05-44.88c-0.4-0.42-0.66-0.69-1.06-1.11c-4.16-0.15-8.23,0.32-12.1,2.02c-0.04,19.66-0.09,39.32,0.07,58.98v52.08
		c0,0-1.42,0.02-2,0.03v-48.23c0-15.95,0.03-31.91,0.06-47.86c-0.04-4.96-0.08-9.91-0.12-14.87c-4.47-2.36-9.27-0.55-13.88-1.13
		c-0.1,10.33-0.21,20.65-0.31,30.98c0.02,21,0.04,42,0.05,63c-0.02,39.6-0.04,79.2-0.06,118.8c0.11,5.34,0.23,10.67,0.34,16.01
		c3.87,0.89,9.57,5.78,10.45-3.17c0.25-2.57-3.34-2.98-3.13-5.21c0.27-2.79,3.5-4.44,4.5-7.09c1.8-4.73,0.18-7.12-0.15-12.04
		c0.12-0.98,0.24-1.93,0.36-2.91c0.85-2.91,0.16-5.33-2.07-7.28c-0.17-2.01,2.68-4.37,2.24-5.95c-0.61-2.19-4.67-2.16-3.69-5.08
		c7.62,0.31,7.81-4.3,10.32,3.52c1.28,3.96-2.63,3.29,0.72,6.85c1.22,1.3,6.58,2.1,8.1,1.39c0.05-1.99,0.14-3.99,0.15-5.98
		c0.06-24.63,0.1-49.26,0.15-73.89c-0.05-7.45-0.25-14.91-0.08-22.36C364.36,587.67,363.75,584.57,364.29,581.55z"/>
	<path class="st6" d="M316.02,647.8c-0.15-0.23-0.25-0.49-0.29-0.76c-6.96-0.12-6.97-0.12-6.93-7.05c0.01-0.99,0.07-1.99,0.1-2.98
		c-2.18-7.32-0.81-14.77-0.88-22.17c-1.57-1.54-3.46-0.63-5.22-0.66c3.36,8.94-3.58,4.73-3.68,9.49c-0.05,2.36,3.63,2.38,4.05,5.27
		c0.35,2.35-2.27,5.17-2.14,8.02c0.22,4.76,7.12,14.66,2.18,18.87c-6.21,5.29-3.35-5.75-5.39-7.85c-0.04,6.79,1.23,10.6-4.87,13.5
		c-3.03,1.44-6.44-0.89-8.9,2.1c-2.19,2.67,0.99,8.04-1.23,11.34c-11.84,0.36-11.84,0.36-11.96,12.07c0,0.33-0.02,0.66-0.03,0.99
		c-4.06,2.26-26.28,3.83-10.92,7.38c4.32,1,7.83,1.46,11.62-0.72c3.2-1.84,3.52-6.98,7.41-3.64c3.68-0.57,7.53,1,11.1-0.9
		c-0.08-4.22-0.2-8.45-0.21-12.67c0-1.19-0.15-3.05,2.05-1.55c10.6-0.12,11.08,2.86,10.93-10.42c-0.01-1.15,0.01-2.3,0.01-3.45
		c1.65-3.23,10.4,0.38,13.21-2.62C318.69,656.52,317.12,651.08,316.02,647.8z"/>
	<path class="st7" d="M363.9,613.07c-0.05,24.63-0.09,49.26-0.15,73.89c0,1.99-0.1,3.99-0.15,5.98c0.1,1.66,0.2,3.32,0.3,4.99
		c0.23,0,0.45,0.01,0.68,0.01c0.01-28.32,0.01-56.63,0.02-84.95C364.38,613.01,364.14,613.04,363.9,613.07z"/>
	<path class="st8" d="M334.64,714.92c0,4-0.01,7.99-0.01,11.99c0.05,2.45,0.12,4.89,0.16,7.34c0.03,1.62-0.26,3.39,2,3.86
		c1.33,0,2.66,0,4,0c6.44-0.06,12.89-0.05,19.32-0.22c1.49-0.04,3.36,0.9,4.45-1.05c-0.31,0.01-0.61-0.01-0.92-0.04
		c-7.1,0.06-14.21,0.12-21.31,0.17c-6.74,0.04-6.74,0.03-6.37-7.06c-0.11-5.34-0.23-10.67-0.34-16.01
		c-0.22,0.02-0.44,0.03-0.67,0.05C334.84,714.27,334.74,714.6,334.64,714.92z"/>
	<path class="st9" d="M363.63,736.8c0.3,0.03,0.61,0.04,0.92,0.04c0.02-12.97,0.03-25.93,0.05-38.9c-0.23,0-0.45,0-0.68-0.01
		C363.82,710.89,363.72,723.85,363.63,736.8z"/>
	<path class="st10" d="M363.9,613.07c0.24-0.03,0.47-0.06,0.71-0.07c0.11-8.32,0.21-16.63,0.32-24.95
		c-0.11-3.02-0.21-6.04-0.32-9.06c-1.74,3.8-0.71,7.82-0.79,11.72C363.66,598.16,363.85,605.62,363.9,613.07z"/>
	<path class="st0" d="M364.81,500.12c0.07-4.15,0.08-8.29,0.25-12.44c0.05-1.17-0.73-2.73,1.05-3.43c7.74-0.3,6.4,0.13,8.91-5.79
		c0.62-1.45-0.84-3.73,0.37-5.24c1.54-1.93,6.04-0.03,6.74-2.03c-0.44-2.86,1.19-3.21,3.52-3.14c5.4,0.15,10.81,0.12,16.22,0.17
		c2.24,2.04,0.89,4.66,1.09,7.01c0.54,6.22-1.22,12.57,1.03,18.7c7.33,0.08,14.66,0.16,21.99,0.24l-0.12-0.26
		c0.03-9.04-0.03-18.08,0.14-27.11c0.06-3.25-1.22-6.7,1.62-9.7c0.23-2.6,0.38-4.28,0.61-6.88c-2.98-3.99-8.17-1.83-11.27-4.15
		c-3.12-2.33,0.76-5-5.92-5.05c-4.17,0.56-0.64-5.71-2.6-7.3c-3.18-2.57-5.13-0.9-10.45-2.09c-3.39,0.13-6.62,0.25-10.01,0.37
		c-3.2,1.05-3.02-1.23-3.01-3.25c0.02-17.54,0.06-35.08,0.1-52.62c-0.03-2.21-0.26-4.36-1.84-6.11c-1.81-0.84-1.24-2.5-1.26-3.88
		c-0.05-3.94,0.01-7.87,0.03-11.81c-1.1-10.93-3.38-22.52-3.99-33.29c-0.16-2.86,1.97-9.47,0.94-11.44
		c-1.41-2.68-8.23-7.31-8.97-1.43c0.29,0.39,0.58,0.78,0.87,1.17c-0.01,13.28-0.01,26.57-0.02,39.85
		c-0.08,5.04,1.03,10.14-0.66,15.11c-5.14,5.3,5.79,9.12-4.46,9.95c0.31,1.03,0.09,2.32,1.34,2.92c3.9-0.68,5.18,0.89,5.05,4.85
		c-0.28,8.72-0.12,17.45-0.13,26.17c3.85,2.88,2.75,40.24-0.84,43.95c-3.54,2.41-8.22-0.69-11.39,1.78
		c-2.44,1.9,0.61,7.65-1.72,10.23l-0.02,0.01c-3.52,1.82-7.3,0.67-10.95,0.86c-2.03,0.11-3.84,0.2-4.98,2.14l-0.08-0.05
		c-7.24,2.82-8.96,1.78-8.98-5.42c-0.01-2.83-0.06-5.66-0.09-8.49c-3.3-0.61-6.81,0.93-9.99-0.96c-1.11-0.6-0.91-1.67-0.91-2.62
		c0.04-9.78,0.1-19.56,0.15-29.34c-6.84-0.16-9.25-1.68-12.21,3.74c-2.19,4-0.37,18.22-0.01,22.89c0.22,2.8-0.39,4.43,1.17,6.89
		c0.65,1.04,4.74,0.21,5.69,1.45c2.74,3.61,1.7,10.86-0.61,13.71c-0.89,1.1-3.73,0.81-5.17,2.83c-1.23,1.72,0.96,4.9-0.15,6.64
		c-2.43,3.78-5.83,1.8-9.34,3.97c-1.37,0.84-0.67,4.08-2.79,5.26c-2.28,1.28-5.8-1.08-7.76,0.11c-4.48,2.72-2.83,7.73-2.97,12.33
		c-1.46,1.64-3.41,0.95-5.15,0.97c-8.61,0.08-17.22,0.05-25.83,0.06c-0.01,9.96,0,9.82,9.98,10.02c4.66,0.1,9.45-1.1,14,0.88
		c10.42-1.56,5.97,22.22,5.98,28.42c0.02,11.93,1.13,22.93,0.04,34.58c1.64,0.19,4.43-0.08,2.94,2.6c-1.33,2.4-1.5,5.13-2.95,7.39
		c0.01,16.32,0.01,32.64,0.02,48.96c2.08-0.06,3.27,1.97,5.44,2.08c4.27,0.22,6.1,2.8,5.47,7.09c0.16,1.62,0.39,4.08,0.55,5.7
		c1.08,3.28-0.67,11.72,4.91,6.97c4.95-4.21-1.96-14.11-2.18-18.87c-0.13-2.84,2.48-5.67,2.14-8.02c-0.42-2.89-4.1-2.92-4.05-5.27
		c0.1-4.74,6.97-0.6,3.73-9.35c-0.26-0.16-0.44-0.27-0.69-0.43c-3.66,0.28-1.85-1.85-2.53-2.88c-5.46-0.62-1.31-11.45-2.83-14.96
		c-1.24-2.86-7.79-5.94-6.86-7.55c6.22,2.14,4.65-2.15,5.7-5.44c0.43-2.08,0.86-4.16,1.29-6.24c0.31-2.36-0.48-4.3-2.37-5.83
		c0.33-2.51,2.35-2.92,2.75-5.68c-0.27,1.89-1.53-7.42-0.96-5.97c-0.47-1.18-3.04-4-3.44-5.17c-2.09-6.2-0.03-6.64,2.12-12.18
		c2-5.15-1.77-17.41,3.72-19.57c0.77-1.63,1.17-2.5,1.94-4.13c-1.96-4.93-0.72-10.06-0.85-15.09c-0.07-2.59-1.14-5.53,1.13-7.86
		c1.08-0.03,8.84,0.63,9.94-0.4c1.49-1.4-0.37-4.14,0.56-5.21c3.81-4.38,5.61-2.62,11.18-4.7c-0.51-3.98,1.12-5.62,5.17-4.92
		c1.6,0.28,3.28,0.14,4.92,0.2c0.29-0.19,0.59-0.2,0.9-0.04c2.34,5.55,0.69,11.32,0.97,16.99l0.05-0.03
		c1.68,0.89,0.84,2.6,1.26,3.89c4.61,0.57,9.42-1.24,13.88,1.13c0.29-0.08,0.58-0.09,0.87-0.05c0.37-0.05,0.93-0.12,1.3-0.17
		C356.24,500.31,360.47,499.89,364.81,500.12z"/>
	<path class="st11" d="M381.78,354.35c-0.02,3.94-0.08,7.88-0.03,11.81c0.02,1.38-0.56,3.04,1.26,3.88
		c-0.43-5.25-0.46-10.5,0.02-15.75c-0.17-0.03-0.34-0.05-0.5-0.07C382.28,354.27,382.03,354.31,381.78,354.35z"/>
	<path class="st12" d="M382.15,354.22c0.35-0.07,0.7-0.12,1.06-0.17c0.33-0.38,0.54-0.61,0.88-0.99
		c-0.01-13.71-0.01-27.41-0.02-41.12c0-3.28,0.22-6.59-0.97-9.75l0.11-0.13c-6.03-0.34-12.15,1.24-18.09-0.9l-0.05,0.03
		c-1.76-1.63-0.9-3.76-0.9-5.63c-0.09-29.38-0.1-58.75-0.13-88.13c-8.59-0.3-6.18,0.13-9.93-4.88c-2.07-2.77-4.9-8.05-5.97-11.44
		c-3.22,0.01-8.52,1.67-10.74-1.21c-1.82-2.36,0.52-5.88-1.47-8.63c-1.66,0.14-2.21,0.18-3.86,0.32c-3.71,7.01-9.95,1.88-14.33,3.56
		c-5.77,2.21-0.68,5.86-4.39,10.13l0.01,2.86c1.73,0.04,5.72-0.49,7.49,0.2c1.41,0.55,1.74,2.47,2.57,2.84
		c1.28,0.57,8.35,1.66,9.79,2.97c1.85,1.37,0.41,3.46,1.11,5.08c0.28,4.8,3.23,5.43,7.3,5.13c2.11-0.16,4.62-1.15,6.48,1
		c1.81,3.37,0.68,7.33,2.17,10.76c1.84,6.99,2.83,14.02,0.79,21.15l0.19-0.07c1.03,0.86,0.92,2.06,0.92,3.22
		c-0.03,19.28-0.07,38.55-0.1,57.83l0,0.07c6.03-0.08,12.05-0.15,18.08-0.23c0.74-5.88,7.57-1.25,8.97,1.43
		c1.03,1.97-1.1,8.58-0.94,11.44C378.77,331.7,381.05,343.29,382.15,354.22z"/>
	<path class="st13" d="M312.98,195.4c3.71-4.26-1.38-7.92,4.39-10.13c4.41-1.69,10.71,3.53,14.41-3.71c-4.29-0.83-8.83,1.13-13-1.14
		l-0.12,0.07c-3.23-3.57,1.4-10.06-2.42-13.3c-1.98-1.67-9.55,1.12-8.52-2.82c-0.54-3.04,1.78-6.67-1.88-9.06
		c-4.18,0.96-5.63-0.77-5.1-4.88c0.25-1.92-0.05-3.92-0.1-5.88c-0.49-0.04-0.98-0.11-1.47-0.12c-11.47-0.16-11.47-0.16-11.31-11.93
		c0.71-2.6,9.34,0.1,11.41-1.63c3.56-2.97,1.57-11.12,1.42-15.39c-4.93,0.02-9.86,0.04-14.8,0.06
		c-0.11,14.55,1.28,15.84-14.06,16.01c-0.64,5.59,1.26,11.34-1.07,16.82c-3.67-0.02-7.34-0.04-11.01-0.06
		c-3.01,0.67-6.29-0.94-9.13,1.09c0.02,0.66,0.03,1.33,0.05,1.99c0.01,3.66,0.03,7.32,0.04,10.98c2.99,0.49,6.15-0.84,9.03,0.82
		c2.54,0.07,11.96,1.95,14.13,0.05c2.79-2.45-0.81-8.45,1.02-11.11c1.53-2.21,8.48-2.95,10.73-0.3c1.62,1.9,0.25,10.1,0.28,12.39
		c5.33,0.76,10.8-0.78,16.07,0.97c1.84,4.26,0.43,8.68,0.68,13.02c-1.61,3.05-8.42-0.71-6.46,5.4c1.29,4.03,12.1,0.91,15.63,2.62
		C313.88,189.1,312.2,192.4,312.98,195.4z"/>
	<path class="st14" d="M313.82,115.14l0.47,0.13l0.47-0.14c0.01-6.73,1.85-16.31,0.1-22.76c-2.39-8.82-7.31-1.77-14.07-5.92
		c-3.42-6.65,2.95-18.62-4.36-22.68c-2.72-1.51-8.49,1.19-10.91-1.09c-2.2-2.07-0.82-11.35-0.87-14.19
		c-3.85,1.54-7.84,0.82-11.79,0.7c-6.47,0.07-12.95,0.28-19.42,0.16c-2.89-0.05-5.98,1.05-8.67-0.97c-2.46,2.56-5.45,3.3-8.96,3.05
		c-3.62-0.25-7.27-0.05-10.91-0.05c1.84,1.88,4.15,0.62,6.23,0.88c0.65,0.05,1.7,0.13,2.35,0.17c7.19-0.23,7.19-0.35,7.3,6.46
		c0.01,0.48,0.06,0.96,0.09,1.45c5.93,0.01,11.86,0.02,17.79,0.02c13.15,0,13.15,0,13.15,13l0,0c3.29-0.07,9.6-1.77,12.37,0.22
		c4.33,3.09,1.2,5.14,2.7,9.27c3.45,9.45,5.7,1.17,12.88,6.55c0.03,3.97,0.05,7.94,0.08,11.91c2.94,3.08-1.07,8.76,2.38,11.56
		C305.33,115.38,311.95,110.49,313.82,115.14z"/>
	<path class="st15" d="M184.85,2.41c-16.68,0.06-33.35,0.09-50.03,0.23c-1.66,0.01-3.66-0.97-4.99,0.98
		c-0.02,1.97-0.04,3.94-0.07,5.91c0.17,0.28,0.19,0.57,0.07,0.88c-0.56,1.36-1.84,1.06-2.9,1.28c-0.1,1.9,0.57,3.52,1.83,4.92
		c1.05-1.62,2.8-0.67,4.17-1.13c4.43-4.9,30.63-0.93,37.28-0.93c6.79-0.01,33.2-4.09,37.75,0.95c0.31,0.02,0.63,0.04,0.94,0.06
		c3.67-1.04,7.34-2.07,11.01-3.11c-0.42-2.6,0.74-5.45-1.21-7.81c-1.54-0.92-3.08-1.85-4.63-2.77c-0.39,0.29-0.77,0.59-1.16,0.88
		c-2.47,2.79-4.67,6.03-9.83,5.64c2.81-1.44,5.14-2.54,4.73-5.67C200.16,2.61,192.5,2.51,184.85,2.41z"/>
	<path class="st16" d="M219.91,12.45c-3.67,1.04-7.34,2.07-11.01,3.11c-1.93,6.88-0.74,13.89-0.94,20.85
		c5.29,0.12,10.58,0.24,15.87,0.36c2.11,4.79,0.35,9.87,1.07,14.77c3.64,0,7.29-0.2,10.91,0.05c3.51,0.25,6.5-0.49,8.96-3.05
		c0.03-5.49-0.13-11,0.15-16.48c0.24-4.66-1.38-7.59-6.14-8.41c-0.33-0.03-0.65-0.13-0.94-0.3c-1.79-0.34-0.46-1.94-1.1-2.74
		c-0.36-0.35-0.71-0.69-1.07-1.04c-2.71-2.87-5.74-4.78-9.98-4.05c-1.99,0.34-3.59-0.45-3.84-2.8
		C221.21,12.62,220.56,12.54,219.91,12.45z M214.26,33.56c-1.06-0.2-3.14,0.23-2.78-1.12c-0.01,0.05,5.28-5.46,5.6-4.44
		C218.12,31.36,217.77,33.19,214.26,33.56z"/>
	<path class="st17" d="M364.15,207.57c0.03,29.38,0.04,58.75,0.13,88.13c0.01,1.88-0.86,4,0.9,5.63c0.07-0.35,0.15-0.71,0.22-1.06
		c0-15.31-0.06-45.92-0.06-45.92v-4l1-11.97l-1-4.02v-9.97c0,0-0.18-11.29-0.29-16.94C364.75,207.4,364.44,207.43,364.15,207.57z"/>
	<path class="st18" d="M246.84,48.38c-2.15-2.59-0.68-5.6-0.89-8.4c-0.41-5.41,0.43-10.87-0.43-16.28
		c-2.24-0.02-4.49-0.04-6.73-0.05c4.76,0.83,6.38,3.75,6.14,8.41c-0.28,5.48-0.12,10.98-0.15,16.48c2.69,2.03,5.78,0.92,8.67,0.97
		c6.47,0.12,12.94-0.09,19.42-0.16c-0.47-0.84-1.34-0.75-2.11-0.89C262.78,48.43,254.81,48.4,246.84,48.38z"/>
	<path class="st19" d="M313.82,115.29c-1.86-4.65-8.49,0.23-11.58-2.27c-3.45-2.8,0.55-8.48-2.39-11.56
		c-0.64,4.74,2.15,9.67-2.38,12.81c-2.8,1.93-8.3,0.14-11.6,0.29c0.01,0.33,0.02,0.67,0.03,1c4.93-0.02,9.86-0.04,14.8-0.06
		c1.61-1.59,1.95-0.49,2.1,0.99C306.34,114.83,310.16,115.84,313.82,115.29z"/>
	<path class="st20" d="M315.62,86.66c-4.94-0.02-9.88-0.04-14.82-0.05c6.76,4.15,11.68-2.9,14.07,5.92
		c1.75,6.45-0.09,16.03-0.1,22.76l0.43,0.16c0,0,0.45-0.05,0.45-0.05C315.63,105.81,315.63,96.23,315.62,86.66z"/>
	<path class="st21" d="M78.93,50.43c-4.63,0.06-9.25,0.12-13.88,0.18c-0.08,6.61-0.16,13.22-0.24,19.84
		c0.04,11.45,0.14,22.9,0.08,34.35c-0.01,2.24,0.78,4.64-0.73,6.75c-1.57,2.9-4.34,1.77-6.68,1.89c-2.82,0.15-5.66,0.08-8.49,0.1
		c0.06,17.57,0.12,35.14,0.18,52.71c4.56,0.11,9.12,0.23,13.68,0.34c0.35,0.01,0.7,0.03,1.05,0.04c0.05-15.35,0.1-30.7,0.15-46.05
		c4.05-2.05,8.47-1.94,12.83-2.16c0.48-6.62-0.69-13.29,0.72-19.87c0.12-13.68,0.21-27.36,0.39-41.04c0.02-1.72-0.7-3.67,0.95-5.12
		C78.95,51.73,78.94,51.08,78.93,50.43z"/>
	<path class="st22" d="M64.17,111.54c1.51-2.11,0.72-4.51,0.73-6.75c0.06-11.45-0.04-22.9-0.08-34.35
		c-0.22,0.04-0.45,0.08-0.67,0.12C64.15,84.22,64.16,97.88,64.17,111.54z"/>
	<path class="st23" d="M114.11,17.56c-0.11,0.67-0.22,1.33-0.33,2c-0.02,1.44,0.92,3.06-0.76,4.21c-1.39,1.3-3.11,0.73-4.68,0.75
		c-11.29,0.1-11.29,0.08-11.38,11.03c5.7,0.03,11.39,0.06,17.09,0.09c4.92-4.5-2.42-6.46,5.83-8.15c7.61-1.55,7.53,1.57,7.94,7.06
		c1.51,1.51,2.68,1.6,3.25-0.79c-0.7-2.34-1.44-4.68-1.15-7.18c-0.28-0.38-0.57-0.75-0.85-1.13c-0.1-0.64-0.2-1.27-0.31-1.91
		c-1.55,0.16-2.81-0.81-4.21-1.1C120.65,21.65,118.45,17.31,114.11,17.56z"/>
	<path d="M114.11,17.56c4.34-0.25,6.54,4.09,10.44,4.89c1.4,0.29,2.66,1.26,4.21,1.1c0.13-2.35,0.26-4.7,0.39-7.04l-0.4,0.1
		c-1.26-1.4-1.93-3.02-1.83-4.92c-4.26-0.01-8.52-0.01-12.79-0.01c0,0-0.3-0.15-0.3-0.15C113.93,13.54,114.02,15.55,114.11,17.56z"
		/>
	<path class="st23" d="M78.93,50.43c0.01,0.65,0.02,1.3,0.03,1.95c5.96-0.03,11.92-0.05,17.88-0.08c0.08-5.25,0.16-10.5,0.24-15.74
		c-0.41-0.04-0.81-0.08-1.22-0.13c-5.21,0.11-10.43,0.21-15.64,0.32C79.13,41.25,81.27,46.05,78.93,50.43z"/>
	<path class="st21" d="M50,369.13c2.14-4.19,0.48-8.65,0.91-12.96c-1.35-2.28,0.54-1.98,1.7-2.01c4.07-0.11,8.14-0.13,12.21-0.18
		c0.42-6.41,0.13-5.66,4.2-8.95c3.18-2.57,6.57,0.34,4.06-5.75c-0.03-0.52-0.06-1.01-0.09-1.53c0.98-2.73-2.83-8.21,4.15-7.5
		c4.46,0.63,6.58-0.86,5.87-5.76c-0.19-1.32-1.65-4.23,1.93-4.27c-2.39-1.55-5.06-2.03-7.85-2.06c-0.44,1.33,0.35,2.96-1.02,4.06
		c-0.75,1.29-2.02,0.88-3.12,0.93c-8.26,0.33-8.26,0.32-7.8,9.02c2.53,3.43,2.43,7.34-0.38,8.97c-3.1,1.79-4.06-0.4-4.78-2.84
		c-3.66-0.05-7.33-0.11-10.99-0.16c0.04,2.33,0.08,4.65,0.13,6.98c6.82-3.07,5.07,8.93-0.25,5.96c-1.34,1.2-2.98,1.14-4.6,1.04
		c-3.97-0.26-7.98-0.62-8.22,5.11c-1.13,1.38-2.72,0.65-4.1,0.9c0.02,2.57,0.19,5.16,0.01,7.72c-0.17,2.39,1.07,3.11,3.08,3.3
		C40.02,369.13,45.01,369.13,50,369.13z"/>
	<path class="st24" d="M84.12,373.23c-0.06,24.24-0.11,48.47-0.17,72.71c-0.01,3.1,0.18,6.23-0.96,9.21
		c0.68,0.3,1.36,0.59,2.04,0.89c0.03-20.59,0.06-41.19,0.1-61.78c-0.1-7-0.21-14.01-0.31-21.01
		C84.58,373.24,84.35,373.24,84.12,373.23z"/>
	<path class="st25" d="M35.03,369.27c-2-0.19-3.25-0.91-3.08-3.3c0.18-2.56,0.01-5.15-0.01-7.72c-0.35,0.4-0.7,0.8-1.05,1.2
		c0.34,9.33,0.34,9.33-6.75,10c-0.07,0.23-0.15,0.47-0.22,0.7c10.59,0.44,10.59,0.44,10.02,11.45c-0.03,0.49-0.01,0.98-0.01,1.46
		c1.65-0.23,2.03-1.47,2.26-2.83c-0.73-3.26,0.81-6.76-1.07-9.9C35.09,369.97,35.06,369.62,35.03,369.27z"/>
	<path class="st26" d="M280.82,512.05c-4.55-1.99-9.34-0.79-14-0.88c-9.98-0.21-9.98-0.06-9.98-10.02c-4.67,0-9.33-0.01-14-0.01
		c-0.37,3.66-4.56,6.61-2,10.81c0.3,0.11,0.59,0.23,0.89,0.36c2.57,5.45,0.5,11.17,0.95,16.75c2.64,16.98,0.18,36.22,0.2,53.41
		c0.01,6.22,4.07,47.83-1.25,50.38c-0.99,1.36-2.35,1.32-3.78,0.99c-2.62,0.07-5.25,0.14-7.87,0.21c-0.04,2.98-0.07,5.96-0.14,8.94
		c-0.04,1.57,0.47,3.47-1.98,3.81c-1.66,0.12-3.32,0.24-4.99,0.36c2.2,4,3.68,8.17,3,12.84c5.33,0,10.65-0.01,15.98-0.01
		c0-3.57-0.49-7.6,2.57-10.08c2.92-2.36,7.8,0.7,10.52-0.94c4.61-2.79,2.9-8.27,2.94-13.99c-0.01-39.16,0.06-78.33-0.13-117.49
		c-0.02-4.52,1.35-5.74,5.65-5.47c5.79,0.36,11.61,0.12,17.42,0.13L280.82,512.05z"/>
	<path class="st27" d="M150.89,601.02c0-14.57-0.02-29.14-0.02-43.71c0-13.99,2.21-29.9,0.1-43.71c-0.36-2.39-1.31-10.4-3.14-11.9
		c-2.94-2.42-8.48,1.15-11.48-0.76c-4.64-2.96-1.33-8.84-5.13-11.55c-4.64-3.3-3.31,23.53-3.3,25.95
		c0.01,14.76,0.02,29.52,0.03,44.27c0,8.47-2.23,76.6,2.96,76.32c-4.68-4.27-1.99-16.81-1.98-22.65c0.01-9.63,0.01-19.26,0.01-28.89
		c0-3.66-2.29-19.92-0.03-22.5c2.55-2.92,6.36,2.38,8.74,4.37c2.68,2.23,11.55,6.11,9.89,10.11c-1.5,3.61-5.51-0.21-6.56,5.61
		c-1.54,8.51,4.89,3.55,7.54,6.59C151.14,591.58,146.37,597.94,150.89,601.02z M128.95,550.62c0.35-0.54,0.52-0.8,0.69-1.07
		c1.84,1.77,9.61-1.09,9.94,2.71C140.04,557.74,130.05,552.01,128.95,550.62z"/>
	<path class="st28" d="M107.93,658.96c-2.28,0.01-4.56,0-6.84,0.02c-9.57,0.08-7.87-0.95-8.14,7.98c-0.6,2.47-1.78,15.79-0.54,17.62
		c2.38,3.49,5.98,1.73,10.31,1.49c10.43-0.58,25.6,4.23,35.19-0.14c-0.35-5.41,4.74-1.23,6.29-3.37c2.03-2.8,0.55-4.91,1.71-7.62
		c3.01-6.99,2.27-4.7,11-7.02c0-5.95,0.91-7.52-4-9.66c-4.07-1.77-16.19,0.52-21.09,0.64c-2.25,0-4.51-0.01-6.76-0.01
		C119.35,658.93,113.64,658.94,107.93,658.96z"/>
	<path class="st29" d="M150.89,601.02c-4.52-3.08,0.25-9.44-2.37-12.45c-2.65-3.04-9.08,1.92-7.54-6.59c1.05-5.82,5.06-2,6.56-5.61
		c1.66-4.01-7.21-7.88-9.89-10.11c-2.38-1.99-6.19-7.29-8.74-4.37c-2.26,2.59,0.03,18.85,0.03,22.5c0,9.63,0,19.26-0.01,28.89
		c-0.01,5.84-2.71,18.38,1.98,22.65c0.36,0.37,0.72,0.73,1.08,1.1c0.22-0.02,0.44-0.04,0.66-0.07c7.96-2.05,16.03-0.62,24.04-0.76
		c0.37-10.53-2.07-4.37-5.73-10.91C148.35,620.62,150.89,606.17,150.89,601.02z"/>
	<path class="st30" d="M131.81,658.92c4.9-0.12,17.02-2.41,21.09-0.64c4.91,2.14,4,3.71,4,9.66c2.29-1.6,1.27-4.14,3.92-5.64
		c4.68-2.65,5.41,3.31,7.17-4.58c2.76-12.4-7.49-3.41-11.26-9.02c-7.91,0.04-15.82,0.07-23.73,0.1
		C130.8,651.96,132.52,655.58,131.81,658.92z"/>
	<path class="st31" d="M137.9,685.94c-9.59,4.37-24.76-0.45-35.19,0.14c-4.32,0.24-7.93,2-10.31-1.49
		c-1.24-1.83-0.05-15.15,0.54-17.62c-4.63,6.79-9.95-1.76-11.23,9.18c-0.6,5.12-0.6,9.5,3.9,12.1c5.57,3.23,18.5,0.69,24.49,0.69
		C114.29,688.94,138.38,691.81,137.9,685.94z"/>
	<path class="st32" d="M107.93,658.96c5.71-0.02,11.41-0.03,17.12-0.05c-0.06-3.32-0.12-6.64-0.19-9.96
		C113.63,649,114.28,651.08,107.93,658.96z"/>
	<path class="st1" d="M83.76,702.01c4,3.93,61.88,1.08,62.01-1.08c-10.58-0.48-21.1,0.62-31.65,0.99
		C104,702.28,93.87,700.69,83.76,702.01z"/>
	<path class="st33" d="M236.85,499.87c-1.33-0.03-2.66-0.06-3.99-0.08c-1.33,0-2.67,0-4,0c-26.31,0-52.61,0-78.92,0
		c1.42,1.72,3.39,1.01,5.12,1.02c8.61,0.08,17.23,0.04,25.84-0.66l5.99,0l9.99,1l6.99,0l15.99,0h6.99c3.33-0.3,6.67-0.31,10-0.33
		C236.85,500.49,236.85,500.18,236.85,499.87z"/>
	<path class="st0" d="M125.09,526.32c-0.13,0.06-5.86,13.94-5.83,14.19c0.3,2.7,4.4,1.07,5.24,0.53c1.47-0.96,2.83-11.05,2.43-12.84
		C126.69,527.13,126.46,526.26,125.09,526.32z"/>
	<path class="st34" d="M133,648.8c7.91-0.03,15.82-0.07,23.73-0.1c-0.01-4.17-0.02-8.33-0.04-12.49
		c-8.02,0.13-16.09-1.29-24.04,0.76c0,0,0.43,0.08,0.43,0.08c7.1-0.01,21.84-3.81,22.89,4.74c1.26,10.37-16.09,6.12-22.94,6.09
		C132.99,648.17,132.98,648.49,133,648.8z"/>
	<path class="st35" d="M236.85,500.16c0,0.31,0.01,0.63,0.01,0.94c2,0.01,3.99,0.02,5.99,0.04c4.67,0,9.33,0.01,14,0.01
		c8.61-0.01,17.22,0.02,25.83-0.06c1.74-0.02,3.69,0.67,5.15-0.97C270.82,500.13,253.84,500.15,236.85,500.16z"/>
	<path class="st36" d="M133,648.8c-0.02-0.31-0.01-0.62,0.03-0.93c0.02-3.61,0.03-7.22,0.05-10.83c0,0-0.43-0.08-0.43-0.08
		c-0.22,0.03-0.44,0.05-0.66,0.07c-0.02,0.5-0.09,1-0.04,1.49c0.49,5.42,0.66,10.6-7.08,10.43c0.06,3.32,0.12,6.64,0.19,9.96
		c2.25,0,4.51,0.01,6.76,0.01C132.52,655.58,130.8,651.96,133,648.8z M125.86,653.29c0.58-1.33-1.01-4.02,2.33-4.23
		C135.13,648.61,127.55,665.87,125.86,653.29z"/>
	<path class="st37" d="M168.73,579.07c-0.23-0.02-0.45-0.04-0.67-0.06c-0.06,10.51-0.12,21.02-0.16,31.53c0,0.93-0.2,2.03,1.1,2.4
		C168.91,601.66,168.82,590.37,168.73,579.07z"/>
	<path class="st0" d="M203.88,501.13c-2.33,0-4.66,0-6.99,0c0.4,1.85-1.2,4.78,2.42,4.92C202.57,506.17,204.29,504.57,203.88,501.13
		z"/>
	<path class="st0" d="M226.85,501.13c-2.33,0-4.66,0-6.99,0c-0.12,2.94,1.66,5.08,3.29,8.84
		C223.77,505.78,224.3,502.92,226.85,501.13z"/>
	<path class="st0" d="M186.89,501.13c-2,0-3.99,0-5.99,0c1.22,1.87,2.43,3.74,4.13,6.34C185.78,504.92,186.33,503.03,186.89,501.13z
		"/>
	<path class="st38" d="M84.81,373.25c0.1,7,0.21,14.01,0.31,21.01c1.35,0.57,1.54,2.23,2.56,2.93c2.72,1.87,4.35-0.91,3.95-2.27
		c-2.11-7.21,2.85-3.52,5.29-3.7c0.02-5.33,0.04-10.66,0.07-16c-1.26-11.68-0.09-23.55-0.1-35.27c-0.01-5.03-3.36-25.81,1.06-29.66
		c2.15,0,4.31,0.16,6.44-0.04c2.62-0.25,5.76,1.29,7.63-1.94c-0.03-4.34-0.06-8.67-0.08-13.01c-0.01-3.32,0.05-6.64-0.04-9.95
		c-0.06-2.14,0.42-6.92-2.42-7.52c-19.43,0.04-7.88,18.31-14.97,19.46c-3.55,2.03-0.83,0.35-4.49,0.95
		c-0.59,3.39,0.94,6.98-0.94,10.26c-1.02,1.18-2.41,0.76-3.66,0.79c-8.63,0.25-8.63,0.23-8.33,9c2.79,0.03,5.46,0.51,7.85,2.06
		c-0.03,4.62-0.06,9.25-0.09,13.87c0.04,9.07,0.15,18.14,0.08,27.21C84.89,365.37,87.66,369.34,84.81,373.25z"/>
	<path class="st39" d="M96.99,375.22c-0.02,5.33-0.04,10.66-0.07,16c0.01,18.26,0,36.52,0.06,54.79c0.01,1.74-0.68,3.69,0.97,5.16
		c0.01-8.33,0.02-16.65,0.03-24.98c-0.02-16.98-0.03-33.96-0.05-50.94C97.62,375.24,97.31,375.23,96.99,375.22z"/>
	<path class="st40" d="M241.85,659.98c-5.33,0-10.65,0.01-15.98,0.01c0,0,0.01-0.01,0.01-0.01c-0.02,1.81,0.08,3.64-0.09,5.44
		c-0.49,5.18,1.19,10.48-0.91,15.56c-1.38,2-2.76,4-4.15,6c1.51,1.55,3.44,0.95,5.2,0.95c14.97,0.05,29.93,0.03,44.9,0.04
		c0.01-0.33,0.02-0.66,0.03-0.99c0.12-11.7,0.12-11.7,11.96-12.07c0-2.61,0.49-5.35-0.12-7.81c-0.94-3.85-1.06-8.72-6.81-9.12
		c-0.41,2.35-2.24,1.95-3.83,1.96c-4.41,0.02-8.82,0.01-13.23,0.02C253.17,659.97,247.51,659.97,241.85,659.98z"/>
	<path class="st5" d="M270.83,688.01c-14.97,0-29.93,0.01-44.9-0.04c-1.76-0.01-3.7,0.59-5.2-0.95c-4.51,1.68-5.79,4.66-3.04,8.19
		c2.77,3.57-0.26,5.3-1.8,7.59c0.33,0.11,0.65,0.22,0.98,0.33c1.67,0,3.33,0,5,0l0.46-0.14l0.47,0.12
		c18.68-0.04,37.36-0.08,56.04-0.12c0.03-3.99,0.06-7.98,0.1-11.97c-3.89-3.34-4.21,1.8-7.41,3.64c-3.79,2.18-7.3,1.72-11.62,0.72
		C244.55,691.84,266.76,690.26,270.83,688.01z M247.77,694.06c0.2-2.78-0.47-5.41,2.72-5.01
		C258.48,690.03,246.63,703.84,247.77,694.06z"/>
	<path class="st26" d="M224.87,680.98c2.11-5.08,0.43-10.39,0.91-15.56c0.17-1.8,0.07-3.63,0.09-5.44
		c-2.24,4.89-0.5,10.05-0.98,15.06C224.7,677,224.87,679,224.87,680.98z"/>
	<path class="st21" d="M363.63,736.8c0.09-12.96,0.19-25.91,0.28-38.87c-0.1-1.66-0.2-3.32-0.3-4.99c-1.52,0.71-6.88-0.09-8.1-1.39
		c-3.35-3.57,0.56-2.89-0.72-6.85c-2.52-7.82-2.7-3.21-10.32-3.52c-0.98,2.92,3.08,2.89,3.69,5.08c0.44,1.58-2.41,3.94-2.24,5.95
		c2.09,1.83,2.83,4.07,2.21,6.75c-0.16,1.21-0.32,2.42-0.49,3.63c0.36,4.79,1.91,7.18,0.14,11.85c-1.01,2.65-4.24,4.3-4.5,7.09
		c-0.22,2.24,3.38,2.64,3.13,5.21c-0.88,8.95-6.59,4.06-10.45,3.17c-0.37,7.08-0.37,7.1,6.37,7.06
		C349.42,736.93,356.53,736.86,363.63,736.8z"/>
	<path class="st41" d="M334.98,594.95c0.24,0.03,0.47,0.08,0.7,0.14c-0.02-21-0.04-42-0.05-63c-0.23,0-0.45,0-0.68,0
		C334.95,553.04,334.97,574,334.98,594.95z"/>
	<path class="st42" d="M334.94,532.09c0.23,0,0.45,0,0.68,0c0.1-10.33,0.21-20.65,0.31-30.98c-0.42-1.3,0.42-3-1.26-3.89
		C334.76,508.84,334.85,520.47,334.94,532.09z"/>
	<path class="st43" d="M349.93,517.13l0.36,0c0,0,0.36,0,0.35,0c0.01-4.97,0.03-9.94,0.05-14.92c-0.3-0.04-0.59-0.03-0.88,0.05
		C349.86,507.22,349.9,512.18,349.93,517.13z"/>
	<path class="st44" d="M275.88,657.99c5.76,0.4,5.87,5.27,6.81,9.12c0.61,2.47,0.12,5.2,0.12,7.81c2.22-3.3-0.96-8.67,1.23-11.34
		c2.46-2.99,5.88-0.66,8.9-2.1c6.11-2.9,4.83-6.71,4.87-13.5c-0.02-1.64-0.03-3.28-0.05-4.92c-3.44-1.97-7.22-0.65-10.82-1.12
		c0.85,5.43-1.96,6.73-6.73,6.15c-2.08-0.25-4.23,0.02-6.35,0.05C275.5,651.23,276.23,654.5,275.88,657.99z"/>
	<path class="st45" d="M308.96,618.04c-0.43-1.03,0.26-2.39-0.93-3.2c0.07,7.4-1.29,14.85,0.88,22.17l0.42,0.02l0.42-0.05
		c0.01-0.98,0.03-1.97,0.04-2.95c-1.72-1.46-0.72-3.35-0.8-5.06C308.98,625.32,308.97,621.68,308.96,618.04z"/>
	<path class="st46" d="M401.67,469.21c0.1,8.23,0.21,16.45,0.31,24.68c0.25,0.06,0.49,0.16,0.72,0.3c0.35-0.08,0.71-0.17,1.06-0.25
		c-2.25-6.13-0.49-12.48-1.03-18.7c-0.2-2.35,1.15-4.97-1.09-7.01C401.65,468.56,401.66,468.88,401.67,469.21z"/>
	<path class="st47" d="M426.57,458.16c-1.73,2.74-0.74,5.77-0.79,8.64c-0.18,9.04-0.11,18.08-0.14,27.11
		c0.7,0.24,1.01-0.17,1.23-0.73C426.76,481.51,426.67,469.84,426.57,458.16z"/>
	<path class="st21" d="M32.93,383.64c0.47-0.19,0.53-0.22,1.01-0.41c0.01-0.52-0.02-1.05,0.01-1.57
		c0.57-11.02,0.57-11.02-10.02-11.45c-0.3,0.05-0.6,0.11-0.9,0.2c-2.17,1.86-4.67,0.58-7.01,0.72c-1.98,0-3.95,0-5.93,0
		c-0.1,3.12,13.95,2.5,4.43,7.45c-4.74,2.46-7.7-7.06-14.39-6.45c4.43-4.91,9.53-12.96-1.93-14.81c-0.05,7.66-0.1,15.31-0.16,22.97
		c1.02,0.34,0.78,1.29,0.98,2.03c0.81,0.01,1.73-0.24,2.15,0.81c9.03,0.04,18.06,0.04,27.09,0.17
		C29.79,383.31,31.54,382.35,32.93,383.64z"/>
	<path class="st48" d="M322.71,452.27c3.18,1.89,6.69,0.35,9.99,0.96c8.05,7.1-5.78,14.12,9.07,13.91c0,0,0.08,0.05,0.08,0.05
		c-0.48-2.51,0.8-3.16,3.06-3.1c4.29,0.11,8.59,0.07,12.88,0.1c0,0,0.02-0.01,0.02-0.01c0.37-3.75-1.52-8.45,0.86-11.04
		c2.43-2.63,7.24-0.46,10.94-1.21c0.07-21,0.13-42,0.24-63c0.01-1.92-0.64-3.99,0.8-5.74c0.18-2.69,0.95-5.8-3.63-5.12
		c-3.83,0.01-7.66,0.03-11.5,0.04c-1.74-0.29-3.47-0.75-5.21-0.84c-2.67-0.14-5.68-0.78-6.71,2.93c1.33,7.89-2.88,3.88-6.31,7.15
		c-3.76,3.59-3.5,5.76-3.52,11.54c-0.49,7.14,1.12,14.37-0.87,21.46c-4.8,4.12-7.71-1.56-10.19,5.76
		C320.48,432.7,322.73,445.32,322.71,452.27z"/>
	<path class="st49" d="M343.59,380.2c1.03-3.71,4.04-3.07,6.71-2.93c1.75,0.09,3.48,0.55,5.21,0.84c2-5.91,5.52-7.26,9.97-3.83
		c10.25-0.83-0.67-4.65,4.46-9.95c-0.02-5.01-0.03-10.02-0.05-15.02c-0.09-4.34-0.18-8.69-0.26-13.03c-7.5-0.46-13.89,1.22-20.76,1
		c0.71,0.02-6.27-1.55-5.98-1.5c-4.62-0.83-2.28,5.65-6.95-1.16c-2.18,6.41-0.44,13.1-1.43,19.64c-1.17,7.73-7.8,13.77-3.74,21.98
		c1.99,0,4.01,0.18,5.98-0.04C340.12,375.82,342.55,376.75,343.59,380.2z"/>
	<path class="st6" d="M300.69,528.01c-0.01-1.97-0.03-3.94-0.04-5.91c-8.16,0.04-3.4,14.24-5.6,19.9
		c-2.15,5.54-4.21,5.98-2.12,12.18c0.4,1.17,2.97,3.99,3.44,5.17c-0.58-1.45,0.68,7.86,0.96,5.97c-0.4,2.77-2.42,3.18-2.75,5.68
		c1.88,1.53,2.67,3.47,2.37,5.83c-0.43,2.08-0.86,4.16-1.29,6.24c-1.05,3.3,0.52,7.58-5.7,5.44c-0.93,1.6,5.62,4.68,6.86,7.55
		c1.52,3.51-2.64,14.34,2.83,14.96c0.11-15.64,0.22-31.27,0.34-46.91c-0.05-10.48-0.14-20.96-0.11-31.44
		C299.86,531.12,299.12,529.33,300.69,528.01z"/>
	<path class="st50" d="M286.83,575.05c1.09-11.64-0.03-22.65-0.04-34.58c-0.01-6.2,4.45-29.98-5.98-28.42c0,0,0.01,0.08,0.01,0.08
		c5.01,0.57,5.13,3.98,5.05,7.99c-0.2,10.65-0.08,21.3-0.08,31.95c0.01,27.63,0.02,55.25,0.04,82.88c0.26,0.13,0.53,0.23,0.8,0.31
		c0.07-0.42,0.14-0.84,0.21-1.27c-0.01-16.32-0.01-32.64-0.02-48.96C286.83,581.71,286.83,578.38,286.83,575.05z"/>
	<path class="st51" d="M370.9,452.16c3.59-3.71,4.69-41.07,0.84-43.95c-0.24,1.68,0.54,3.53-0.83,5.03
		c-0.19,12.94-0.37,25.87-0.56,38.81C370.54,452.05,370.73,452.09,370.9,452.16z"/>
	<path class="st6" d="M286.85,634c-0.07,0.42-0.14,0.84-0.21,1.27c0.11,2.22,0.22,4.45,0.32,6.67c3.6,0.48,7.38-0.84,10.82,1.12
		c0.58-4.22-1.25-6.77-5.49-6.98C290.12,635.97,288.93,633.94,286.85,634z"/>
	<path class="st52" d="M365.49,374.28c-4.45-3.43-7.97-2.08-9.97,3.83c3.83-0.01,7.66-0.03,11.5-0.04
		c-0.08-0.29-0.14-0.58-0.18-0.88C365.57,376.59,365.8,375.31,365.49,374.28z"/>
	<path class="st53" d="M322.71,452.27c0.02-6.95-2.23-19.57,0-26.17c2.48-7.33,5.39-1.65,10.19-5.77c-0.12-0.13-0.23-0.27-0.34-0.41
		c-2.92,0.05-5.84,0.1-8.76,0.15c-0.34,0.01-0.67,0.03-1.01,0.04c-0.23,0.13-0.48,0.2-0.74,0.22c0,0-0.1-0.04-0.1-0.04
		c-0.05,9.78-0.11,19.56-0.15,29.34C321.8,450.6,321.6,451.68,322.71,452.27z"/>
	<path class="st54" d="M366.83,377.19c0.04,0.3,0.1,0.59,0.18,0.88c4.58-0.68,3.81,2.43,3.63,5.12c0.09,10.02,0.18,20.03,0.27,30.05
		c1.37-1.5,0.59-3.35,0.83-5.03c0.02-8.73-0.15-17.46,0.13-26.17C372.01,378.09,370.73,376.51,366.83,377.19z"/>
	<path class="st55" d="M369.64,336.27c0.09,4.34,0.18,8.69,0.26,13.03c0.23-0.03,0.47-0.06,0.7-0.09
		c0.01-13.28,0.01-26.57,0.02-39.85c0,0-0.49-0.02-0.49-0.02l-0.49,0.03C369.65,318.34,369.64,327.31,369.64,336.27z"/>
	<path class="st56" d="M369.6,451.93c-3.7,0.74-8.51-1.42-10.94,1.21c-2.39,2.58-0.5,7.29-0.86,11.04
		c2.33-2.58-0.72-8.33,1.72-10.23c3.16-2.46,7.85,0.63,11.39-1.78c-0.17-0.07-0.36-0.11-0.55-0.12
		C370.1,452.02,369.85,451.98,369.6,451.93z"/>
	<path class="st57" d="M301.03,497.33c-0.01-0.66-0.02-1.33-0.04-1.99c-2.28,2.33-1.2,5.27-1.13,7.86
		c0.13,4.98-1.09,10.05,0.79,14.93c0.1-5.99,0.2-11.99,0.29-17.98C300.97,499.21,301,498.27,301.03,497.33z"/>
	<path class="st58" d="M341.77,467.14c-14.85,0.22-1.02-6.81-9.07-13.91c0.03,2.83,0.08,5.66,0.09,8.49
		C332.8,468.92,334.53,469.97,341.77,467.14z"/>
	<path class="st6" d="M286.83,575.05c0,3.33,0,6.66-0.01,9.98c1.45-2.26,1.61-4.99,2.95-7.39
		C291.26,574.97,288.48,575.24,286.83,575.05z"/>
	<path class="st59" d="M369.65,309.37l0.49-0.03c0,0,0.49,0.02,0.49,0.02c-0.29-0.39-0.58-0.78-0.87-1.17
		c-6.03,0.08-12.05,0.15-18.08,0.23C357.58,310.46,363.68,308.65,369.65,309.37z"/>
	<path class="st56" d="M357.78,464.18c-4.29-0.02-8.59,0.01-12.88-0.1c-2.26-0.06-3.53,0.59-3.06,3.1c1.14-1.94,2.95-2.03,4.98-2.14
		C350.48,464.85,354.26,466,357.78,464.18z"/>
	<path class="st60" d="M333.66,480.27c0.04,5.62,0.08,11.24,0.13,16.85l0.41,0.15l0.43-0.02C334.35,491.59,336,485.81,333.66,480.27
		z"/>
	<path class="st61" d="M370.61,349.21c-0.24,0.03-0.47,0.06-0.7,0.09c0.02,5.01,0.03,10.02,0.05,15.02
		C371.64,359.35,370.53,354.26,370.61,349.21z"/>
	<path class="st62" d="M382.73,302.33c1.19,3.16,0.97,6.47,0.97,9.75c0.01,13.71,0.01,27.41,0.02,41.12
		c1.58-0.54,1.04-1.9,1.04-2.94c-0.04-15.91-0.13-31.83-0.2-47.74C383.94,302.45,383.34,302.39,382.73,302.33z"/>
	<path class="st63" d="M369.65,309.37c-5.97-0.73-12.07,1.09-17.97-0.95c0,0,0-0.06,0-0.06c-1.25-1.01-0.83-2.44-0.83-3.71
		c-0.02-19.11,0.01-38.23,0.02-57.34c0,0-0.19,0.07-0.19,0.07c-1.82-6.99-0.59-14.1-0.79-21.15c-1.49-3.43-0.36-7.39-2.17-10.76
		c-2.79-0.04-5.62-0.39-8.36-0.04c-5.07,0.65-6.47-1.52-5.42-6.09c-0.7-1.62,0.74-3.71-1.11-5.08c-1.75,0.04-7.01,0.91-8.88,0.05
		c-1.06-0.49-1.75-2.67-2.25-2.89c-0.49-0.21-8.22-2.34-8.71-3.17c0-0.95-0.01-1.9-0.01-2.86c-0.77-3,0.9-6.3-1.13-9.14
		c-5.35,0.07-10.69,0.14-16.04,0.2c-2.32,3.45-2.23,7.45-2.27,11.62c-0.63-1.84-11.63-11.83-13.36-6.18c-1,3.26,1.86,2.89,2.16,4.42
		c0.96,0.08,1.81,0.4,2.56,0.96c-0.99,1.33-1.42,2.8-1.31,4.39c-0.34,9.97-6.78,9.51-13.78,13.62c-2.49,1.46-4.21,1.11-5.08,4.34
		c-1.47,5.41,1.52,2.99,4.45,5.35c-0.47,1.48-0.91,2.89-1.35,4.29c1.98,0.98,5.86-1.61,5.85,3.11c7.87,4.83,5.72,10.89,1.07,15.91
		c0,25.92,0.01,51.84,0.01,77.76c0,1.15,0.16,2.35-0.77,3.29c-0.33,1.28-0.6,2.57-0.12,3.87c6.32,0.05,12.64,0.1,18.96,0.15
		c0.32-0.11,0.64-0.12,0.97-0.03c9.62,0.05,19.25,0.1,28.87,0.15c1.35,0.64,1.12,1.89,1.11,3.01c-0.03,7.26-0.09,14.51-0.14,21.77
		c0.11,5.99,0.23,11.97,0.34,17.96c2.27-0.98,4.53,0.53,6.8,0c-4.06-8.21,2.57-14.26,3.74-21.98c0.99-6.54-0.75-13.23,1.43-19.64
		c4.67,6.81,2.33,0.33,6.95,1.16c-0.29-0.05,6.69,1.52,5.98,1.5c6.87,0.22,13.26-1.46,20.76-1
		C369.64,327.31,369.65,318.34,369.65,309.37z M289.81,275.74c0.05-6.46,0.05-6.46,4.39-6.41c5.1,0.05,11.4,5.16,6.69,10.85
		C297.53,284.23,288.84,281.57,289.81,275.74z M313.13,296.3c2.77,0.14,5.75-0.15,5.7,4.15C318.61,319.49,297.1,295.5,313.13,296.3z
		 M300.89,289.82c-0.45-2.97-0.1-4.94,3.64-4.67C318.77,286.18,297.34,300.28,300.89,289.82z"/>
	<path class="st64" d="M350.87,247.31c-0.01,19.11-0.03,38.23-0.02,57.34c0,1.27-0.42,2.7,0.83,3.71
		c0.04-19.28,0.07-38.55,0.1-57.83C351.79,249.37,351.9,248.17,350.87,247.31z"/>
	<path class="st65" d="M349.89,226.23c0.21,7.05-1.03,14.16,0.79,21.15C352.72,240.25,351.73,233.22,349.89,226.23z"/>
	<path class="st66" d="M312.99,198.26c0.49,0.84,8.22,2.97,8.71,3.17c0.51,0.21,1.2,2.4,2.25,2.89c1.87,0.86,7.13-0.01,8.88-0.05
		c-1.44-1.31-8.5-2.39-9.79-2.97c-0.83-0.37-1.16-2.29-2.57-2.84C318.7,197.77,314.72,198.29,312.99,198.26z"/>
	<path class="st67" d="M333.94,209.34c-1.05,4.57,0.35,6.75,5.42,6.09c2.74-0.35,5.57,0,8.36,0.04c-1.86-2.15-4.37-1.16-6.48-1
		C337.17,214.78,334.22,214.14,333.94,209.34z"/>
	<path class="st68" d="M285.93,164.25c-0.03-2.29,1.33-10.49-0.28-12.39c-2.25-2.64-9.21-1.91-10.73,0.3
		c-1.83,2.66,1.76,8.66-1.02,11.11c-2.17,1.91-11.59,0.02-14.13-0.05c-2.38,2.03-5.26,0.82-7.89,1.24
		c-0.06,5.96-0.13,11.93-0.19,17.89c0.08,1.68,0.17,3.36,0.25,5.04c2.11,0.11,2.93,1.82,4.15,3.15c1.91,2.08,4.57,2.42,5.41-0.47
		c0.81-2.81,2.97-4.26,4.26-6.48c1.43-2.46,3.02-3.18,4.58-0.14c1.52,2.97,2.87,1.86,4.27-0.05c0.08-3.33,0.15-6.66,0.23-9.99
		c7.64-3.21,10.06-1.79,9.97,5.88c-0.02,1.66-0.18,3.32-0.28,4.98c3.1,3.01,6.59,3.97,10.63,1.99c-0.64-7.68-0.64-7.68,7.05-7.97
		c0.16-0.01,0.33-0.03,0.49-0.05c-0.25-4.34,1.15-8.77-0.68-13.02C296.63,165.06,291.15,166.71,285.93,164.25z"/>
	<path class="st69" d="M250.63,149.43c2.84-2.03,6.12-0.43,9.13-1.09c0.06-0.3,0.14-0.59,0.24-0.88c0-4.98-0.01-9.95-0.01-14.93
		c-0.1-8.97-0.19-17.93-0.29-26.9c-1.97-0.05-3.95,0.02-5.91-0.16c-4.66-0.42-9.47,1.1-14.01-1c-1.34,0.02-2.68,0.04-4.03,0.07
		c0.03,0.33,0.02,0.65-0.03,0.98c0.03,10.31,0.06,20.63,0.09,30.94c0.62,2.97-0.9,6.16,0.96,9c0.85,0.35,1.04,1.07,1.05,1.89
		c0.34,0.03,0.68,0.06,1.02,0.09C242.76,148.16,247.23,145.62,250.63,149.43z"/>
	<path class="st70" d="M260,147.46c-0.1,0.29-0.18,0.58-0.24,0.88c3.67,0.02,7.34,0.04,11.01,0.06c0.03-5.64,0.06-11.28,0.09-16.92
		c-3.18,1.72-6.64,0.69-9.96,1.02c0,0-0.09-0.06-0.09-0.06C260.39,137.44,261.81,142.53,260,147.46z"/>
	<path class="st71" d="M250.73,162.4c-0.01-3.66-0.03-7.32-0.04-10.98c-4.65,2.08-7.41,6.62-11.8,9.04
		c-1.15,1.75-1.17,3.71-1.01,5.69c0.35-0.23,0.69-0.46,1.04-0.7c0.62-2.4,2.59-1.9,4.3-2.06
		C245.74,163.18,248.42,164.17,250.73,162.4z"/>
	<path class="st72" d="M238.89,160.46c4.38-2.42,7.15-6.96,11.8-9.04c-0.02-0.66-0.03-1.33-0.05-1.99
		c-3.4-3.81-7.87-1.27-11.79-1.99C238.86,151.78,238.87,156.12,238.89,160.46z"/>
	<path class="st73" d="M250.73,162.4c-2.31,1.77-4.99,0.77-7.5,1c-1.72,0.15-3.68-0.35-4.3,2.06c3.96,0.06,7.92-0.04,11.8-0.97
		c0.37-0.63,0.75-0.97,1.15-0.02c2.63-0.42,5.51,0.79,7.89-1.24C256.87,161.56,253.72,162.89,250.73,162.4z"/>
	<path class="st74" d="M302.68,178.24c-0.16,0.02-0.33,0.04-0.49,0.05c-7.69,0.29-7.69,0.29-7.05,7.97c0.25-0.02,0.47,0.05,0.67,0.2
		c5.35-0.07,10.69-0.14,16.04-0.21c-3.53-1.71-14.34,1.41-15.63-2.62C294.26,177.53,301.07,181.3,302.68,178.24z"/>
	<path class="st75" d="M285.9,115.56c-0.01-0.33-0.02-0.67-0.03-1c-2.26,3.85,1.19,11.25-1.34,14.13c-3.43,3.9-8.42-0.07-12.68,2.61
		l0,0.28C287.18,131.4,285.79,130.11,285.9,115.56z"/>
	<path class="st76" d="M270.86,131.47c-0.03,5.64-0.06,11.28-0.09,16.92c2.34-5.48,0.43-11.24,1.07-16.82c0,0,0-0.28,0-0.27
		C271.52,131.36,271.19,131.41,270.86,131.47z"/>
	<path class="st77" d="M285.93,164.25c5.23,2.46,10.7,0.8,16.07,0.97C296.73,163.47,291.26,165.01,285.93,164.25z"/>
	<path class="st78" d="M270.86,131.47c0.33-0.06,0.66-0.12,0.99-0.18c4.26-2.68,9.25,1.28,12.69-2.62
		c2.53-2.88-0.92-10.27,1.34-14.13c3.3-0.16,8.8,1.64,11.6-0.29c4.54-3.13,1.74-8.06,2.38-12.81c-0.03-3.97-0.05-7.94-0.08-11.91
		c-7.05-0.07-10.81,1.17-13.68-5.16c-1.5-3.31,1.24-6.92-2.05-9.66c-2.73-2.26-8.74,0.94-12.22-1.21c0,0,0,0,0,0
		c-5.85-7.19,3.22-10.25-7.28-12.01c-5.92-0.99-18.79,3.17-23.66-1.02c-0.03-0.48-0.08-0.96-0.09-1.45
		c-0.11-6.69-0.11-6.69-6.93-6.48c1.41,2.19,6.09-0.88,6.01,4.01c-0.16,10-0.12,20.01,0.91,29.98c0.01,3.54-1.73,14.28,0.97,17.01
		c2.68,2.72,14.2,1.03,18.03,1.09c1.66,1.23,0.97,3.03,0.99,4.58c0.1,7.75,0.09,15.5,0.13,23.25
		C264.22,132.16,267.68,133.19,270.86,131.47z"/>
	<path class="st79" d="M240.77,86.42c-1.03-9.97-1.07-19.98-0.91-29.98c0.07-4.67-4.18-2.09-5.8-3.74c-0.73-0.09-1.47-0.18-2.2-0.27
		c-2.79,1.42-5.55,1.66-8.25-0.29c-0.99,0.12-1.76,0.21-2.75,0.33c-4.7,5.35-2.36,17.06,2.07,22.04
		c4.14,4.65,17.24,4.01,16.91,10.86c0.05,0.32,0.05,0.65,0.02,0.97l0.02-0.01C240.18,86.33,240.48,86.36,240.77,86.42z"/>
	<path class="st80" d="M240.87,60.49c4.88,4.19,17.74,0.03,23.66,1.02c10.5,1.75,1.43,4.82,7.28,12.01c0-13,0-13-13.15-13
		C252.73,60.51,246.8,60.5,240.87,60.49z"/>
	<path class="st80" d="M271.82,73.52c3.48,2.15,9.48-1.05,12.22,1.21c3.3,2.73,0.55,6.34,2.05,9.66c2.87,6.33,6.63,5.09,13.68,5.16
		c-7.19-5.37-9.43,2.9-12.88-6.54c-1.5-4.12,1.62-6.17-2.7-9.27C281.41,71.76,275.11,73.46,271.82,73.52z"/>
	<path class="st78" d="M223.7,52.34c2.67,1.88,5.4,1.63,8.16,0.23c-2.26-0.76-4.9,1.06-6.96-1.04c-0.72-4.9,1.04-9.97-1.07-14.77
		c0.01,0.33-0.01,0.66-0.07,0.98c-0.05,4.57-0.09,9.15-0.14,13.72C223.71,51.76,223.73,52.05,223.7,52.34z"/>
	<path class="st81" d="M132.92,15.48c-1.37,0.46-3.12-0.49-4.17,1.13l0.4-0.1c22.13,0.02,44.25,0.04,66.38,0.06
		c6.36,0.01,5.96,0.04,6.5,6.58c0.32,3.88-3.2,6.63-2.1,10.42c1.03-4.19,6.74-5.19,6.8-10.03c0.03-2.65,0.05-5.3,0.08-7.95
		c-2.5-0.04-4.99-0.11-7.49-0.11C177.19,15.47,155.06,15.48,132.92,15.48z"/>
	<path class="st82" d="M132.92,15.48c22.13,0,44.27-0.01,66.4,0c2.5,0,4.99,0.07,7.49,0.11c0.38-0.03,0.77-0.06,1.15-0.09
		c-4.56-5.04-30.96-0.96-37.75-0.95C163.55,14.55,137.36,10.58,132.92,15.48z"/>
	<path class="st83" d="M207.96,15.5c-0.38,0.03-0.77,0.06-1.15,0.09c-0.03,2.65-0.05,5.3-0.08,7.95c0.04,4.34,0.09,8.67,0.13,13.01
		l0.04-0.04c0.35-0.04,0.7-0.08,1.05-0.11c0.2-6.95-0.99-13.97,0.94-20.85C208.58,15.54,208.27,15.52,207.96,15.5z"/>
	<path class="st84" d="M212.91,2.75c-1.7-0.01-3.4-0.02-5.09-0.03c0.41,3.13-1.92,4.23-4.73,5.67
		C208.23,8.78,210.44,5.54,212.91,2.75z"/>
	<path class="st21" d="M224.81,12.69c-0.98,0.01-1.96,0.01-2.95,0.02c0.24,2.35,1.85,3.14,3.84,2.8c4.24-0.73,7.27,1.18,9.98,4.05
		c1.17-5.01-0.9-6.73-5.82-6.08C228.23,13.7,226.29,14.2,224.81,12.69z"/>
	<path class="st85" d="M214.26,33.56c3.52-0.37,3.86-2.2,2.82-5.56c-0.32-1.03-5.61,4.48-5.6,4.44
		C211.11,33.79,213.19,33.36,214.26,33.56z"/>
	<path class="st86" d="M224.81,12.69c1.48,1.51,3.43,1.01,5.06,0.79c4.92-0.65,6.99,1.07,5.82,6.08c0.36,0.35,0.71,0.69,1.07,1.04
		c0.5-8.06,0.5-8.06-7.47-8.06C227.79,12.55,226.3,12.64,224.81,12.69z"/>
	<path class="st87" d="M207.96,36.4c-0.35,0.04-0.7,0.08-1.05,0.11c0,0.3,0.03,0.6,0.1,0.9c5.58,0.11,11.17,0.22,16.76,0.33
		c0.05-0.33,0.08-0.65,0.07-0.98C218.54,36.64,213.25,36.52,207.96,36.4z"/>
	<path class="st16" d="M-2.14,349.26c0.11,2.66,0.22,5.33,0.33,7.99c11.46,1.85,6.36,9.9,1.93,14.81c6.69-0.6,9.66,8.92,14.39,6.45
		c9.52-4.95-4.53-4.33-4.43-7.45c0.04-2.9,0.08-5.81,0.12-8.71c-0.01-5.02-0.03-10.04-0.04-15.06c0.37-7.33-1.4-14.75,0.86-22
		c2.3-0.01,4.63-0.26,6.9,0.04c3.52,0.46,5.48-0.81,5.96-4.33c6.63-6.39-2.66-9.66,11.02-9.8l0.04,0.01
		c7.57-6.81-1.51-16.45,14.12-13.8c1.82-1.34,0.76-3.25,0.86-4.87c0.12-1.82,0.03-3.54,2.05-4.39c-0.05-1.66,1.68-3.03,0.78-4.83
		c-2.78-4.87,3.82-1.6,4.92-2.99c1.61-2.04,1.55-6.45,3.15-7.97c0.02-4.57-2.51-21.68,0.24-25.35c3.25-4.34,10.38-2.59,15.94-2.6
		l0.05-0.01c-0.03-1.99-0.23-4.01-0.04-5.98c0.43-4.66-1.21-9.47,0.99-14c0.32-0.12,0.64-0.12,0.95,0
		c9.97,0.02,19.94,0.04,29.91,0.05c0.03-1.02,0.06-2.05,0.09-3.07c4.29-1.48,4.78-6.37,7.97-8.84c-11.38-0.05-22.76-0.08-34.14-0.19
		c-1.74-0.02-3.66,0.6-5.17-0.91c-1.35-3.6-0.15-7.39-0.79-11.04c-7.26-1.51-3.08-31.14-10.81-25.29c-1.86,1.4,0.49,16.5,0.64,19.16
		c0.45,7.78,1.78,16.07-2.51,23.12c-0.06,2.16,0.01,4.32-0.19,6.47c-0.44,4.85,1.08,9.82-0.89,14.58l-0.03,0.01
		c-4.91,2.02-10.04,0.42-15.04,0.93l-0.07-0.04c-0.04,12.95-0.09,25.9-0.13,38.85c-3.4,3.67-8.58-1.28-11.5,2.85
		c-2.63,3.71,1,10.74-1.37,15.23l-0.02-0.05c-3.56,3.45-8.43-1.05-11.66,2.67c-2.39,2.76,1.19,8.85-1.25,12.4l0.04,0.05
		c-4.83,2.12-9.93,0.37-14.86,1.04c-0.05,0.99-0.14,1.98-0.14,2.97c-0.06,8.8-0.06,8.8-8.92,9.03
		C-1.98,332.66-2.06,340.96-2.14,349.26z"/>
	<path class="st88" d="M47.8,278.17c-0.31,0.05-0.62,0.04-0.93-0.01c-3.62,0.9-8.39-1.97-11.24,1.4c-2.64,3.12-0.67,13.04-0.7,16.69
		c2.37-4.49-1.25-11.52,1.37-15.23C39.22,276.88,44.39,281.83,47.8,278.17z"/>
	<path class="st89" d="M96.84,52.3c-5.96,0.03-11.92,0.05-17.88,0.08c-1.64,1.45-0.93,3.4-0.95,5.12
		c-0.18,13.68-0.27,27.36-0.39,41.04c0.17-0.04,0.33-0.07,0.5-0.11c1.83-4.55,0.27-9.32,0.88-13.95c0-3.98,0.01-7.97,0.01-11.95
		c-0.01-3.72-1.89-15.27,1.03-18.04c3.26-3.1,12.49-0.08,16.96-1.63C96.94,52.68,96.89,52.49,96.84,52.3z"/>
	<path class="st90" d="M64.06,120.58c-0.05,15.35-0.1,30.7-0.15,46.05c0,0-0.01-0.14-0.01-0.14c0.36-0.37,0.72-0.73,1.09-1.1
		c0.01-14.61,0.01-29.21,0.02-43.82C64.69,121.24,64.38,120.91,64.06,120.58z"/>
	<path class="st91" d="M64.06,120.58c0.31,0.33,0.63,0.66,0.94,0.99c4-0.01,8-0.02,12.01-0.03c0,0-0.13-0.32-0.13-0.32
		c0.01-0.93,0.02-1.87,0.02-2.8C72.54,118.63,68.12,118.53,64.06,120.58z"/>
	<path class="st92" d="M76.9,118.41c-0.01,0.93-0.02,1.87-0.02,2.8c1.12-0.11,0.87-1.15,1.22-1.78c0.02-3.32,0.03-6.64,0.05-9.95
		c-0.01-3.68-0.01-7.36-0.02-11.05c-0.17,0.04-0.33,0.07-0.5,0.11C76.2,105.12,77.38,111.8,76.9,118.41z"/>
	<path class="st93" d="M62.86,166.58c0.1,5.61,0.19,11.22,0.29,16.83c0.23,0,0.47-0.01,0.7-0.01c0.02-5.64,0.04-11.28,0.06-16.92
		c0,0,0.01,0.14,0.01,0.14C63.56,166.61,63.21,166.6,62.86,166.58z"/>
	<path class="st94" d="M207.01,37.42c-0.07-0.3-0.11-0.6-0.1-0.9c0,0-0.04,0.04-0.04,0.04c-2.29-1.04-6.56,2.54-6.93-2.97
		c-1.1-3.8,2.42-6.55,2.1-10.42c-0.54-6.55-0.13-6.58-6.5-6.58c-22.13-0.02-44.25-0.04-66.38-0.06c-0.13,2.35-0.26,4.7-0.39,7.04
		c0.1,0.64,0.2,1.27,0.31,1.91c1.82,0.41,4.73-0.98,4.78,2.46c0.04,2.85,0.79,5.86-1.02,8.52c21.69,0.04,43.38,0.08,65.07,0.12
		C200.81,38.14,203.93,37.5,207.01,37.42z"/>
	<path class="st95" d="M127.82,34.56c-0.41-5.49-0.33-8.62-7.94-7.06c-8.25,1.69-0.91,3.65-5.83,8.14
		c-0.06,0.24-0.11,0.47-0.16,0.71c4.36-0.04,8.72-0.09,13.08-0.13C127.25,35.67,127.53,35.11,127.82,34.56z"/>
	<path class="st96" d="M113.01,23.4c-3.71-0.19-12.87-2.28-15.98,0.5c-3.16,2.82-0.43,7.7-1.24,11.23l0.26,0c0,0,0.25,0.1,0.25,0.1
		c0.22-0.03,0.43-0.05,0.65-0.04c0.09-10.96,0.09-10.93,11.38-11.03C109.9,24.14,111.62,24.7,113.01,23.4z"/>
	<path class="st97" d="M127.82,34.56c-0.28,0.56-0.57,1.11-0.85,1.67c1.01,0.17,2.01,0.33,3.02,0.49c0.98-0.05,1.97-0.11,2.95-0.16
		l-0.12-0.11c1.81-2.66,1.07-5.67,1.03-8.52c-0.05-3.44-2.96-2.05-4.78-2.46c0.28,0.38,0.57,0.75,0.85,1.13
		c3.73,1.04,4.14,3.61,1.15,7.18C130.5,36.16,129.33,36.06,127.82,34.56z"/>
	<path class="st98" d="M131.06,33.77c2.99-3.57,2.58-6.14-1.15-7.18C129.62,29.09,130.36,31.43,131.06,33.77z"/>
	<path class="st99" d="M96.95,35.55c-0.22,0-0.44,0.01-0.65,0.04c-0.2,0.25-0.34,0.53-0.44,0.84c0.41,0.04,0.81,0.08,1.22,0.13
		c0.34,0.04,0.67,0.08,1.01,0.12c5.26-0.11,10.53-0.22,15.79-0.33c0.05-0.24,0.1-0.48,0.16-0.71
		C108.34,35.61,102.65,35.58,96.95,35.55z"/>
	<path class="st100" d="M98.09,36.68c-0.34-0.04-0.67-0.08-1.01-0.12C97,41.8,96.92,47.05,96.84,52.3c0.04,0.19,0.09,0.38,0.15,0.56
		C99.02,47.58,97.31,42.04,98.09,36.68z"/>
	<path class="st48" d="M51.97,288.14c-2.02,0.85-1.93,2.58-2.05,4.39c-0.1,1.62,0.96,3.54-0.86,4.87c-0.66,0.34-1.32,0.68-1.98,1.02
		c-0.41,8.58-2.73,11.9-8.99,10.93c-0.32,1.87-1.63,2.04-3.16,1.84l-0.04-0.01c-2.85,1.75-8.24,0.18-7.93,6.06
		c-0.23,3.1,0.93,6.49-1.91,9.05l0,0.01c2.35,5.16-9.24,1.64-12.38,7.31c15.2-2.61,11.33,12.95,11.35,23.6
		c0.31,0,0.63-0.01,0.94-0.01c0.38,0.04,0.75,0.08,1.13,0.12c3.32,0,6.63,0,9.95,0.01c0.24-5.73,4.25-5.36,8.22-5.11
		c1.62,0.1,3.26,0.16,4.6-1.04c0.08-1.99,0.17-3.97,0.25-5.96c-0.04-2.33-0.08-4.65-0.13-6.98c4.94-2.01,10.06-0.69,15.1-0.78
		c1.81-1.43,0.37-3.53,1.06-5.19c-0.46-8.7-0.46-8.69,7.8-9.02c1.1-0.04,2.37,0.36,3.12-0.93c-0.07-0.49-0.2-0.97-0.2-1.46
		c-0.1-13.28-0.1-13.28,13.21-12.39c1.88-3.28,0.35-6.86,0.94-10.26c0,0-0.28-0.07-0.28-0.07c-8.37,0.05-16.75,0.12-25.12,0.13
		c-2.09,0-2.09-0.06-2.76-2.03c-0.2-2.75-0.07-6.13-3.41-8.13C55.78,288.08,54.63,288.21,51.97,288.14z"/>
	<path class="st38" d="M65.14,332.29c-0.69,1.66,0.75,3.76-1.06,5.19c-1.13,1.34-2.76,0.5-4.1,0.94c0.72,2.43,1.69,4.63,4.78,2.84
		C67.58,339.63,67.67,335.73,65.14,332.29z"/>
	<path class="st38" d="M49.11,345.25c-0.08,1.99-0.17,3.97-0.25,5.96C54.18,354.18,55.93,342.18,49.11,345.25z"/>
	<path class="st101" d="M89.07,308.49c-13.31-0.88-13.31-0.88-13.21,12.39c0,0.49,0.13,0.97,0.2,1.46c1.37-1.09,0.58-2.73,1.02-4.06
		c-0.31-8.77-0.31-8.76,8.33-9C86.66,309.25,88.05,309.67,89.07,308.49z"/>
	<path class="st102" d="M36.04,357.35c-3.32,0-6.63,0-9.95-0.01c0.31,3.64,3.31,1.16,4.8,2.1c0.35-0.4,0.7-0.8,1.05-1.2
		C33.32,358,34.91,358.73,36.04,357.35z"/>
	<path class="st103" d="M59.98,338.43c1.34-0.44,2.97,0.39,4.1-0.94c-5.04,0.09-10.15-1.23-15.1,0.78
		C52.65,338.32,56.32,338.37,59.98,338.43z"/>
	<path class="st104" d="M30.9,359.44c-1.49-0.94-4.49,1.54-4.8-2.1c-0.38-0.04-0.75-0.08-1.13-0.12c0.01,4.1,0.39,8.22-0.82,12.23
		C31.24,368.77,31.24,368.77,30.9,359.44z"/>
	<path class="st105" d="M24.15,369.45c1.21-4.01,0.83-8.13,0.82-12.23c-0.31,0-0.63,0.01-0.94,0.01c0.21,2.31-4.32,2.84-2.54,5.17
		c2.01,2.62,1.22,5.28,1.53,7.95c0.29-0.09,0.59-0.16,0.9-0.2C24,369.92,24.08,369.68,24.15,369.45z"/>
	<path class="st106" d="M213.11,433.83c1.63,2.25,3.97,3.92,2.95,6.95c-1.24,3.69-2.66,1.23-4.6,2.59c-1.82-0.92-3.26-0.65-4.32,0.8
		c-1.3,0.8-2.06,2-2.26,3.58c0.03-0.02-5.03,3.14-4.58,1.99c-2.37,6.06,1.13,2.67,5.53,2.76c1.04,0.02,7,1.61,8.5,0.21
		c1.76-1.64-0.32-4.39,0.88-5.7c1.52-1.66,7.56-3.02,8.34-4.39c1.71-2.99-2.76-5.63-0.03-8.6c2.75-2.99,9.15,2.73,5.23-4.71
		c-0.94-1.78-11.07-6.7-9.81-2.72C220.46,431.37,217.55,432.86,213.11,433.83z"/>
	<path class="st107" d="M311.8,351.13c3.61,0.13,7.23,0.13,10.85,0.13c0.09-0.32,0.09-0.65-0.01-0.97
		c-36.19,0-72.38-0.02-108.58,0.02c-1.74,0-3.69-0.66-5.18,0.95c6.33,0,18.98-0.13,18.98-0.13h28.99l24.96-1l6.01,1h9.99H311.8z"/>
	<path class="st106" d="M219.28,417.41c-0.2-3.26-6.29-3.79-7.65-1.81c-2.85,4.12,3.92,3,5.74,4.57
		C218.59,421.22,218.53,418.52,219.28,417.41z"/>
	<path class="st106" d="M175.99,444.58c0.64-0.14,7.49-4.24,3.64-4.19C177.02,440.42,176.83,442.46,175.99,444.58z"/>
	<path class="st106" d="M221.84,405.32c-2.2-1.86-4.18-0.7-6.96-1.4C217.4,407.25,219.25,407.42,221.84,405.32z"/>
	<path class="st108" d="M258.83,635.02c-0.32-0.01-0.63-0.03-0.94-0.05c-0.04,5.71,1.67,11.2-2.94,13.99
		c-2.72,1.64-7.61-1.42-10.52,0.94c-3.06,2.48-2.57,6.51-2.57,10.08c5.66,0,11.32,0,16.97-0.01c0.01-7.32,0.03-14.64,0.04-21.96
		C258.85,637.01,258.84,636.02,258.83,635.02z"/>
	<path class="st109" d="M242.01,529.12c0.22-0.02,0.45-0.04,0.67-0.07c-0.45-5.57,1.62-11.29-0.95-16.75
		c0.03,0.31,0.03,0.62-0.01,0.93C241.82,518.53,241.91,523.83,242.01,529.12z"/>
	<path class="st29" d="M128.95,550.62c1.1,1.39,11.09,7.13,10.63,1.65c-0.32-3.8-8.1-0.94-9.94-2.71
		C129.47,549.81,129.3,550.07,128.95,550.62z"/>
	<path class="st110" d="M133.08,637.04c-0.02,3.61-0.03,7.22-0.05,10.83c6.85,0.03,24.2,4.27,22.94-6.09
		C154.92,633.22,140.18,637.02,133.08,637.04z"/>
	<path class="st111" d="M125.86,653.29c1.69,12.58,9.26-4.68,2.33-4.23C124.86,649.27,126.44,651.96,125.86,653.29z"/>
	<path class="st112" d="M106.95,391.22c-0.65,0.45-1.3,0.91-1.95,1.36c-0.26,2.23,9.57,1.09,10.22,4.98
		c0.15,0.91-5.4,6.68-6.28,6.65c0.42,5.11-3.94,15.59,2.34,19.56c5.3,3.36,2.24-3.57,2.6-5.64c1.37,2.6,4.72,3.52,6.5,5.86
		c-0.25,1.71-0.03,3.34,0.65,4.9c1.31,0.74,2.72,1.09,4.23,1.06c2.65,1.65,6.14,0.47,8.96,2.62c2.5,1.91,3.69,8.52,5.7,9.36
		c0.34,0.14,6.95-1.95,6.95-1.96c1.8-3.62-3-2.71-3.33-4.92c-1.53-10.04,6.15-5.26,4.26-2.44c3.28-4.9,12.45-3.49,7.99-11.91
		c-3.56,3.49,0.12,6.51-6.08,4.93c0.04,0.01-6.59-5.14-6.24-4.32c-0.84-1.94-2.34-1.75,0.01-4.12c2.17-2.19,5.75,2.12,6.01-3.09
		c0.27-5.29-9.59-7.63-3.58-14.9c-3.9-0.33-8.08-2.71-11.41,1.31c0.45,2.29,3.74,1.36,3.44,4.12c-0.09,0.81-4.77,1.23-5.53,2.19
		c-0.53,0.67,0.33,5.33,0.06,5.47c-3.17,1.69-1.59-6.38-6.55-7.09c-0.28,3.05-10.74,5.71-12.95,3.51
		c-6.22-6.19,12.05-3.55,12.95-3.51c-0.12-4.99-3.66-4.18-6.42-7.67c-2.98-3.78-1.71-9.42-4.58-13.31c-1.45,0.15-2.75-0.32-4-1
		c-1.65,1.46-0.95,3.41-0.96,5.14C109.97,390.56,108.97,391.35,106.95,391.22z"/>
	<path class="st112" d="M151.21,408.85c0.16,6.46,8.41-3.95,2.58-3.26C152.03,405.8,151.83,407.58,151.21,408.85z"/>
	<path class="st113" d="M57.39,288.13c3.35,1.99,4.26,6.09,4.46,8.83c1.55,1.91,3.95,0.16,5.81,0.32
		c7.44,0.61,14.97-1.11,22.36,0.89c0,0,0.28,0.07,0.28,0.07c3.66-0.6,7.51,1.14,11.05-0.89c0-0.33,0-0.66,0-0.98
		c0.49-5.6-1.55-11.36,1.05-16.83c2.29-0.05,4.59-0.09,6.88-0.14c1.41-4.03,1.5-8.06-0.01-12.08c-3.05-2.11-2.98-36.04-0.17-38.99
		c0-0.95,0-1.9-0.01-2.85c-6.42-0.04-12.85,0.09-19.27-0.17c-3.53-0.14-7.21,1.06-10.59-0.9c-0.32-0.11-3.12-2.14-3.44-2.02
		c-0.63,6.64,0.78,14.16-1.35,20.73c0,0,2.83,1.29,2.83,1.29c-8.66,5.28-14.6-4.68-17.29,6.2c-2.32,9.39,3.43,22.29,0,31.62
		c-0.08,0.28,1.29-0.29,1.27,0C60.96,284.27,59.27,286.34,57.39,288.13z"/>
	<path class="st114" d="M108.8,225.47c0,0.95,0,1.9,0.01,2.85c0.06,13,0.12,25.99,0.17,38.99c1.51,4.03,1.42,8.05,0.01,12.08
		c0,0.3,0,0.61,0,0.91c2.84,0.6,2.84,2.9,2.9,5.05c0.09,3.32,0.04,6.64,0.04,9.95c4.63,0,9.26,0,13.88,0
		c0.04-19.6,0.07-39.2,0.17-58.8c0.01-1.73-0.74-3.68,0.9-5.16c0.08-1.94,0.15-3.89,0.23-5.83c-0.05-0.37-0.1-0.73-0.15-1.1
		c-0.81-0.43-1-1.19-1.04-2.02c-5.56-2.05-11.33-0.53-16.98-1c-0.03,1.02-0.06,2.05-0.09,3.07
		C108.84,224.8,108.82,225.14,108.8,225.47z"/>
	<path class="st115" d="M111.96,275.08c0.02,10.97,0.04,21.95,0.06,32.92c0.98,0,1.96,0,2.94,0c3.32,0.06,6.64,0.12,9.95,0.18
		c0.27-0.32,0.56-0.46,0.85-0.4c0.2-7.33,0.39-14.66,0.58-22l-5.93-22.01C116.27,269.32,116.11,269.54,111.96,275.08z"/>
	<path class="st116" d="M97.93,375.24c0.01-21.65,0.01-43.3,0.02-64.95c-4.43,3.85-1.07,24.63-1.06,29.66
		c0.01,11.72-1.15,23.59,0.1,35.27C97.31,375.23,97.62,375.24,97.93,375.24z"/>
	<path class="st117" d="M258.86,638.01c-0.01,7.32-0.03,14.64-0.04,21.96c4.41,0,8.82,0.01,13.23-0.02
		c1.59-0.01,3.42,0.38,3.83-1.96c0.34-3.49-0.38-6.76-2-9.85c-1.06-0.28-2.4,0.21-3.04-1.16c0.05-3.65,0.11-7.3,0.16-10.95
		c0,0-0.42-0.02-0.42-0.02C266.69,636.76,262.15,633.72,258.86,638.01z"/>
	<path class="st6" d="M247.77,694.06c-1.14,9.79,10.71-4.03,2.72-5.01C247.3,688.65,247.97,691.28,247.77,694.06z"/>
	<path class="st118" d="M270.84,646.98c0.64,1.37,1.99,0.88,3.04,1.16c2.12-0.03,4.27-0.3,6.35-0.05c4.77,0.58,7.58-0.72,6.73-6.15
		c-0.11-2.22-0.22-4.45-0.32-6.67c-0.28-0.08-0.54-0.19-0.8-0.31c-5.06,0.68-10.3-1.24-15.25,1.06c0,0,0.42,0.02,0.42,0.02
		c5.78-0.03,14.8-2.7,14.97,5.31C286.16,649.63,276.56,647.01,270.84,646.98z"/>
	<path class="st119" d="M23.03,370.35c-0.31-2.67,0.48-5.33-1.53-7.95c-1.78-2.33,2.75-2.86,2.54-5.17
		c-0.02-10.65,3.85-26.2-11.35-23.6c3.14-5.67,14.73-2.15,12.38-7.31c-2.06,1.43-4.14,0.04-6.16-0.1c-4.08-0.29-7.33,0.16-7.81,5.13
		c-0.07,5.29-0.14,10.58-0.22,15.86c0.04,5,0.08,10,0.13,15c4.11,1.57,5.83,4.5,5.01,8.86C18.36,370.93,20.85,372.21,23.03,370.35z"
		/>
	<path class="st104" d="M15.91,371.92c1.07-4.77-0.75-7.9-5.3-9.49c-0.19,0.13-0.22,0.15-0.41,0.29c-0.04,2.81-0.08,5.62-0.11,8.44
		C13.56,371.61,12.44,371.46,15.91,371.92z"/>
	<path class="st120" d="M330.78,376.23c-2.27,0.53-4.53-0.98-6.8,0c-0.04,7.63-0.08,15.27-0.11,22.9c0.3,0.31,0.6,0.62,0.91,0.94
		c2.8,0.89,5.24-1.75,8.04-0.81c0.32-0.13,0.64-0.25,0.96-0.38c0.02-5.78-0.25-7.94,3.52-11.54c3.43-3.27,7.64,0.74,6.31-7.15
		c-1.04-3.45-3.47-4.37-6.83-4.01C334.79,376.41,332.78,376.23,330.78,376.23z"/>
	<path class="st121" d="M369.6,451.93c0.25,0.05,0.5,0.09,0.76,0.12c0.18-12.94,0.37-25.87,0.56-38.81
		c-0.09-10.02-0.18-20.03-0.27-30.05c-1.43,1.75-0.79,3.81-0.8,5.74C369.73,409.93,369.67,430.93,369.6,451.93z"/>
	<path class="st122" d="M333.77,398.89c-0.32,0.13-0.64,0.25-0.96,0.38c-0.08,6.89-0.17,13.78-0.25,20.67
		c0.11,0.14,0.22,0.28,0.34,0.41C334.89,413.26,333.27,406.03,333.77,398.89z"/>
	<path class="st123" d="M282.85,512.13c-6.49-0.01-13,0.23-19.47-0.13c-4.8-0.26-6.34,0.95-6.31,5.47
		c0.08,14.05,0.11,28.1,0.13,42.15c-1.04,7.69-0.87,15.63-0.41,23.42c0.21,3.63,0.34,7.25,0.43,10.87c0,7.94,0,15.87,0,23.81
		c-0.11,5.63-0.25,11.27-0.4,16.92c-0.13,5.02,6.84,6.72,9.32,2.52c0.25-0.43,0.49-0.86,0.74-1.3c1.61,0.19,3.23,0.41,4.76,0.14
		c5.45-2.3,11.23-0.38,16.81-1.06c-0.01-27.63-0.03-55.25-0.04-82.88c-0.15,0.01-0.3,0.01-0.45,0c0.15,0.01,0.3,0.01,0.45,0
		c0.01-10.65-0.13-21.31,0.09-31.95C288.58,516.11,288.45,512.71,282.85,512.13z"/>
	<path class="st124" d="M332.56,419.93c0.08-6.89,0.17-13.78,0.25-20.67c-2.8-0.94-5.24,1.7-8.03,0.81
		c-2.23,6.58-0.54,13.35-0.98,20.01C326.72,420.03,329.64,419.98,332.56,419.93z"/>
	<path class="st112" d="M323.8,420.08c0.43-6.66-1.26-13.43,0.98-20.01c-0.3-0.31-0.61-0.63-0.91-0.94
		c-0.36,0.04-0.73,0.08-1.09,0.11c0,6.96,0.01,13.92,0.01,20.88C323.12,420.11,323.46,420.1,323.8,420.08z"/>
	<path class="st125" d="M264.77,235.23c-0.29,0.11-0.58,0.19-0.89,0.21c-6.64,1.99-7.08,1.67-7.09-5.03
		c-0.01-4.31-0.05-8.61-0.08-12.92c-5.29-5.03-10.59-10.06-15.88-15.08c-3.4,0.74-1.91,3.49-1.92,5.29
		c-0.15,35.22-0.18,70.45-0.23,105.68c-0.05,6.95,0.81,13.89,0.05,20.84c11.7,0.01,23.41,0.03,35.11,0.04
		c0.01-0.34,0.01-0.69,0.02-1.03c-0.47-1.31-0.2-2.59,0.12-3.87c-0.04-26.28-0.08-52.57-0.12-78.85c0-0.84,0.11-1.66,0.88-2.2
		c4.65-5.01,6.8-11.07-1.07-15.91c-0.86,2.3-0.25,5.34-2.39,6.54C268.25,240.63,265.07,238.47,264.77,235.23z"/>
	<path class="st126" d="M273.85,334.25c-11.7-0.01-23.41-0.03-35.11-0.04c-0.34,0.04-0.66,0-0.98-0.14
		c-4.63,0.01-9.25,0.02-13.88,0.03c-3.62-1.23-7.23,0.44-10.84,0.04c-7.72,0.06-15.43,0.12-23.15,0.19
		c-0.07,1.46,0.48,3.67-0.99,4.11c-6.37,1.89-5.31,7.25-6,11.83c1.68,0.25,3.59-0.66,4.99,0.99c7,0,14,0,21-0.01
		c1.48-1.61,3.43-0.95,5.18-0.95c36.19-0.03,72.38-0.02,108.58-0.02c0-5.3,0-10.59,0-15.89c-5.75-0.04-11.51,0.09-17.25-0.17
		c-3.86-0.17-7.85,1-11.58-0.89c-0.33-0.09-0.65-0.08-0.97,0.03C286.57,335.25,280.17,333.88,273.85,334.25z"/>
	<path class="st127" d="M289.81,275.74c-0.97,5.82,7.72,8.49,11.07,4.44c4.71-5.69-1.59-10.8-6.69-10.85
		C289.86,269.29,289.86,269.29,289.81,275.74z"/>
	<path class="st128" d="M313.13,296.3c-16.03-0.79,5.47,23.19,5.7,4.15C318.88,296.15,315.9,296.44,313.13,296.3z"/>
	<path class="st129" d="M274.75,248.29c-0.77,0.54-0.88,1.36-0.88,2.2c0.04,26.28,0.08,52.57,0.12,78.85
		c0.92-0.94,0.77-2.14,0.77-3.29C274.76,300.13,274.75,274.21,274.75,248.29z"/>
	<path class="st130" d="M264.77,235.23c0.31,3.24,3.48,5.41,6.53,3.7c2.14-1.2,1.53-4.25,2.39-6.54c0.01-4.73-3.87-2.13-5.85-3.11
		C265.41,230.54,264.33,232.5,264.77,235.23z"/>
	<path class="st131" d="M300.89,289.82c-3.56,10.46,17.88-3.65,3.64-4.67C300.79,284.88,300.44,286.85,300.89,289.82z"/>
	<path class="st132" d="M322.78,399.25c0.36-0.04,0.73-0.08,1.09-0.11c0.04-7.63,0.08-15.27,0.11-22.9
		c-0.11-5.99-0.23-11.97-0.34-17.96c-0.24-0.01-0.48-0.03-0.71-0.04c-1.17,4.65-0.32,9.34-0.23,14.01
		c-0.02,1.99-0.03,3.97-0.05,5.96C322.69,385.21,322.74,392.23,322.78,399.25z"/>
	<path class="st133" d="M293.79,333.34c3.73,1.89,7.72,0.72,11.58,0.89c5.74,0.26,11.5,0.13,17.25,0.17c0.05-0.3,0.06-0.6,0.04-0.9
		C313.04,333.44,303.42,333.39,293.79,333.34z"/>
	<path class="st134" d="M322.91,333.5c0.19,2.36-1.81,4.64-6.22,7c0.17,2.68,0.19,3.05,0.36,5.73c8.32,3.3,8.01,6.38-2.01,9.84
		c0.11,0.86,0.09,0.69,0.19,1.55c3.02,0.23,5.87,0.48,8.65,0.64c0.05-7.26,0.11-14.51,0.14-21.77
		C324.03,335.38,324.26,334.13,322.91,333.5z"/>
	<path class="st133" d="M273.85,334.25c6.32-0.37,12.73,1,18.98-0.89c-6.32-0.05-12.64-0.1-18.96-0.15
		C273.86,333.56,273.85,333.91,273.85,334.25z"/>
	<path class="st135" d="M274.6,183.41c2.84,2.39,5.86,2.97,9.15,0.92c0.2-11.2,0.2-11.2-8.92-10.91
		C274.75,176.75,274.67,180.08,274.6,183.41z"/>
	<path class="st136" d="M237.87,197.39c11.83,6.39,13.93-0.99,14.06-9.99c-0.08-1.68-0.17-3.36-0.25-5.04c0,0-0.43,0.02-0.43,0.02
		s-0.43-0.01-0.43-0.01c0,0-0.13-0.06-0.13-0.06c0.04,2.8,0.11,5.6,0.12,8.4c0.03,6.88,0.01,6.88-6.97,6.66
		C241.86,197.38,239.86,197.39,237.87,197.39z"/>
	<path class="st137" d="M274.82,173.42c9.12-0.3,9.12-0.3,8.92,10.91c0.26,0.02,0.51,0,0.77-0.05c0.1-1.66,0.26-3.32,0.28-4.98
		C284.88,171.63,282.46,170.21,274.82,173.42z"/>
	<path class="st138" d="M250.83,182.37l0.43,0.01c0,0,0.43-0.02,0.43-0.02c0.06-5.96,0.13-11.93,0.19-17.89
		c-0.4-0.94-0.78-0.61-1.15,0.02C250.76,170.45,250.79,176.41,250.83,182.37z"/>
	<path class="st139" d="M236.78,145.09c-1.87-2.83-0.34-6.03-0.96-9c-1.54-1.5-0.9-3.42-0.92-5.17c-0.09-8.59-0.08-17.17-0.11-25.76
		c-1.98-0.02-3.96,0.11-5.92-0.08c-5-0.47-10.12,1.18-15.01-0.94c0,0,0-0.02,0-0.02c0,0-0.49,0-0.49,0l-0.49-0.03
		c-2.44,2.84-2.41,10.17-6.51,10.14c0.74,0.01-8.77-7.9-9.16-8.37c-2.44-2.96-2.6-6.07-5.97-8.66c-2.43-1.86-6.72,0.45-6.71-4.46
		c-12.51,3.17,4.58,7.75,0.24,12.35c-0.97,1.03-7.57-0.12-10.43,2.56c-3.1,2.9-2.14,8.07-6.14,10.38c-0.22,2.62-0.31,3.6-0.53,6.22
		l3.28,2.8c1.86,4.63,0.77,9.46,0.81,14.18c0.03,3.47,0.63,4.98,4.62,4.94c18.75-0.21,37.5-0.09,56.24-0.12
		C234.04,146.05,235.64,146.51,236.78,145.09z M212.49,110.09c2.79-2.07,4.64,1.24,7.04,0.92c3-0.41,3.55,4.21,0.86,4.91
		C217.76,116.61,213.11,113.05,212.49,110.09z"/>
	<path class="st140" d="M238.89,160.46c-0.01-4.34-0.03-8.68-0.04-13.02c-0.34-0.03-0.68-0.06-1.02-0.09
		c-13.65,0.05-27.3,0.1-40.94,0.14c-1.62,13.17,14.59,3.47,18.69,11.85c0.69,1.41-3.38,9.52,3.67,8.74c5.53-0.62,0.76-5.59,2.8-7.25
		c1.44,1.38,2.72,2.82,2.96,4.93c0.29,0.25,0.58,0.5,0.87,0.74c4.01-0.12,8.01-0.23,12.02-0.35
		C237.72,164.17,237.74,162.21,238.89,160.46z"/>
	<path class="st141" d="M235.75,104.54c1.34-0.02,2.68-0.04,4.03-0.07c0.03-6,0.07-12,0.1-18c0,0-0.02,0.01-0.02,0.01
		c-3,0.01-6,0.03-9.01,0.04c1.73,13.84-7.53,19.74-16.89,7.99c-0.04,3.33-0.07,6.65-0.11,9.98c0,0,0,0.02,0,0.02
		C221.15,104.52,228.45,104.53,235.75,104.54z"/>
	<path class="st142" d="M196.88,147.49c13.65-0.05,27.3-0.1,40.94-0.15c-0.01-0.82-0.2-1.54-1.05-1.89
		c-1.13,1.41-2.73,0.96-4.17,0.96c-18.75,0.03-37.5-0.1-56.24,0.12c-3.98,0.04-4.59-1.47-4.62-4.94c-0.04-4.72,1.05-9.55-0.81-14.18
		c-0.02,3.68,1.24,10.58-0.01,13.96c-1.45,3.93-1.52,2.86-4.18,5.15c-2.36,2.04-4.11-0.63-5.73,3.42c-1.11,2.78,0.08,6.07,2.22,7.63
		c9.27,6.78,8.36-5.68,11.02-8.68C177.55,145.18,192.26,147.48,196.88,147.49z"/>
	<path class="st143" d="M239.88,86.47c-0.03,6-0.07,12-0.1,18c4.54,2.1,9.34,0.58,14.01,1c1.96,0.18,3.94,0.11,5.91,0.16
		c0.06-0.32,0.08-0.65,0.08-0.97c-3.83-0.06-15.36,1.63-18.03-1.09c-2.7-2.74-0.96-13.47-0.97-17.01
		C240.48,86.51,240.18,86.48,239.88,86.47z"/>
	<path class="st144" d="M234.78,105.53c0.03,8.59,0.02,17.17,0.11,25.76c0.02,1.74-0.63,3.67,0.92,5.17
		c-0.03-10.31-0.06-20.63-0.09-30.94c0,0-0.47-0.01-0.47-0.01S234.78,105.53,234.78,105.53z"/>
	<path class="st145" d="M259.78,104.66c0.01,0.33-0.02,0.65-0.08,0.97c0.1,8.97,0.19,17.93,0.29,26.9c0.27-0.04,0.55-0.07,0.82-0.09
		c0,0,0.09,0.06,0.09,0.06c-0.03-7.75-0.02-15.5-0.13-23.25C260.75,107.69,261.44,105.89,259.78,104.66z"/>
	<path class="st146" d="M234.78,105.15l0.47-0.02c0,0,0.47,0.01,0.47,0.01c0.05-0.33,0.06-0.65,0.03-0.98
		c-7.3-0.01-14.6-0.01-21.9-0.02c4.89,2.12,10.02,0.47,15.01,0.94C230.82,105.26,232.81,105.14,234.78,105.15z"/>
	<path class="st147" d="M260.81,132.44c-0.27,0.02-0.55,0.05-0.82,0.09c0,4.98,0.01,9.95,0.01,14.93
		C261.81,142.53,260.39,137.44,260.81,132.44z"/>
	<path class="st16" d="M237.88,166.15c-4.01,0.12-8.01,0.23-12.02,0.35c0.05,2.97,0.1,5.94,0.15,8.92c7.17-0.13,7.17-0.13,6.84,5.99
		c1.54,0.84,2.79,2.39,4.85,2c0.45-0.88,1.24-1.07,2.13-1.04c3.62-0.02,7.24-0.04,10.86-0.06c0,0,0.13,0.06,0.13,0.06
		c-0.04-5.96-0.07-11.92-0.11-17.88c-3.88,0.93-7.84,1.02-11.8,0.97C238.57,165.69,238.23,165.92,237.88,166.15z"/>
	<path class="st148" d="M168.07,118.47c4.14-2.28,3.13-7.52,6.26-10.45c2.86-2.68,9.46-1.53,10.43-2.56
		c4.35-4.6-12.74-9.18-0.24-12.35c-0.01,4.92,4.28,2.6,6.71,4.46c3.38,2.59,3.54,5.71,5.97,8.66c0.39,0.48,9.9,8.38,9.16,8.37
		c4.09,0.03,4.07-7.3,6.51-10.14c0-5.77-2.31-15.85,2.94-18.9c4.57-2.66,18.58-0.07,24.03-0.06c0.33-6.85-12.77-6.21-16.91-10.86
		c-4.43-4.98-6.77-16.7-2.07-22.04c-16.3,0.01-32.61,0.01-48.91,0.02c-0.04,2-0.07,3.99-0.11,5.99c0.03,0.33-0.02,0.65-0.16,0.96
		c0.01,0.97,0.02,1.94,0.04,2.91c0.06,6.42-0.04,12.85,0.24,19.26c0.13,3.15-1.1,4.19-3.99,3.86l0.08,0.04
		c-0.06,2.59-0.13,5.18-0.19,7.77c-0.79,4.15-1.49,8.33-3.92,11.94C168.7,108.66,165.97,114.33,168.07,118.47z"/>
	<path class="st149" d="M171.95,52.63c16.3-0.01,32.61-0.02,48.91-0.02c0.95-0.09,1.89-0.17,2.84-0.26c0.03-0.3,0.01-0.59-0.07-0.88
		c-17.24,0.01-34.49,0.01-51.73,0.02c-1.07,0.13-2.3-0.17-2.91,1.14C169.98,52.62,170.97,52.62,171.95,52.63z"/>
	<path class="st150" d="M239.79,85.12c-5.46-0.01-19.49-2.6-24.06,0.06c-5.25,3.06-2.94,13.14-2.94,18.92c0,0,0.49,0.03,0.49,0.03
		s0.49,0,0.49,0c0.04-3.61,0.08-7.23,0.12-10.84c-0.04-0.92-0.11-2.43-0.15-3.36c-0.2-2.89,1.09-4.34,4.76-3.91
		c2.73,0.32,5.53,0.1,8.3,0.12c1.33,0,2.67,0,4,0c3.01-0.01,6.01-0.03,9.02-0.04C239.84,85.77,239.83,85.44,239.79,85.12z"/>
	<path class="st151" d="M171.9,51.48c17.24-0.01,34.49-0.01,51.73-0.02c0.05-4.57,0.09-9.15,0.14-13.72
		c-5.59-0.11-11.17-0.22-16.76-0.33c-3.07,0.09-6.2,0.72-9.12-0.85c-1.31,1.5-3.07,0.95-4.66,0.96c-8.11,0.05-16.22,0.03-24.33,0.04
		C170.65,42.04,172.77,46.44,171.9,51.48z"/>
	<path class="st152" d="M199.93,33.58c0.37,5.51,4.64,1.93,6.93,2.97c-0.04-4.34-0.09-8.67-0.13-13.01
		C206.67,28.39,200.96,29.39,199.93,33.58z"/>
	<path class="st14" d="M63.9,166.49c-0.02,5.64-0.04,11.28-0.06,16.92c0.1,11.33,0.2,22.65,0.3,33.98
		c4.29-7.05,2.96-15.34,2.51-23.12c-0.15-2.67-2.5-17.76-0.64-19.16c7.72-5.85,3.54,23.78,10.81,25.29c0.1-2.01,0.19-4.02,0.28-6.03
		c-0.08-9.27-0.15-18.55-0.23-27.82c-3.93-0.73-8.11,1.05-11.9-1.16C64.62,165.75,64.26,166.12,63.9,166.49z"/>
	<path class="st153" d="M108.95,221.38c5.65,0.46,11.42-1.06,16.98,1c-0.04-3.41,0.59-6.95-1.97-9.85c-2.35,0-4.69,0.01-7.04,0.01
		C113.73,215.01,113.24,219.91,108.95,221.38z"/>
	<path class="st154" d="M116.92,212.54c2.35,0,4.69-0.01,7.04-0.01c2.01-0.1,4.02-0.2,6.02-0.3c-0.04-0.23-0.08-0.46-0.13-0.7
		c-17.23-0.08-34.47-0.16-51.7-0.24c-0.18,0.05-0.35,0.1-0.53,0.15c1.5,1.51,3.43,0.9,5.17,0.91
		C94.16,212.46,105.54,212.49,116.92,212.54z"/>
	<path class="st155" d="M61.12,281.38c3.43-9.34-1.49-20.45,0.83-29.84c2.69-10.88,6.39-1.86,15.04-7.14
		c-5.55,0.01-12.68-1.75-15.94,2.6c-2.75,3.67-0.22,20.78-0.24,25.35C60.92,275.36,61.02,278.37,61.12,281.38z"/>
	<path class="st156" d="M63,288.89c1.88-1.78-2.32-4.62-2.04-6.67c-2.69,0.73-5.7-0.98-8.21,1.09c0.9,1.8-0.83,3.17-0.78,4.83
		C54.63,288.21,60.34,288.82,63,288.89z"/>
	<path class="st157" d="M108.8,225.47c0.02-0.34,0.04-0.68,0.06-1.02c-9.97-0.02-19.94-0.03-29.91-0.05
		c3.38,1.96,7.06,0.76,10.59,0.9C95.95,225.56,102.38,225.44,108.8,225.47z"/>
	<path class="st158" d="M52.75,283.31c2.51-2.07,5.52-0.36,8.21-1.09c0.03-0.29,0.08-0.57,0.15-0.84c-0.1-3.01-0.2-6.02-0.3-9.03
		c-1.6,1.52-1.54,5.93-3.15,7.97C56.57,281.72,49.97,278.45,52.75,283.31z"/>
	<path class="st159" d="M34.94,311.21c1.53,0.2,2.84,0.02,3.16-1.84c0.19-12.66-2.16-11.18,8.99-10.93
		c0.66-0.34,1.32-0.68,1.98-1.02C33.43,294.76,42.51,304.4,34.94,311.21z"/>
	<path class="st160" d="M26.97,317.27c-0.31-5.88,5.08-4.32,7.93-6.06c-13.68,0.14-4.39,3.41-11.02,9.8
		c0.07,0.19,0.16,0.38,0.26,0.56C26.63,321.15,25.4,318.29,26.97,317.27z"/>
	<path class="st161" d="M11.09,331.35c0.47-4.97,3.73-5.42,7.81-5.13c2.02,0.14,4.1,1.54,6.16,0.1c0,0,0-0.01,0-0.01
		c-0.31-1.58-0.61-3.16-0.92-4.75c-0.1-0.18-0.19-0.37-0.26-0.56c-0.48,3.52-2.44,4.79-5.96,4.32c-2.26-0.3-4.59-0.04-6.9-0.04
		C11.05,327.31,11.07,329.33,11.09,331.35z"/>
	<path class="st162" d="M11.09,331.35c-0.02-2.02-0.04-4.04-0.06-6.06c-2.26,7.26-0.49,14.67-0.86,22c0.24-0.03,0.47-0.05,0.71-0.08
		C10.95,341.93,11.02,336.64,11.09,331.35z"/>
	<path class="st163" d="M77.04,244.39c2.12-6.57,0.32-13.33,0.95-19.98c-2.2,4.53-0.56,9.34-0.99,14
		C76.81,240.38,77.01,242.39,77.04,244.39z"/>
	<path class="st164" d="M77.11,194.37c-0.09,2.01-0.19,4.02-0.28,6.03c0.64,3.65-0.56,7.44,0.79,11.04c0.18-0.05,0.36-0.1,0.53-0.15
		c0-2.95,0.01-5.91,0.01-8.86c-0.12-2.67-0.23-5.34-0.34-8C77.58,194.41,77.34,194.39,77.11,194.37z"/>
	<path class="st165" d="M10.87,347.22c-0.24,0.03-0.48,0.06-0.71,0.08c0.01,5.02,0.03,10.04,0.04,15.06
		c0.27-0.04,0.53-0.09,0.8-0.15C10.96,357.21,10.92,352.21,10.87,347.22z"/>
	<path class="st166" d="M98.09,36.68c-0.78,5.36,0.93,10.9-1.09,16.18c-4.47,1.55-13.7-1.47-16.96,1.63
		c-2.91,2.77-1.04,14.32-1.03,18.04c1.02-0.01,5.37,0.66,6.36-0.05c4.2-3.04-1.26-4.75-0.44-7.1c1.13-3.23,2.42-7,7.94-2.5
		c3.54,2.88,5.01,14.97,2.97,18.94c-2.5,4.87-11.72,2.67-16.84,2.66c-0.6,4.63,0.95,9.4-0.88,13.95c0.01,3.68,0.01,7.36,0.02,11.05
		c5.74-2.25,21.84-11.97,17.76,2.47c-1.46,5.18,0.6,1.91-4.66,4.82c-3.53,1.95-9.14,3.87-13.15,2.66c-0.35,0.63-0.1,1.67-1.22,1.78
		c0,0,0.13,0.32,0.13,0.32c1.89,4.19,0.56,8.61,0.95,12.91c3.75,0,13.17,1.74,16.39-0.04c4.04-2.23,1.16-4.36,2.63-7.83
		c3.31-7.81,4.83-1.57,11.91-5.16c5.16-2.62,5.53-18.04,0.35-21.23c-6.53-4.02-13.52,5.71-14.8-6.05
		c-0.94-8.63,4.01-7.25,10.26-8.62c9.03-1.99,7.21-5.41,7.17-14.53c-0.01-3.44-1.69-13.02,0.32-15.88c2.21-3.16,7.12-1.2,10.39-1.57
		c10.25-1.15,7.35-7.15,7.4-16.81c-1.01-0.16-2.01-0.33-3.02-0.5c-4.36,0.04-8.72,0.08-13.08,0.13
		C108.62,36.46,103.35,36.57,98.09,36.68z"/>
	<path class="st167" d="M79,84.48c5.12,0,14.34,2.21,16.84-2.66c2.04-3.97,0.57-16.06-2.97-18.94c-5.53-4.5-6.82-0.73-7.94,2.5
		c-0.82,2.35,4.64,4.06,0.44,7.1c-0.99,0.71-5.34,0.04-6.36,0.05C79.01,76.52,79,80.5,79,84.48z"/>
	<path class="st168" d="M77.96,134.44c-0.39-4.3,0.94-8.72-0.95-12.91c-4,0.01-8,0.02-12.01,0.03c-0.01,14.61-0.01,29.21-0.02,43.82
		c3.79,2.2,7.97,0.42,11.9,1.16c0.36-0.04,0.73-0.09,1.09-0.13C77.97,155.76,77.97,145.1,77.96,134.44z"/>
	<path class="st169" d="M78.09,119.43c4.02,1.21,9.62-0.71,13.15-2.66c5.26-2.91,3.2,0.36,4.66-4.82
		c4.08-14.44-12.02-4.72-17.76-2.47C78.12,112.8,78.11,116.12,78.09,119.43z"/>
	<path class="st170" d="M168.9,37.56c8.11-0.01,16.22,0.01,24.33-0.04c1.59-0.01,3.35,0.54,4.66-0.96
		c-21.69-0.04-43.38-0.08-65.07-0.12c0,0,0.12,0.11,0.12,0.11c1.48,1.6,3.42,0.94,5.16,0.95C148.37,37.58,158.63,37.55,168.9,37.56z
		"/>
	<path class="st171" d="M168.9,37.26c-10.27-0.01-20.53,0.01-30.8-0.06c-1.89-0.01-4.01,0.77-5.52-1.4
		c-1.35,0.39-1.24,0.36-2.59,0.76c-0.02,9.57,2.8,15.52-7.4,16.66c-3.27,0.37-8.18-1.59-10.39,1.57
		c-2.01,2.86-0.33,12.43-0.32,15.88c0.04,9.12,1.86,12.54-7.17,14.53c-6.25,1.38-11.19-0.01-10.26,8.62
		c1.28,11.76,8.27,2.04,14.8,6.05c5.18,3.19,4.81,18.61-0.35,21.23c-7.08,3.59-8.61-2.65-11.91,5.16c-1.47,3.48,1.41,5.61-2.63,7.83
		c-3.22,1.78-12.64,0.04-16.39,0.04c0,10.66,0,21.31,0.01,31.97c0,0-0.02,0.03-0.02,0.03c2.33,0,4.66,0,6.99,0
		c5.35-1.04,17.71-3.39,22.81-1.01c5.9,2.75-1.85,5.53,3.18,10.03c-0.02,7.37-0.4,7.77,6.31,8.97c9.29,1.65,20.19,0,29.65,0
		c1.49-0.07,2.91-0.05,3.05,1.97c5.32,2.82,8.45,12.63,16.13,7.84c6.55-4.07,2.65-11.04,11.82-3.85c4.64,0.02,9.28,0.04,13.92,0.05
		c2.42-0.77,24.11-4.34,23.07-5.99c3.32-0.9,7.35,1.85,10.1-1.97c0-5.58,0.01-11.16,0.01-16.73c-0.23-2.11-1.52-3.56-2.96-4.93
		c-2.04,1.67,2.73,6.64-2.8,7.25c-7.05,0.79-2.98-7.32-3.67-8.74c-4.1-8.38-20.31,1.32-18.69-11.85
		c-4.62-0.01-19.33-2.31-22.63,1.41c-2.66,3-1.74,15.46-11.02,8.68c-2.14-1.57-3.34-4.85-2.22-7.63c1.62-4.05,3.37-1.38,5.73-3.42
		c2.66-2.29,2.73-1.23,4.18-5.15c1.25-3.38-0.01-10.28,0.01-13.96c-1.09-0.93-2.19-1.87-3.28-2.8c0.06,5.87-3.54,6.47-8.22,5.89
		c-2.08-0.26-4.24,0.05-6.36,0.1c-0.21,11.48,1.79,17.24-10.68,17.78c-11.25,0.48-12.58,0.22-12.53-10.85
		c-0.31-0.07-0.63-0.1-0.95-0.08c-0.01,4.73,1.48,10.04-4.59,10.73c-7.64,0.87-7.4-7.8-6.37-12.67c-2.3-6.41-0.81-13.02-0.95-19.53
		c-0.26-12.61-0.07-12.62,12.68-12.45c-0.28-2.35-0.56-4.7-0.84-7.05c-1.47-1.44-1.18-3.61-2.34-5.31
		c-1.51-2.22-0.32-5.28,1.71-5.96c4.89-1.63,5-5.11,4.7-9.04c-0.26-3.41,1.21-4.76,4.64-4.68c6.45,0.15,12.9,0.04,19.35,0.04
		c3.01,0.09,2.86-2.71,3.86-4.36c2.54-4.18,7.49-4.76,10.92-7.58c0.13-0.31,0.19-0.63,0.16-0.96c-3.42-0.83-3.26-3.35-2.85-5.99
		c0.6-1.31,1.84-1.01,2.91-1.14C172.77,46.13,170.65,41.73,168.9,37.26z"/>
	<path class="st172" d="M47.08,298.43c-11.15-0.25-8.8-1.73-8.99,10.93C44.35,310.34,46.67,307.01,47.08,298.43z"/>
	<path class="st173" d="M89.73,298.16c-7.39-2-14.92-0.28-22.36-0.89c-1.86-0.15-3.98,0.9-5.53-1.01c0.67,1.96,0.67,2.03,2.76,2.03
		C72.99,298.28,81.36,298.21,89.73,298.16z"/>
	<path class="st119" d="M24.14,321.57c0.31,1.58,0.61,3.16,0.92,4.75c2.84-2.55,1.68-5.95,1.91-9.05
		C25.4,318.29,26.63,321.15,24.14,321.57z"/>
	<path class="st174" d="M182.89,349.98c0.69-4.59-0.36-9.95,6-11.83c1.47-0.44,0.92-2.64,0.99-4.11
		c-19.43-0.02-38.86-0.01-58.29-0.08c-1.89-0.01-4.02,0.76-5.65-0.99c0,0,0.08-0.1,0.08-0.1c-0.33,0.02-0.67,0.03-1,0.05
		c-3.68,0.02-7.36,0.04-11.04,0.06c-0.05,10.52-2.63,17.94,9.95,17.16h4.98c3-1.75,6.01,1.57,9.01,0.82c3.66,0,7.33,0,10.99,0.18
		l7.99,0l3.99,0l9-1h7.99C179.64,351.03,181.34,350.9,182.89,349.98z"/>
	<path class="st106" d="M156.91,351.13c-2.66,0-5.33,0-7.99,0C148.79,357.53,160.54,361.91,156.91,351.13z"/>
	<path class="st107" d="M182.89,350.27c-1.55,0.92-3.25,1.05-5,0.97c-0.28,2.29,1.03,3.52,3.03,3.81c3.15,0.46,5.37-1.17,6.96-3.79
		C186.48,349.62,184.57,350.53,182.89,350.27z"/>
	<path class="st107" d="M137.92,351.24c-3,0.76-6.01-2.56-9.01,0C132.06,354.51,135.81,359.36,137.92,351.24z"/>
	<path class="st107" d="M169.9,351.13c-3,0-6,0-9,0c0.76,1.65,5.31,5.64,7.4,4.61C171.41,354.2,168.93,353.93,169.9,351.13z"/>
	<path class="st112" d="M221.04,471.17c3.46,4.03-3.03,15.56,4.91,7.55c4.29-4.33,5.72-13.97-3.86-8.97
		C221.6,470.01,221.36,470.72,221.04,471.17z"/>
	<path class="st112" d="M235.9,469.73c-2.21-2.48-3.9-4.38-5.74-6.45C229.67,469.21,229.67,469.21,235.9,469.73z"/>
	<path class="st112" d="M247.03,471.32c-0.04,5.27,8.5-2.13,2.23-2.02C248,469.33,247.21,470.13,247.03,471.32z"/>
	<path class="st112" d="M309.04,384.92c0.92,6.63,9.13-7.57,5.1-6.52C310.73,379.29,310.38,382.57,309.04,384.92z"/>
	<path class="st175" d="M113.98,333.26c3.68-0.02,7.36-0.04,11.04-0.06c-0.03-8.28-0.07-16.56-0.1-24.84
		c-3.32-0.02-6.64-0.04-9.96-0.05c-2.12,6.08-0.56,12.37-0.99,18.54C113.82,328.98,113.97,331.13,113.98,333.26z"/>
	<path class="st176" d="M322.7,409.72c0.35-5.38,0.63-10.76,0.87-16.14c0.4-0.68,0.64-1.47,0.65-2.33
		c0.01-8.36,0.03-16.73,0.04-25.09c0.02-2.78,0.03-5.56,0.01-8.34c0-1.06-0.28-1.94-0.74-2.65c0.15-0.33,0.31-0.65,0.48-0.97
		c-0.98-1.65-0.83-1.41-1.81-3.06c-3.61,0-7.23,0-10.84,0v0h-13.55c-3.33,0-6.66,0-9.99,0c0,1.69-0.04,2.97-0.1,3.95
		c-0.01-0.08-0.02-0.16-0.04-0.24c0.09-1.11,0.14-2.62,0.14-4.7h-6c-0.16,0.27-0.33,0.53-0.5,0.78c-8.74-1.56-17.7-1.27-26.57-1.11
		c-0.87-1.21-2.23-2.04-3.89-1.97c-22.93,0.95-45.86,2.05-68.81,2.52c-1.39,0.03-2.77,0.05-4.16,0.07c0.01-0.1,0-0.19,0.01-0.3
		h-7.99c-0.04,0.14-0.06,0.27-0.09,0.4c-7.43,0.06-14.87,0.04-22.3-0.12c-4.12-0.09-8.23-0.24-12.34-0.41
		c-3.14-0.52-6.31-0.91-9.5-1.06c-1.81-0.09-3.62-0.1-5.43-0.06c-0.7,0.02-1.4,0.06-2.1,0.09c-1.41-0.49-2.47-1.23-2.85-2.38
		c-0.27-0.82-0.76-1.52-1.38-2.09c-0.43-3.02,0.05-6.94,0.07-11.42c-0.01-2.14-0.16-4.28-0.01-6.41c0.43-6.18-1.13-12.46,0.99-18.54
		c-0.98,0-1.96,0-2.94,0c-1.87,3.23-5.01,1.69-7.63,1.94c-2.13,0.2-4.29,0.04-6.44,0.04c-0.01,21.65-0.01,43.3-0.02,64.95
		c0.01,9.37,0.02,18.75,0.03,28.12c-1.6,10.69-1.79,21.56-0.52,32.37c0.08,0.65,0.26,1.25,0.53,1.79
		c-0.01,4.61-0.01,9.22-0.02,13.83c4.67,3.14,10.01-0.68,13.22,5.31c1.99,3.71-2.2,11.05,3.69,11.7c2.63-0.91,6.22,1.98,8.07-2.03
		c2.76-0.66,4.8-0.89,4.95-2.67c-0.04,1.93-2.1,2.15-4.95,2.83c-1.85,4.01-5.44,1.12-8.07,2.03c2.17,1.71,4.73,0.52,7.07,0.93
		c2.74-0.17,5.1-0.39,5.11,3.77c0.03,7.15,0.28,7.15,7.88,7.25c-2.13-2.62-5.25,0.85-6.08-2.85c-0.03-0.12-0.03-0.25-0.02-0.39
		c0,0.08,0,0.15,0.02,0.22c0.83,3.7,3.95,0.22,6.08,2.85c6.11,5.45,15.05,8.66,15,18.98c0.56-0.22,0.96-0.52,1.26-0.89
		c0.02,0.03,0.04,0.06,0.06,0.09c-0.31,0.4-0.72,0.73-1.32,0.96c-0.01,0.32-0.01,0.63,0.02,0.95c1.35,0,2.69,0,4.04,0
		c0.83,0.23,1.73,0.25,2.65,0c23.94,0,47.89,0,71.83,0c3.16,1,6.75,0.89,10.31,0.09c16.35-0.01,32.7-0.02,49.05-0.04
		c0.14-4.59-1.51-9.61,2.97-12.33c1.96-1.19,5.48,1.17,7.76-0.11c2.12-1.19,1.42-4.42,2.79-5.26c3.51-2.17,6.92-0.19,9.34-3.97
		c1.11-1.74-1.08-4.92,0.15-6.64c1.44-2.02,4.28-1.73,5.17-2.83c2.31-2.85,3.35-10.1,0.61-13.71c-0.94-1.24-5.03-0.42-5.69-1.45
		c-1.56-2.46-0.95-4.09-1.17-6.89c-0.36-4.67-2.18-18.89,0.01-22.89c1.17-2.14,2.26-3.19,3.57-3.67c1.8,1.81,5.28,1.87,7.4,0.18
		c0.11-0.09,0.21-0.19,0.31-0.28c0.3,0.01,0.61,0.03,0.93,0.03c0,0,0.1,0.04,0.1,0.04c-0.12-0.11-0.26-0.21-0.41-0.3
		c0.25-0.03,0.49-0.1,0.71-0.22l0-0.85c0.73-0.82,1.35-1.71,1.91-2.74C325.42,414.25,324.98,411.02,322.7,409.72z"/>
	<path class="st177" d="M108.98,267.31c-0.06-13-0.12-25.99-0.17-38.99C106,231.27,105.93,265.2,108.98,267.31z"/>
	<path class="st178" d="M101.06,296.36c2.02-5.51,0.14-11.26,1.05-16.83C99.51,285,101.56,290.76,101.06,296.36z"/>
	<path class="st38" d="M129.98,212.23c-2.01,0.1-4.02,0.2-6.02,0.3c2.56,2.9,1.93,6.44,1.97,9.85c0.05,0.83,0.23,1.59,1.04,2.02
		c22.97-0.08,45.94-0.15,68.9-0.23c-0.46-4.31-9.76-3.62-12.62-3.78c-2.37-0.05-4.73-0.08-7.1-0.08c-1.87-0.25-2.98-1.34-3.32-3.26
		c0.14,0.04-18.91-1.35-12.86-3.69c-0.06-0.28-0.11-0.56-0.16-0.84C149.86,212.43,139.92,212.33,129.98,212.23z"/>
	<path class="st179" d="M125.94,306.3c1.29-1.18,0.96-2.75,0.96-4.21c0.01-23.59,0-47.18-0.01-70.76c-1.64,1.48-0.89,3.44-0.9,5.16
		c-0.1,19.6-0.12,39.2-0.17,58.8C125.86,298.97,125.9,302.64,125.94,306.3z"/>
	<path class="st180" d="M195.87,224.17c-22.97,0.08-45.94,0.15-68.9,0.23c0.05,0.37,0.1,0.74,0.15,1.1
		c21.38-0.04,42.77-0.07,64.15-0.16c1.92-0.01,4,0.65,5.75-0.77C196.64,224.43,196.26,224.3,195.87,224.17z"/>
	<path class="st181" d="M124.92,308.36c0.03,8.28,0.07,16.56,0.1,24.84c0.34-0.02,0.67-0.03,1.01-0.05
		c-0.09-8.3-0.17-16.61-0.26-24.91C125.48,308.23,125.19,308.27,124.92,308.36z"/>
	<path class="st182" d="M270.84,646.98c5.72,0.04,15.32,2.65,15.14-5.64c-0.18-8.01-9.19-5.34-14.97-5.31
		C270.95,639.68,270.89,643.33,270.84,646.98z"/>
	<path class="st16" d="M195.87,224.17c0.38,0.13,0.77,0.26,1.15,0.39c4.55,0.28,7.27-0.52,7.21-6.43c-0.03-2.93,4.61-2.86,7.64-2.64
		c-0.83-2.01-3.62-0.14-4.5-2.18c8.21-4.69-0.27-7,2.84-12.76c3.45-6.39,3.42,1.87,6.03,3.01c2.83-0.12,5.66-0.24,8.49-0.36
		c0,0-0.04,0.02-0.04,0.02c0.86-9.86,0.86-9.86,11.16-9.87c0.66,0,1.32-0.02,1.98-0.02c-0.02-0.98-0.05-1.95-0.07-2.93
		c-6.99-2.07-13.06-0.08-18.66,4.17c-1.96,1.49-3.32,0.61-4.29-1.32c-3.39,0.11-6.22-0.75-8.54,1.75c-2.11,2.28,1.74,6.36-1.46,8.2
		c-2.18,0.78-4.83-1.09-6.74,1.19c1.51,1.02,8.23,0.23,8.38,1.58c0.38,3.45-6.21,4.59-8.36,6.32c-1.46,1.61-3.4,1.09-5.17,1.09
		c-10.98,0.02-21.97-0.01-32.95-0.03c-6.05,2.35,13,3.74,12.86,3.7c0.34,1.92,1.45,3.01,3.32,3.26c2.37,0,4.74,0.03,7.1,0.08
		C186.11,220.55,195.41,219.87,195.87,224.17z"/>
	<path class="st183" d="M237.72,240.36c0,1.67,0,3.33-0.01,5c0,1.33-0.01,2.67-0.01,4c0,2.33,0,4.66,0,6.99
		c0.09,18.96,0.18,37.92,0.28,56.87c0.24,0.06,0.48,0.11,0.71,0.16c0.05-35.23,0.08-70.45,0.23-105.68
		c0.01-1.81-1.48-4.56,1.92-5.29C235.68,200.96,237.99,234.99,237.72,240.36z"/>
	<path class="st184" d="M238.35,190.4c0.02,0.98,0.05,1.95,0.07,2.93c-0.04,0.39-0.08,0.78-0.12,1.18c0.06,0.96,0.11,1.92,0.17,2.88
		c2-0.01,3.99-0.02,5.99-0.02c3.34-8.42,3.15-9.14-4.02-15c-0.89-0.03-1.68,0.16-2.13,1.04c0.02,1.66,0.03,3.33,0.05,4.99
		C238.35,189.07,238.35,189.74,238.35,190.4z"/>
	<path class="st38" d="M216.23,203.56c-2.61-1.14-2.58-9.4-6.03-3.01c-3.11,5.76,5.38,8.07-2.84,12.76c0.88,2.04,3.67,0.17,4.5,2.18
		c1.06,1.39,2.47,1.15,3.9,0.83C215.92,212.07,216.07,207.82,216.23,203.56z"/>
	<path class="st185" d="M125.94,333.26c1.63,1.75,3.76,0.98,5.65,0.99c19.43,0.08,38.86,0.07,58.29,0.08
		c7.72-0.06,15.43-0.12,23.15-0.19c-1.46-1.7-3.4-0.83-5.11-0.84c-17-0.11-34-0.13-51-0.17
		C146.6,333.18,136.27,333.22,125.94,333.26z"/>
	<path class="st63" d="M227.2,280.62c-4.96-2.46-2.38-11.95-7.59-10.4c-7.79,2.32-0.12,8.23,1.27,10.88
		C223.24,285.6,225.14,283.11,227.2,280.62z"/>
	<path class="st186" d="M156.93,333.14c17,0.04,34,0.06,51,0.17c1.7,0.01,3.65-0.86,5.11,0.84c3.62,0.4,7.22-1.27,10.84-0.04
		C223.24,330.46,162.11,330.73,156.93,333.14z"/>
	<path class="st187" d="M256.71,217.49c0.03,4.31,0.07,8.61,0.08,12.92c0.01,6.7,0.45,7.02,7.09,5.03
		c-6.06,1.11-6.28-2.42-6.21-7.07C257.72,224.78,259.33,220.89,256.71,217.49z"/>
	<path class="st136" d="M237.7,194.51c0.04-0.39,0.08-0.78,0.12-1.18c-0.66,0.01-1.32,0.02-1.98,0.02
		c-10.3,0.01-10.3,0.01-11.16,9.87c2.28-2.23-0.3-5.34,1.67-7.41C228.92,193.11,234.16,194.26,237.7,194.51z"/>
	<path class="st63" d="M237.69,256.34c0-2.33,0-4.66,0-6.99c-1.92,0.32-3.61,1.25-3.43,3.32
		C234.43,254.46,234.85,256.72,237.69,256.34z"/>
	<path class="st188" d="M238.68,313.38c-0.24-0.05-0.48-0.11-0.71-0.16c-0.07,6.95-0.14,13.9-0.21,20.86
		c0.31,0.14,0.64,0.18,0.98,0.14C239.5,327.27,238.63,320.32,238.68,313.38z"/>
	<path class="st189" d="M216.23,203.56c-0.15,4.25-0.31,8.5-0.46,12.76c3.23-3.03-0.74-7.68,1.73-10.91
		c1.86-2.44,5.89,0.65,7.22-2.2C221.89,203.33,219.06,203.44,216.23,203.56z"/>
	<path class="st190" d="M239.83,182.37c7.17,5.86,7.36,6.57,4.02,15c6.98,0.22,6.99,0.22,6.97-6.66c-0.01-2.8-0.08-5.6-0.12-8.4
		C247.08,182.33,243.45,182.35,239.83,182.37z"/>
	<path class="st191" d="M153.07,130.61c2.12-0.05,4.28-0.36,6.36-0.1c4.68,0.59,8.28-0.01,8.22-5.89c0.14-2.05,0.27-4.1,0.41-6.15
		c-2.1-4.14,0.63-9.8-4.13-13.11c-4.25-1.58-8.66-0.62-12.99-0.8c0.04,1.62,0.08,3.23,0.11,4.85c1.95,6.94,0.33,14.03,0.87,21.02
		C152.31,130.49,152.69,130.55,153.07,130.61z"/>
	<path class="st148" d="M212.49,110.09c0.62,2.96,5.27,6.52,7.9,5.83c2.69-0.7,2.14-5.32-0.86-4.91
		C217.13,111.33,215.28,108.02,212.49,110.09z"/>
	<path class="st192" d="M225,165.76c0,5.58-0.01,11.16-0.01,16.73c1.82-2.14,0.33-4.77,1.03-7.07c-0.05-2.97-0.1-5.94-0.15-8.92
		C225.58,166.25,225.29,166.01,225,165.76z"/>
	<path class="st141" d="M213.8,94.43c9.39,11.86,18.7,5.98,16.97-7.9c-1.33,0-2.67,0-4,0c-0.27,3-2.44,3-4.65,2.98
		c-2.9-0.02-5.9-0.44-8.23,1.95C213.86,92.52,213.83,93.36,213.8,94.43z"/>
	<path class="st6" d="M226.01,175.42c-0.7,2.31,0.79,4.93-1.03,7.07c-2.75,3.82-6.78,1.07-10.1,1.97c-0.05,2.6-0.09,5.21-0.14,7.81
		c0.09,0.32,0.1,0.65,0.06,0.98c0.97,1.93,2.32,2.81,4.29,1.32c5.59-4.25,11.67-6.24,18.66-4.17c0-0.67,0-1.33,0-2
		c-3.44,0-12.99-4.74-4.89-6.99C233.18,175.29,233.18,175.29,226.01,175.42z"/>
	<path d="M232.85,181.41c-8.1,2.25,1.46,6.99,4.89,6.99c-0.02-1.66-0.03-3.33-0.05-4.99C235.65,183.8,234.4,182.26,232.85,181.41z"
		/>
	<path class="st193" d="M150.95,104.56c4.34,0.18,8.74-0.78,12.99,0.8c2.43-3.61,3.13-7.79,3.92-11.94
		c-12.96,0.05-25.91,0.1-38.87,0.14c-0.04,0.97-0.09,1.94-0.13,2.91c0.28,2.35,0.56,4.7,0.84,7.05c0.33,0.03,0.67,0.06,1,0.1
		C137.45,103.94,144.29,102.3,150.95,104.56z"/>
	<path class="st194" d="M171.69,59.58c-3.43,2.82-8.37,3.4-10.92,7.58c-1,1.65-0.85,4.45-3.86,4.36c0,1.97,0.18,3.96-0.03,5.91
		c-0.53,5.01,1.11,9.99,0.09,14.98c8.37,0.24,8.37,0.24,10.69-6.48c0.04-0.12,0.26-0.19,0.4-0.28c0,0-0.08-0.04-0.08-0.04
		c4.54-6.77-0.93-18.37,3.75-23.12C171.71,61.51,171.7,60.55,171.69,59.58z"/>
	<path class="st195" d="M168.05,85.65c-0.14,0.09-0.36,0.15-0.4,0.28c-2.31,6.72-2.31,6.72-10.69,6.48
		c-7.46,0.03-14.92-0.01-22.38,0.13c-1.87,0.03-4.02-0.86-5.59,1.03c12.96-0.05,25.91-0.1,38.87-0.14
		C167.92,90.83,167.98,88.24,168.05,85.65z"/>
	<path class="st196" d="M171.72,62.48c-4.68,4.76,0.79,16.35-3.75,23.12c2.89,0.32,4.12-0.72,3.99-3.86
		C171.68,75.33,171.78,68.9,171.72,62.48z"/>
	<path class="st197" d="M168.99,52.62c-0.41,2.65-0.57,5.17,2.85,5.99c0.04-2,0.07-3.99,0.11-5.99
		C170.97,52.62,169.98,52.62,168.99,52.62z"/>
	<path class="st141" d="M213.96,91.47c2.33-2.41,5.34-1.99,8.25-1.96c2.21,0.02,4.38,0.02,4.65-2.98c-2.77-0.02-5.56,0.2-8.29-0.11
		C214.44,85.93,213.34,87.81,213.96,91.47z"/>
	<path class="st198" d="M77.97,166.42c-0.36,0.04-0.73,0.09-1.09,0.13c0.08,9.27,0.15,18.55,0.23,27.82
		c0.23,0.02,0.47,0.04,0.7,0.06c0.1-6.34,0.21-12.67,0.31-19.01c-0.06-2.99-0.12-5.99-0.17-8.98
		C77.95,166.44,77.97,166.42,77.97,166.42z"/>
	<path class="st199" d="M78.16,202.43c0,2.95-0.01,5.91-0.01,8.86c17.23,0.08,34.47,0.16,51.7,0.24c4.65-0.1,9.3-0.19,13.96-0.29
		c-4.29-11.12-9.18-8.92-21.07-8.83C107.88,202.53,93.02,202.42,78.16,202.43z"/>
	<path class="st200" d="M149.23,211.48c-1.47-0.02-3.87-0.04-5.34-0.06c-4.68,0.1-9.36,0.19-14.03,0.29
		c0.05,0.23,0.09,0.46,0.13,0.7c9.94,0.1,19.88,0.2,29.82,0.29c3.73-0.12,7.46-0.24,11.18-0.35c-0.31-9.79-0.31-9.79-10.1-9.78
		c-1.32,0-2.65,0.01-3.97,0.02C156.95,211.36,156.95,211.79,149.23,211.48z"/>
	<path class="st201" d="M143.81,211.24c1.39,0,2.78,0,4.18,0c0.19-7.19,1.49-14.33,0.93-21.55c-0.13-1.65,0.77-3.83-1.98-4.3
		c-8.89,0-18.03-0.69-26.9-0.12c-2.71,0.17-5.41,1.28-8.09,0.57c-2.46-0.66-3.95-3.44-6.32-4.04c-6.58-1.67-9.95,4.62-16.1,3.44
		c-5.95-1.15-5.78-8.76-11.4-9.83c-0.1,6.34-0.21,12.67-0.31,19.01c0.11,2.67,0.23,5.34,0.34,8c14.86-0.01,29.72,0.1,44.58-0.02
		C134.63,202.32,139.52,200.12,143.81,211.24z"/>
	<path class="st202" d="M128.99,93.56c1.57-1.89,3.71-1,5.59-1.03c7.46-0.13,14.92-0.1,22.38-0.13c1.02-5-0.62-9.98-0.08-14.98
		c0.21-1.95,0.03-3.94,0.03-5.91c-6.45,0-12.9,0.11-19.35-0.04c-3.43-0.08-4.9,1.27-4.64,4.68c0.3,3.94,0.19,7.41-4.7,9.04
		c-2.03,0.68-3.22,3.74-1.71,5.96c1.16,1.7,0.87,3.87,2.34,5.31C128.9,95.5,128.94,94.53,128.99,93.56z"/>
	<path class="st203" d="M78.12,175.4c5.63,1.07,5.45,8.68,11.4,9.83c6.15,1.18,9.52-5.1,16.1-3.44c2.37,0.6,3.86,3.38,6.32,4.04
		c2.68,0.71,5.38-0.4,8.09-0.57c8.87-0.57,18.02,0.13,26.9,0.12c-0.01-0.32-0.03-0.64-0.05-0.97c-9.46,0-20.36,1.65-29.65,0
		c-6.71-1.19-6.33-1.59-6.31-8.97c-4.79-0.02-16.19,2.29-20.34-0.36c-3.99-2.54-2.82-5.83-6.09-9.15c-3.13,1.38-3.37,1.49-6.5,2.86
		C78.04,171.01,78.08,173.21,78.12,175.4z"/>
	<path class="st204" d="M156.92,202.4c1.32-0.01,2.65-0.02,3.97-0.02c9.78-0.01,9.78-0.01,10.1,9.78c0.33,0.07,0.65,0.06,0.96-0.05
		c-0.39-18.56,18.09,0.45,22.9-9.72c-2.37-1.08-1.9-3.23-1.97-5.19c-0.07-2.3,0.44-4.69-1.07-6.77c-4.64-0.02-9.28-0.04-13.92-0.05
		c-2.32,0.95-6.33-2.26-6.96,2.85c-1,8.14-1.01,8.14-9.09,8.14c-1.64,0-3.29,0.01-4.93,0.01
		C156.91,201.73,156.92,202.07,156.92,202.4z"/>
	<path class="st205" d="M153.07,130.61c-0.38-0.06-0.76-0.11-1.14-0.17c-0.31,0.01-0.62,0.03-0.93,0.04
		c-0.32,3.74-3.02,4.07-5.91,4.13c-1.79,1.24-3.85,0.76-5.8,0.84c-3.28,0.12-6.68-0.36-9.44,2.1c-0.05,11.07,1.28,11.33,12.53,10.85
		C154.86,147.84,152.86,142.08,153.07,130.61z"/>
	<path class="st206" d="M84.94,166.44c2.72,3.15,1.85,6.24,5.64,8.67c4.15,2.65,15.55,0.34,20.34,0.36
		c-5.03-4.5,2.72-7.28-3.18-10.03C102.65,163.05,90.29,165.41,84.94,166.44z"/>
	<path class="st207" d="M191.82,190.45c1.5,2.07,0.99,4.47,1.07,6.77c0.06,1.96-0.4,4.11,1.97,5.19c0.77,0.04,1.54,0.08,2.3,0.11
		c2.54-0.09,5.08-0.18,7.63-0.28c0.33-9.7,0.33-9.7,9.97-9.97c0.05-2.6,0.09-5.21,0.14-7.81
		C215.92,186.11,194.23,189.68,191.82,190.45z"/>
	<path class="st207" d="M156.91,201.4c1.64,0,3.29-0.01,4.93-0.01c8.09,0,8.1,0,9.09-8.14c0.63-5.11,4.64-1.91,6.96-2.85
		c-9.17-7.19-5.28-0.22-11.82,3.85c-7.69,4.79-10.81-5.02-16.13-7.84c-0.01,2.61-0.03,5.22-0.01,7.83
		C149.97,202.19,149.15,201.33,156.91,201.4z"/>
	<path class="st208" d="M117.96,135.51c-1.03,4.87-1.27,13.55,6.37,12.67c6.06-0.69,4.57-6,4.59-10.73c-0.4-0.72-0.8-1.44-1.2-2.16
		C124.47,135.36,121.21,135.43,117.96,135.51z"/>
	<path class="st199" d="M156.91,201.4c-7.76-0.07-6.94,0.79-6.99-7.17c-0.02-2.61,0.01-5.22,0.01-7.83
		c-0.14-2.02-1.56-2.04-3.05-1.97c0.02,0.32,0.03,0.64,0.05,0.97c2.75,0.47,1.85,2.65,1.98,4.3c0.57,7.22-0.74,14.36-0.93,21.55
		c8.97,0.38,8.97,0.38,8.94-8.84C156.92,202.07,156.91,201.73,156.91,201.4z"/>
	<path class="st209" d="M117.96,135.51c3.25-0.07,6.51-0.15,9.76-0.22c0.04-0.3,0.11-0.59,0.21-0.87c0.11-3.27,0.22-6.53,0.33-9.8
		c-0.1-3.69-0.19-7.39-0.29-11.08c-1.76,4.36,1.36,17.27-2.31,20.2c-5.42,4.32-6.93-1.92-7.73-5.23c-0.86-3.57-1.82-17.04-0.3-20.55
		c2.61-6.02,8.19-2.96,13.38-3.54c-0.1-0.26-0.21-0.52-0.31-0.79c-0.33-0.03-0.67-0.06-1-0.1c-12.74-0.16-12.94-0.16-12.68,12.45
		C117.15,122.49,115.66,129.1,117.96,135.51z"/>
	<path class="st210" d="M127.93,134.42c-0.1,0.28-0.17,0.58-0.21,0.87c0.4,0.72,0.8,1.44,1.2,2.16c0.32-0.02,0.64,0.01,0.95,0.08
		c2.76-2.46,6.15-1.98,9.44-2.1c1.95-0.07,4.01,0.4,5.8-0.84C139.38,134.54,133.65,134.48,127.93,134.42z"/>
	<path class="st211" d="M171.95,212.12c-0.32,0.1-0.64,0.12-0.96,0.05c-3.73,0.12-7.46,0.24-11.18,0.35
		c0.05,0.28,0.1,0.56,0.16,0.84c10.98,0.02,21.97,0.05,32.95,0.03c1.77,0,3.71,0.51,5.17-1.09c0,0-0.47,0.07-0.47,0.07
		c-0.29-0.02-0.59-0.06-0.88-0.11C188.47,212.21,180.21,212.17,171.95,212.12z"/>
	<path class="st212" d="M295.13,186.26c-4.04,1.98-7.52,1.02-10.62-1.99c-0.25,0.05-0.51,0.07-0.77,0.05
		c-3.29,2.06-6.31,1.48-9.15-0.92c-1.4,1.91-2.75,3.01-4.27,0.05c-1.56-3.04-3.15-2.31-4.58,0.14c-1.29,2.22-3.45,3.68-4.26,6.48
		c-0.83,2.89-3.5,2.56-5.41,0.47c-1.22-1.33-2.04-3.04-4.15-3.15c-0.13,9-2.23,16.38-14.06,9.99c-0.06-0.96-0.11-1.92-0.17-2.88
		c-3.54-0.26-8.77-1.4-11.35,1.31c-1.97,2.07,0.62,5.17-1.67,7.41c0,0,0.04-0.02,0.04-0.02c-1.33,2.84-5.36-0.25-7.22,2.2
		c-2.47,3.24,1.51,7.89-1.73,10.91c-1.43,0.33-2.84,0.57-3.9-0.83c-3.03-0.21-7.67-0.28-7.64,2.64c0.06,5.91-2.65,6.71-7.21,6.43
		c-1.76,1.42-3.83,0.77-5.75,0.77c-21.38,0.09-42.76,0.12-64.15,0.16c-0.08,1.94-0.15,3.89-0.23,5.83
		c0.01,23.59,0.02,47.18,0.01,70.76c0,1.46,0.33,3.03-0.96,4.21c-0.06,0.65-0.12,1.29-0.18,1.94c0.09,8.3,0.17,16.61,0.26,24.91
		l-0.08,0.1c10.33-0.04,20.66-0.08,30.99-0.12c5.18-2.4,66.31-2.68,66.95,0.97c4.63-0.01,9.25-0.02,13.88-0.03
		c0.07-6.95,0.14-13.9,0.21-20.86c-0.09-18.96-0.18-37.92-0.28-56.87c-2.84,0.38-3.26-1.89-3.42-3.67c-0.19-2.07,1.5-3,3.43-3.32
		c0-1.33,0.01-2.67,0.01-4c-0.6-0.25-1.19-0.37-1.76-0.36c0.58-0.01,1.17,0.11,1.76,0.36c0-1.67,0-3.33,0.01-5
		c0.28-5.37-2.03-39.39,3.12-37.95c5.29,5.03,10.59,10.06,15.88,15.08c2.62,3.4,1.01,7.29,0.96,10.87
		c-0.07,4.65,0.14,8.18,6.21,7.07c0.31-0.03,0.6-0.1,0.89-0.21c-0.43-2.73,0.65-4.69,3.06-5.96c0.44-1.41,0.88-2.81,1.35-4.29
		c-2.93-2.36-5.92,0.06-4.45-5.35c0.88-3.23,2.59-2.87,5.08-4.34c7-4.11,13.44-3.65,13.78-13.62c-0.11-1.59,0.33-3.05,1.31-4.39
		c-0.75-0.56-1.6-0.88-2.56-0.96c-0.3-1.54-3.16-1.16-2.16-4.42c1.73-5.65,12.73,4.34,13.36,6.18c0.04-4.17-0.05-8.17,2.27-11.62
		C295.61,186.31,295.38,186.24,295.13,186.26z M218.1,257.95c1.26,0.36,1.07,2.21,0.55,3.06c-1.33,2.18-2.69,0.11-4.91-0.2
		C215.64,259.58,216.1,257.38,218.1,257.95z M220.88,281.1c-1.39-2.65-9.06-8.56-1.27-10.88c5.21-1.55,2.63,7.94,7.59,10.4
		C225.14,283.11,223.24,285.6,220.88,281.1z"/>
	<path class="st212" d="M213.73,260.81c2.22,0.31,3.58,2.38,4.91,0.2c0.52-0.85,0.71-2.7-0.55-3.06
		C216.1,257.38,215.64,259.58,213.73,260.81z"/>
	<path class="st38" d="M198.08,212.29c2.15-1.73,8.74-2.87,8.36-6.32c-0.15-1.35-6.87-0.56-8.38-1.58c-0.15,2.66-0.3,5.31-0.45,7.97
		L198.08,212.29z"/>
	<path class="st213" d="M214.75,192.27c-9.64,0.28-9.64,0.28-9.97,9.97c0.05,0.32,0.06,0.64,0.03,0.95c3.21-1.84-0.64-5.92,1.46-8.2
		c2.32-2.51,5.15-1.64,8.54-1.75C214.85,192.92,214.83,192.59,214.75,192.27z"/>
	<path class="st214" d="M204.8,203.2c0.03-0.32,0.02-0.64-0.03-0.95c-2.54,0.09-5.08,0.18-7.63,0.28c-0.14,3.24-0.28,6.49-0.42,9.73
		c0.29,0.05,0.58,0.09,0.88,0.11c0.15-2.66,0.3-5.32,0.45-7.97C199.98,202.11,202.62,203.98,204.8,203.2z"/>
	<path class="st215" d="M130.69,103.63c0.1,0.26,0.2,0.52,0.31,0.79c1.76,1.81,0.58,4.07,0.95,6.1c6.28,0.02,12.56,0.04,18.84,0.06
		c0.09-0.39,0.18-0.77,0.26-1.16c-0.04-1.62-0.08-3.23-0.11-4.85C144.29,102.3,137.45,103.94,130.69,103.63z"/>
	<path class="st216" d="M151.06,109.41c-0.09,0.39-0.18,0.77-0.26,1.16c-0.02,4.98-0.03,9.95-0.05,14.93
		c0.09,1.66,0.17,3.31,0.26,4.97c0.31-0.01,0.62-0.02,0.93-0.04C151.39,123.44,153.01,116.35,151.06,109.41z"/>
	<path class="st217" d="M196.74,212.25c0.14-3.24,0.28-6.49,0.42-9.73c-0.77-0.04-1.53-0.08-2.3-0.11
		c-4.8,10.17-23.28-8.85-22.9,9.72C180.21,212.17,188.47,212.21,196.74,212.25z"/>
	<path class="st218" d="M151.01,130.47c-0.09-1.66-0.17-3.31-0.26-4.97c-7.5-0.28-15.05,0.74-22.49-0.88
		c-0.11,3.27-0.22,6.53-0.33,9.8c5.72,0.06,11.45,0.12,17.17,0.19C147.99,134.54,150.69,134.21,151.01,130.47z"/>
	<path class="st219" d="M128.25,124.62c7.44,1.62,14.99,0.61,22.49,0.88c0.02-4.98,0.03-9.95,0.05-14.93
		c-6.28-0.02-12.56-0.04-18.84-0.06c-1.33,1.01-2.66,2.02-3.99,3.02C128.06,117.23,128.16,120.92,128.25,124.62z"/>
	<path class="st220" d="M127.96,113.53c1.33-1.01,2.66-2.02,3.99-3.02c-0.37-2.02,0.81-4.29-0.95-6.1
		c-5.2,0.58-10.78-2.48-13.38,3.54c-1.52,3.51-0.56,16.98,0.3,20.55c0.8,3.31,2.31,9.55,7.73,5.23
		C129.32,130.8,126.21,117.89,127.96,113.53z"/>
	<path d="M246.86,502.65c-6.3-3.21-13.77-2.19-20.62-2.16c-8.88,0.04-17.77,0.08-26.65,0.12c-8.55,0.04-17.11,0.07-25.66,0.11
		c-8.11,0.04-16.18-0.07-24.15,1.67c-5.47,1.19-4.32,10.12,1.33,9.82c6.81-0.35,13.62-0.53,20.42-0.55c0.72,0.48,1.62,0.78,2.7,0.79
		c12.21,0.12,24.41,0.24,36.62,0.35c11.63,0.11,23.26,0.57,34.82-1.01C249.95,511.2,250.44,504.48,246.86,502.65z"/>
	<path d="M131.99,479.98c-2.73,0.38-5.9-2.07-6.24-4.79c-0.79-6.18-10.28-6.6-10,0c0.54,12.77,1.9,25.76,0.72,38.51
		c-1.06,11.39,1.89,22.69,1.84,34.15c-0.02,0.81-0.04,1.62-0.05,2.43c-0.15,6.45,9.72,6.41,10,0c0.04-0.81,0.05-1.62,0.05-2.43
		c0.23-10.12,0.41-20.25-0.01-30.37c-0.21-4.92-0.99-9.9-0.94-14.82c0.05-4.68,2.93-8.33,3.33-12.92c1.28,0.09,2.6,0.06,3.96-0.13
		C140.99,488.74,138.29,479.1,131.99,479.98z"/>
</g>
</svg>
