<svg id="visual" viewBox="0 0 900 600"  xmlns="http://www.w3.org/2000/svg" xmlns:xlink="http://www.w3.org/1999/xlink" version="1.1"><path d="M782 600L800 600L800 540L899 540L899 480L845 480L845 420L809 420L809 360L818 360L818 300L782 300L782 240L818 240L818 180L899 180L899 120L782 120L782 60L845 60L845 0L900 0L900 60L900 60L900 120L900 120L900 180L900 180L900 240L900 240L900 300L900 300L900 360L900 360L900 420L900 420L900 480L900 480L900 540L900 540L900 600L900 600Z" fill="#0d118a"></path><path d="M710 600L755 600L755 540L827 540L827 480L764 480L764 420L674 420L674 360L737 360L737 300L710 300L710 240L818 240L818 180L845 180L845 120L719 120L719 60L773 60L773 0L846 0L846 60L783 60L783 120L900 120L900 180L819 180L819 240L783 240L783 300L819 300L819 360L810 360L810 420L846 420L846 480L900 480L900 540L801 540L801 600L783 600Z" fill="#002898"></path><path d="M602 600L692 600L692 540L728 540L728 480L674 480L674 420L449 420L449 360L638 360L638 300L593 300L593 240L638 240L638 180L665 180L665 120L629 120L629 60L719 60L719 0L774 0L774 60L720 60L720 120L846 120L846 180L819 180L819 240L711 240L711 300L738 300L738 360L675 360L675 420L765 420L765 480L828 480L828 540L756 540L756 600L711 600Z" fill="#003ba4"></path><path d="M557 600L503 600L503 540L377 540L377 480L359 480L359 420L224 420L224 360L368 360L368 300L197 300L197 240L377 240L377 180L440 180L440 120L413 120L413 60L413 60L413 0L720 0L720 60L630 60L630 120L666 120L666 180L639 180L639 240L594 240L594 300L639 300L639 360L450 360L450 420L675 420L675 480L729 480L729 540L693 540L693 600L603 600Z" fill="#004daf"></path><path d="M467 600L404 600L404 540L359 540L359 480L287 480L287 420L224 420L224 360L296 360L296 300L197 300L197 240L197 240L197 180L359 180L359 120L413 120L413 60L260 60L260 0L414 0L414 60L414 60L414 120L441 120L441 180L378 180L378 240L198 240L198 300L369 300L369 360L225 360L225 420L360 420L360 480L378 480L378 540L504 540L504 600L558 600Z" fill="#005eb9"></path><path d="M449 600L323 600L323 540L233 540L233 480L170 480L170 420L152 420L152 360L188 360L188 300L179 300L179 240L179 240L179 180L260 180L260 120L386 120L386 60L242 60L242 0L261 0L261 60L414 60L414 120L360 120L360 180L198 180L198 240L198 240L198 300L297 300L297 360L225 360L225 420L288 420L288 480L360 480L360 540L405 540L405 600L468 600Z" fill="#006fc1"></path><path d="M332 600L314 600L314 540L179 540L179 480L116 480L116 420L125 420L125 360L98 360L98 300L116 300L116 240L170 240L170 180L215 180L215 120L278 120L278 60L197 60L197 0L243 0L243 60L387 60L387 120L261 120L261 180L180 180L180 240L180 240L180 300L189 300L189 360L153 360L153 420L171 420L171 480L234 480L234 540L324 540L324 600L450 600Z" fill="#007fc7"></path><path d="M332 600L224 600L224 540L116 540L116 480L44 480L44 420L116 420L116 360L8 360L8 300L62 300L62 240L89 240L89 180L116 180L116 120L206 120L206 60L188 60L188 0L198 0L198 60L279 60L279 120L216 120L216 180L171 180L171 240L117 240L117 300L99 300L99 360L126 360L126 420L117 420L117 480L180 480L180 540L315 540L315 600L333 600Z" fill="#188ecc"></path><path d="M0 600L0 600L0 540L0 540L0 480L0 480L0 420L0 420L0 360L0 360L0 300L0 300L0 240L0 240L0 180L0 180L0 120L0 120L0 60L0 60L0 0L189 0L189 60L207 60L207 120L117 120L117 180L90 180L90 240L63 240L63 300L9 300L9 360L117 360L117 420L45 420L45 480L117 480L117 540L225 540L225 600L333 600Z" fill="#389dcf"></path></svg>